SplineFontDB: 3.0
FontName: Jura-Light
FullName: Jura Light
FamilyName: Jura
Weight: Light
Copyright: Copyright 2009, 2010, 2011 by Daniel Johnson.  Released under the terms of the Open Font License v1.1.
Version: 2.5.1
ItalicAngle: 0
UnderlinePosition: -102
UnderlineWidth: 51
Ascent: 819
Descent: 205
LayerCount: 2
Layer: 0 1 "Back"  1
Layer: 1 1 "Fore"  0
XUID: [1021 288 713564382 1248613]
FSType: 0
OS2Version: 2
OS2_WeightWidthSlopeOnly: 0
OS2_UseTypoMetrics: 1
CreationTime: 1232036477
ModificationTime: 1304075276
PfmFamily: 33
TTFWeight: 300
TTFWidth: 5
LineGap: 0
VLineGap: 0
Panose: 2 0 3 3 0 0 0 0 0 0
OS2TypoAscent: 833
OS2TypoAOffset: 0
OS2TypoDescent: -205
OS2TypoDOffset: 0
OS2TypoLinegap: 0
OS2WinAscent: 833
OS2WinAOffset: 0
OS2WinDescent: 205
OS2WinDOffset: 0
HheadAscent: 833
HheadAOffset: 0
HheadDescent: -205
HheadDOffset: 0
OS2SubXSize: 665
OS2SubYSize: 716
OS2SubXOff: 0
OS2SubYOff: 143
OS2SupXSize: 665
OS2SupYSize: 716
OS2SupXOff: 0
OS2SupYOff: 491
OS2StrikeYSize: 51
OS2StrikeYPos: 265
OS2Vendor: 'PfEd'
OS2CodePages: 2000009f.00000000
OS2UnicodeRanges: a00002ef.5000204b.00000020.00000000
Lookup: 260 0 0 "'abvm' Above Base Mark lookup 0"  {"'abvm' Above Base Mark lookup 0 subtable"  } ['abvm' ('DFLT' <'dflt' > 'cyrl' <'dflt' > 'grek' <'dflt' > 'latn' <'dflt' > ) ]
Lookup: 260 0 0 "'blwm' Below Base Mark lookup 1"  {"'blwm' Below Base Mark lookup 1 subtable"  } ['blwm' ('DFLT' <'dflt' > 'cyrl' <'dflt' > 'grek' <'dflt' > 'latn' <'dflt' > ) ]
Lookup: 258 0 0 "'kern' Horizontal Kerning in Latin lookup 2"  {"'kern' Horizontal Kerning in Latin lookup 2 per glyph data 0"  "'kern' Horizontal Kerning in Latin lookup 2 kerning class 1"  } ['kern' ('latn' <'dflt' > ) ]
MarkAttachClasses: 1
DEI: 91125
KernClass2: 157+ 123 "'kern' Horizontal Kerning in Latin lookup 2 kerning class 1" 
 5 space
 2 Xi
 29 Alphatonos Alpha Delta Lambda
 5 Gamma
 20 Epsilontonos Epsilon
 4 Zeta
 5 Kappa
 26 Omicrontonos Theta Omicron
 3 Rho
 5 Sigma
 3 Tau

StartChar: .notdef
Encoding: 65536 -1 0
Width: 538
Flags: W
LayerCount: 2
Fore
SplineSet
156 546 m 2,0,-1
 156 130 l 2,1,2
 156 98 156 98 167.5 84.5 c 128,-1,3
 179 71 179 71 210 71 c 2,4,-1
 328 71 l 2,5,6
 359 71 359 71 370.5 84.5 c 128,-1,7
 382 98 382 98 382 130 c 2,8,-1
 382 546 l 2,9,10
 382 578 382 578 370.5 592 c 128,-1,11
 359 606 359 606 328 606 c 2,12,-1
 210 606 l 2,13,14
 179 606 179 606 167.5 592 c 128,-1,15
 156 578 156 578 156 546 c 2,0,-1
85 0 m 1,16,-1
 85 678 l 1,17,-1
 453 678 l 1,18,-1
 453 0 l 1,19,-1
 85 0 l 1,16,-1
EndSplineSet
EndChar

StartChar: exclam
Encoding: 33 33 4
Width: 234
GlyphClass: 2
Flags: W
LayerCount: 2
Fore
SplineSet
164 29 m 128,-1,1
 164 15 164 15 148.5 4 c 128,-1,2
 133 -7 133 -7 117 -7 c 0,3,4
 102 -7 102 -7 86.5 4 c 128,-1,5
 71 15 71 15 71 29 c 128,-1,6
 71 43 71 43 86.5 54 c 128,-1,7
 102 65 102 65 117 65 c 0,8,9
 133 65 133 65 148.5 54 c 128,-1,0
 164 43 164 43 164 29 c 128,-1,1
96 616 m 2,10,11
 96 644 96 644 117 644 c 128,-1,12
 138 644 138 644 138 616 c 2,13,-1
 138 197 l 2,14,15
 138 169 138 169 116 169 c 0,16,17
 96 169 96 169 96 197 c 2,18,-1
 96 616 l 2,10,11
EndSplineSet
EndChar

StartChar: quotedbl
Encoding: 34 34 5
Width: 285
GlyphClass: 2
Flags: W
LayerCount: 2
Fore
SplineSet
214 466 m 2,0,1
 214 438 214 438 192 438 c 0,2,3
 172 438 172 438 172 466 c 2,4,-1
 172 615 l 2,5,6
 172 643 172 643 193 643 c 128,-1,7
 214 643 214 643 214 615 c 2,8,-1
 214 466 l 2,0,1
112 466 m 2,9,10
 112 438 112 438 91 438 c 0,11,12
 71 438 71 438 71 466 c 2,13,-1
 71 615 l 2,14,15
 71 643 71 643 92 643 c 0,16,17
 112 643 112 643 112 615 c 2,18,-1
 112 466 l 2,9,10
EndSplineSet
EndChar

StartChar: numbersign
Encoding: 35 35 6
Width: 595
GlyphClass: 2
Flags: W
LayerCount: 2
Fore
SplineSet
313 625 m 0,0,1
 334 625 334 625 334 605 c 0,2,3
 334 599 334 599 331 590 c 2,4,-1
 272 431 l 1,5,-1
 406 431 l 1,6,-1
 470 604 l 2,7,8
 478 625 478 625 492 625 c 0,9,10
 501 625 501 625 507 619 c 128,-1,11
 513 613 513 613 513 604 c 0,12,13
 513 598 513 598 510 590 c 2,14,-1
 452 431 l 1,15,-1
 522 431 l 2,16,17
 550 431 550 431 550 410 c 128,-1,18
 550 389 550 389 522 389 c 2,19,-1
 436 389 l 1,20,-1
 385 247 l 1,21,-1
 491 247 l 2,22,23
 519 247 519 247 519 225 c 0,24,25
 519 205 519 205 491 205 c 2,26,-1
 370 205 l 1,27,-1
 306 32 l 2,28,29
 299 11 299 11 284 11 c 0,30,31
 263 11 263 11 263 32 c 0,32,33
 263 38 263 38 266 46 c 2,34,-1
 325 205 l 1,35,-1
 190 205 l 1,36,-1
 127 32 l 2,37,38
 120 11 120 11 105 11 c 0,39,40
 85 11 85 11 85 31 c 0,41,42
 85 37 85 37 88 46 c 2,43,-1
 146 205 l 1,44,-1
 73 205 l 2,45,46
 45 205 45 205 45 226 c 128,-1,47
 45 247 45 247 73 247 c 2,48,-1
 162 247 l 1,49,-1
 213 389 l 1,50,-1
 103 389 l 2,51,52
 76 389 76 389 76 411 c 0,53,54
 76 431 76 431 103 431 c 2,55,-1
 228 431 l 1,56,-1
 292 604 l 2,57,58
 300 625 300 625 313 625 c 0,0,1
257 389 m 1,59,-1
 206 247 l 1,60,-1
 340 247 l 1,61,-1
 391 389 l 1,62,-1
 257 389 l 1,59,-1
EndSplineSet
EndChar

StartChar: dollar
Encoding: 36 36 7
Width: 567
GlyphClass: 2
Flags: W
LayerCount: 2
Fore
SplineSet
156 91 m 2,0,1
 125 91 125 91 104.5 100 c 128,-1,2
 84 109 84 109 75.5 126 c 128,-1,3
 67 143 67 143 64 159 c 128,-1,4
 61 175 61 175 61 198 c 0,5,6
 61 228 61 228 82 228 c 128,-1,7
 103 228 103 228 103 200 c 0,8,9
 103 164 103 164 116 148.5 c 128,-1,10
 129 133 129 133 163 133 c 2,11,-1
 267 133 l 1,12,-1
 267 306 l 1,13,-1
 185 306 l 2,14,15
 61 306 61 306 61 434 c 0,16,17
 61 492 61 492 89.5 522 c 128,-1,18
 118 552 118 552 185 552 c 2,19,-1
 267 552 l 1,20,-1
 267 615 l 2,21,22
 267 643 267 643 288 643 c 128,-1,23
 309 643 309 643 309 615 c 2,24,-1
 309 552 l 1,25,-1
 410 552 l 2,26,27
 441 552 441 552 461.5 543 c 128,-1,28
 482 534 482 534 490.5 517 c 128,-1,29
 499 500 499 500 502 484 c 128,-1,30
 505 468 505 468 505 445 c 0,31,32
 505 415 505 415 484 415 c 128,-1,33
 463 415 463 415 463 443 c 0,34,35
 463 479 463 479 450 494.5 c 128,-1,36
 437 510 437 510 403 510 c 2,37,-1
 309 510 l 1,38,-1
 309 348 l 1,39,-1
 384 348 l 2,40,41
 507 348 507 348 507 214 c 0,42,43
 507 91 507 91 384 91 c 2,44,-1
 309 91 l 1,45,-1
 309 20 l 2,46,47
 309 -7 309 -7 287 -7 c 0,48,49
 267 -7 267 -7 267 20 c 2,50,-1
 267 91 l 1,51,-1
 156 91 l 2,0,1
309 306 m 1,52,-1
 309 133 l 1,53,-1
 401 133 l 2,54,55
 465 133 465 133 465 214 c 0,56,57
 465 256 465 256 447 281 c 128,-1,58
 429 306 429 306 401 306 c 2,59,-1
 309 306 l 1,52,-1
267 348 m 1,60,-1
 267 510 l 1,61,-1
 167 510 l 2,62,63
 103 510 103 510 103 434 c 0,64,65
 103 393 103 393 121 370.5 c 128,-1,66
 139 348 139 348 167 348 c 2,67,-1
 267 348 l 1,60,-1
EndSplineSet
EndChar

StartChar: percent
Encoding: 37 37 8
Width: 540
GlyphClass: 2
Flags: W
LayerCount: 2
Fore
SplineSet
347 183 m 0,0,1
 347 169 347 169 357.5 158.5 c 128,-1,2
 368 148 368 148 382 148 c 0,3,4
 397 148 397 148 407 158.5 c 128,-1,5
 417 169 417 169 417 183 c 0,6,7
 417 198 417 198 407 208 c 128,-1,8
 397 218 397 218 382 218 c 0,9,10
 368 218 368 218 357.5 208 c 128,-1,11
 347 198 347 198 347 183 c 0,0,1
305 183 m 128,-1,13
 305 214 305 214 327.5 237 c 128,-1,14
 350 260 350 260 382 260 c 128,-1,15
 414 260 414 260 436.5 237 c 128,-1,16
 459 214 459 214 459 183 c 128,-1,17
 459 152 459 152 436.5 129 c 128,-1,18
 414 106 414 106 382 106 c 128,-1,19
 350 106 350 106 327.5 129 c 128,-1,12
 305 152 305 152 305 183 c 128,-1,13
124 471 m 128,-1,21
 124 457 124 457 134.5 446.5 c 128,-1,22
 145 436 145 436 159 436 c 128,-1,23
 173 436 173 436 183.5 446.5 c 128,-1,24
 194 457 194 457 194 471 c 128,-1,25
 194 485 194 485 183.5 495.5 c 128,-1,26
 173 506 173 506 159 506 c 128,-1,27
 145 506 145 506 134.5 495.5 c 128,-1,20
 124 485 124 485 124 471 c 128,-1,21
81 471 m 128,-1,29
 81 503 81 503 104 525.5 c 128,-1,30
 127 548 127 548 159 548 c 0,31,32
 190 548 190 548 212.5 525.5 c 128,-1,33
 235 503 235 503 235 471 c 128,-1,34
 235 439 235 439 212.5 416.5 c 128,-1,35
 190 394 190 394 159 394 c 0,36,37
 127 394 127 394 104 416.5 c 128,-1,28
 81 439 81 439 81 471 c 128,-1,29
451 528 m 0,38,39
 458 528 458 528 464.5 522 c 128,-1,40
 471 516 471 516 471 508 c 128,-1,41
 471 500 471 500 460 487 c 1,42,-1
 110 137 l 2,43,44
 99 126 99 126 89 126 c 0,45,46
 82 126 82 126 75.5 132 c 128,-1,47
 69 138 69 138 69 146 c 0,48,49
 69 156 69 156 80 167 c 2,50,-1
 430 517 l 1,51,52
 443 528 443 528 451 528 c 0,38,39
EndSplineSet
EndChar

StartChar: ampersand
Encoding: 38 38 9
Width: 494
GlyphClass: 2
Flags: W
LayerCount: 2
Fore
SplineSet
374 528 m 0,0,1
 374 520 374 520 368 514 c 128,-1,2
 362 508 362 508 353 508 c 0,3,4
 343 508 343 508 332 523 c 128,-1,5
 321 538 321 538 311.5 556.5 c 128,-1,6
 302 575 302 575 281.5 590 c 128,-1,7
 261 605 261 605 235 605 c 0,8,9
 186 605 186 605 146 569.5 c 128,-1,10
 106 534 106 534 106 476 c 0,11,12
 106 439 106 439 145 394 c 2,13,-1
 385 117 l 1,14,15
 419 164 419 164 419 227 c 0,16,17
 419 258 419 258 441 258 c 0,18,19
 460 258 460 258 460 227 c 0,20,21
 460 147 460 147 414 84 c 1,22,-1
 462 29 l 2,23,24
 468 22 468 22 468 11 c 0,25,26
 468 -7 468 -7 451 -7 c 0,27,28
 438 -7 438 -7 425 7 c 2,29,-1
 386 52 l 1,30,31
 320 -9 320 -9 241 -9 c 0,32,33
 208 -9 208 -9 174 1 c 128,-1,34
 140 11 140 11 108.5 32 c 128,-1,35
 77 53 77 53 57 92 c 128,-1,36
 37 131 37 131 37 182 c 0,37,38
 37 231 37 231 58.5 279 c 128,-1,39
 80 327 80 327 123 356 c 1,40,-1
 109 373 l 1,41,42
 62 427 62 427 62 476 c 0,43,44
 62 550 62 550 117.5 598.5 c 128,-1,45
 173 647 173 647 237 647 c 0,46,47
 276 647 276 647 310 618.5 c 128,-1,48
 344 590 344 590 359 563.5 c 128,-1,49
 374 537 374 537 374 528 c 0,0,1
359 84 m 1,50,-1
 151 325 l 1,51,52
 114 304 114 304 96.5 264 c 128,-1,53
 79 224 79 224 79 182 c 0,54,55
 79 105 79 105 129 69 c 128,-1,56
 179 33 179 33 241 33 c 0,57,58
 305 33 305 33 359 84 c 1,50,-1
EndSplineSet
EndChar

StartChar: quotesingle
Encoding: 39 39 10
Width: 183
GlyphClass: 2
Flags: W
LayerCount: 2
Fore
SplineSet
112 466 m 2,0,1
 112 438 112 438 91 438 c 0,2,3
 71 438 71 438 71 466 c 2,4,-1
 71 615 l 2,5,6
 71 643 71 643 92 643 c 0,7,8
 112 643 112 643 112 615 c 2,9,-1
 112 466 l 2,0,1
EndSplineSet
EndChar

StartChar: parenleft
Encoding: 40 40 11
Width: 237
GlyphClass: 2
Flags: W
LayerCount: 2
Fore
SplineSet
193 636 m 1,0,1
 139 636 139 636 127 615.5 c 128,-1,2
 115 595 115 595 115 503 c 2,3,-1
 115 133 l 2,4,5
 115 41 115 41 127 20.5 c 128,-1,6
 139 0 139 0 193 0 c 1,7,-1
 193 -42 l 1,8,9
 148 -42 148 -42 124 -30 c 128,-1,10
 100 -18 100 -18 86.5 20.5 c 128,-1,11
 73 59 73 59 73 133 c 2,12,-1
 73 503 l 2,13,14
 73 577 73 577 86.5 615.5 c 128,-1,15
 100 654 100 654 124 666 c 128,-1,16
 148 678 148 678 193 678 c 1,17,-1
 193 636 l 1,0,1
EndSplineSet
EndChar

StartChar: parenright
Encoding: 41 41 12
Width: 236
GlyphClass: 2
Flags: W
LayerCount: 2
Fore
SplineSet
44 0 m 1,0,1
 97 0 97 0 109 20.5 c 128,-1,2
 121 41 121 41 121 133 c 2,3,-1
 121 503 l 2,4,5
 121 595 121 595 109 615.5 c 128,-1,6
 97 636 97 636 44 636 c 1,7,-1
 44 678 l 1,8,9
 111 678 111 678 137 644.5 c 128,-1,10
 163 611 163 611 163 503 c 2,11,-1
 163 133 l 2,12,13
 163 25 163 25 137 -8.5 c 128,-1,14
 111 -42 111 -42 44 -42 c 1,15,-1
 44 0 l 1,0,1
EndSplineSet
EndChar

StartChar: asterisk
Encoding: 42 42 13
Width: 387
GlyphClass: 2
Flags: W
LayerCount: 2
Fore
SplineSet
322 429 m 0,0,1
 322 424 322 424 317 416.5 c 128,-1,2
 312 409 312 409 302 409 c 0,3,4
 296 409 296 409 284 414 c 1,5,-1
 214 455 l 1,6,-1
 214 374 l 2,7,8
 214 346 214 346 193 346 c 128,-1,9
 172 346 172 346 172 374 c 2,10,-1
 172 455 l 1,11,-1
 102 414 l 1,12,13
 90 409 90 409 84 409 c 0,14,15
 76 409 76 409 70.5 415.5 c 128,-1,16
 65 422 65 422 65 429 c 0,17,18
 65 441 65 441 81 451 c 2,19,-1
 151 492 l 1,20,-1
 81 531 l 2,21,22
 65 541 65 541 65 553 c 0,23,24
 65 558 65 558 69.5 565.5 c 128,-1,25
 74 573 74 573 84 573 c 0,26,27
 90 573 90 573 102 568 c 1,28,-1
 172 527 l 1,29,-1
 172 608 l 2,30,31
 172 636 172 636 194 636 c 0,32,33
 214 636 214 636 214 608 c 2,34,-1
 214 527 l 1,35,-1
 284 568 l 1,36,37
 296 573 296 573 302 573 c 0,38,39
 310 573 310 573 316 566.5 c 128,-1,40
 322 560 322 560 322 553 c 0,41,42
 322 542 322 542 305 531 c 1,43,-1
 236 492 l 1,44,-1
 305 451 l 2,45,46
 322 440 322 440 322 429 c 0,0,1
EndSplineSet
EndChar

StartChar: plus
Encoding: 43 43 14
Width: 510
GlyphClass: 2
Flags: W
LayerCount: 2
Fore
SplineSet
276 20 m 2,0,1
 276 -7 276 -7 255 -7 c 128,-1,2
 234 -7 234 -7 234 20 c 2,3,-1
 234 209 l 1,4,-1
 65 209 l 2,5,6
 39 209 39 209 39 231 c 0,7,8
 39 252 39 252 65 252 c 2,9,-1
 234 252 l 1,10,-1
 234 440 l 2,11,12
 234 468 234 468 256 468 c 0,13,14
 276 468 276 468 276 440 c 2,15,-1
 276 252 l 1,16,-1
 443 252 l 2,17,18
 472 252 472 252 472 229 c 0,19,20
 472 209 472 209 443 209 c 2,21,-1
 276 209 l 1,22,-1
 276 20 l 2,0,1
EndSplineSet
EndChar

StartChar: comma
Encoding: 44 44 15
Width: 203
GlyphClass: 2
Flags: W
LayerCount: 2
Fore
SplineSet
97 61 m 0,0,1
 107 61 107 61 120 56 c 128,-1,2
 133 51 133 51 133 41 c 0,3,4
 133 32 133 32 129 24 c 2,5,-1
 87 -59 l 1,6,7
 78 -80 78 -80 67 -80 c 0,8,9
 50 -80 50 -80 50 -60 c 0,10,11
 50 -54 50 -54 53 -45 c 2,12,-1
 77 41 l 2,13,14
 83 61 83 61 97 61 c 0,0,1
EndSplineSet
EndChar

StartChar: hyphen
Encoding: 45 45 16
Width: 446
GlyphClass: 2
Flags: W
LayerCount: 2
Fore
SplineSet
99 209 m 2,0,1
 73 209 73 209 73 231 c 0,2,3
 73 252 73 252 99 252 c 2,4,-1
 344 252 l 2,5,6
 373 252 373 252 373 229 c 0,7,8
 373 209 373 209 344 209 c 2,9,-1
 99 209 l 2,0,1
EndSplineSet
EndChar

StartChar: period
Encoding: 46 46 17
Width: 224
GlyphClass: 2
Flags: W
LayerCount: 2
Fore
SplineSet
66 29 m 128,-1,1
 66 43 66 43 81 54 c 128,-1,2
 96 65 96 65 112 65 c 0,3,4
 127 65 127 65 142.5 54 c 128,-1,5
 158 43 158 43 158 29 c 128,-1,6
 158 15 158 15 142.5 4 c 128,-1,7
 127 -7 127 -7 112 -7 c 0,8,9
 96 -7 96 -7 81 4 c 128,-1,0
 66 15 66 15 66 29 c 128,-1,1
EndSplineSet
EndChar

StartChar: slash
Encoding: 47 47 18
Width: 349
GlyphClass: 2
Flags: W
LayerCount: 2
Fore
SplineSet
284 645 m 0,0,1
 306 645 306 645 306 626 c 0,2,3
 306 619 306 619 303 610 c 2,4,-1
 85 12 l 1,5,6
 79 -8 79 -8 64 -8 c 0,7,8
 43 -8 43 -8 43 11 c 0,9,10
 43 16 43 16 46 27 c 2,11,-1
 264 625 l 1,12,13
 270 645 270 645 284 645 c 0,0,1
EndSplineSet
EndChar

StartChar: zero
Encoding: 48 48 19
Width: 592
GlyphClass: 2
Flags: W
LayerCount: 2
Fore
SplineSet
116 497 m 2,0,-1
 116 138 l 2,1,2
 116 101 116 101 151 71.5 c 128,-1,3
 186 42 186 42 236 42 c 2,4,-1
 356 42 l 2,5,6
 406 42 406 42 441 71.5 c 128,-1,7
 476 101 476 101 476 138 c 2,8,-1
 476 497 l 2,9,10
 476 534 476 534 441 563.5 c 128,-1,11
 406 593 406 593 356 593 c 2,12,-1
 236 593 l 2,13,14
 186 593 186 593 151 563.5 c 128,-1,15
 116 534 116 534 116 497 c 2,0,-1
518 154 m 2,16,17
 518 86 518 86 469 43 c 128,-1,18
 420 0 420 0 348 0 c 2,19,-1
 244 0 l 2,20,21
 172 0 172 0 123 43 c 128,-1,22
 74 86 74 86 74 154 c 2,23,-1
 74 482 l 2,24,25
 74 550 74 550 123 593 c 128,-1,26
 172 636 172 636 244 636 c 2,27,-1
 348 636 l 2,28,29
 420 636 420 636 469 593 c 128,-1,30
 518 550 518 550 518 482 c 2,31,-1
 518 154 l 2,16,17
EndSplineSet
EndChar

StartChar: one
Encoding: 49 49 20
Width: 592
GlyphClass: 2
Flags: W
LayerCount: 2
Fore
SplineSet
284 616 m 1,0,-1
 250 583 l 2,1,2
 238 570 238 570 225 570 c 0,3,4
 206 570 206 570 206 588 c 0,5,6
 206 599 206 599 218 610 c 2,7,-1
 280 673 l 2,8,9
 292 685 292 685 304 685 c 0,10,11
 308 685 308 685 312.5 683.5 c 128,-1,12
 317 682 317 682 321.5 676.5 c 128,-1,13
 326 671 326 671 326 662 c 2,14,-1
 326 20 l 2,15,16
 326 -7 326 -7 305 -7 c 128,-1,17
 284 -7 284 -7 284 20 c 2,18,-1
 284 616 l 1,0,-1
EndSplineSet
EndChar

StartChar: two
Encoding: 50 50 21
Width: 592
GlyphClass: 2
Flags: W
LayerCount: 2
Fore
SplineSet
518 460 m 0,0,1
 518 411 518 411 476.5 371 c 128,-1,2
 435 331 435 331 376.5 300 c 128,-1,3
 318 269 318 269 259 236.5 c 128,-1,4
 200 204 200 204 158.5 154 c 128,-1,5
 117 104 117 104 117 42 c 1,6,-1
 488 42 l 2,7,8
 518 42 518 42 518 20 c 0,9,10
 518 0 518 0 488 0 c 2,11,-1
 75 0 l 1,12,-1
 75 44 l 2,13,14
 75 95 75 95 97 138 c 128,-1,15
 119 181 119 181 154.5 209.5 c 128,-1,16
 190 238 190 238 233 263 c 128,-1,17
 276 288 276 288 318.5 309 c 128,-1,18
 361 330 361 330 396.5 351.5 c 128,-1,19
 432 373 432 373 454 400.5 c 128,-1,20
 476 428 476 428 476 460 c 0,21,22
 476 546 476 546 440 570 c 128,-1,23
 404 594 404 594 311 594 c 2,24,-1
 176 594 l 2,25,26
 142 594 142 594 129 579 c 128,-1,27
 116 564 116 564 116 529 c 0,28,29
 116 499 116 499 94 499 c 0,30,31
 74 499 74 499 74 529 c 0,32,33
 74 587 74 587 96 611.5 c 128,-1,34
 118 636 118 636 169 636 c 2,35,-1
 311 636 l 2,36,37
 362 636 362 636 396.5 629.5 c 128,-1,38
 431 623 431 623 460.5 605 c 128,-1,39
 490 587 490 587 504 551 c 128,-1,40
 518 515 518 515 518 460 c 0,0,1
EndSplineSet
EndChar

StartChar: three
Encoding: 51 51 22
Width: 592
GlyphClass: 2
Flags: W
LayerCount: 2
Fore
SplineSet
336 594 m 2,0,-1
 256 594 l 2,1,2
 211 594 211 594 163.5 576.5 c 128,-1,3
 116 559 116 559 116 527 c 0,4,5
 116 499 116 499 95 499 c 128,-1,6
 74 499 74 499 74 529 c 0,7,8
 74 571 74 571 121 603.5 c 128,-1,9
 168 636 168 636 249 636 c 2,10,-1
 326 636 l 2,11,12
 430 636 430 636 474 595 c 128,-1,13
 518 554 518 554 518 451 c 0,14,15
 518 416 518 416 469.5 374.5 c 128,-1,16
 421 333 421 333 388 326 c 1,17,18
 420 320 420 320 469 271 c 128,-1,19
 518 222 518 222 518 185 c 0,20,21
 518 82 518 82 474 41 c 128,-1,22
 430 0 430 0 326 0 c 2,23,-1
 249 0 l 2,24,25
 168 0 168 0 121 32.5 c 128,-1,26
 74 65 74 65 74 106 c 0,27,28
 74 137 74 137 95 137 c 128,-1,29
 116 137 116 137 116 109 c 0,30,31
 116 77 116 77 163.5 59.5 c 128,-1,32
 211 42 211 42 256 42 c 2,33,-1
 336 42 l 2,34,35
 416 42 416 42 446.5 74.5 c 128,-1,36
 477 107 477 107 477 166 c 0,37,38
 477 216 477 216 411.5 260 c 128,-1,39
 346 304 346 304 291 304 c 0,40,41
 259 304 259 304 259 326 c 0,42,43
 259 347 259 347 291 347 c 0,44,45
 348 347 348 347 412.5 384.5 c 128,-1,46
 477 422 477 422 477 470 c 0,47,48
 477 529 477 529 446.5 561.5 c 128,-1,49
 416 594 416 594 336 594 c 2,0,-1
EndSplineSet
EndChar

StartChar: four
Encoding: 52 52 23
Width: 592
GlyphClass: 2
Flags: W
LayerCount: 2
Fore
SplineSet
493 175 m 2,0,-1
 432 175 l 1,1,-1
 432 20 l 2,2,3
 432 -7 432 -7 411 -7 c 128,-1,4
 390 -7 390 -7 390 20 c 2,5,-1
 390 175 l 1,6,-1
 72 175 l 1,7,-1
 72 231 l 1,8,-1
 375 636 l 1,9,-1
 432 636 l 1,10,-1
 432 217 l 1,11,-1
 493 217 l 2,12,13
 520 217 520 217 520 196 c 128,-1,14
 520 175 520 175 493 175 c 2,0,-1
390 217 m 1,15,-1
 390 594 l 1,16,-1
 109 217 l 1,17,-1
 390 217 l 1,15,-1
EndSplineSet
EndChar

StartChar: five
Encoding: 53 53 24
Width: 592
GlyphClass: 2
Flags: W
LayerCount: 2
Fore
SplineSet
291 -9 m 0,0,1
 229 -9 229 -9 154 25.5 c 128,-1,2
 79 60 79 60 79 90 c 0,3,4
 79 98 79 98 85 104.5 c 128,-1,5
 91 111 91 111 98 111 c 0,6,7
 101 111 101 111 128.5 91.5 c 128,-1,8
 156 72 156 72 200.5 52.5 c 128,-1,9
 245 33 245 33 291 33 c 0,10,11
 376 33 376 33 423.5 84.5 c 128,-1,12
 471 136 471 136 471 227 c 0,13,14
 471 271 471 271 455 305 c 128,-1,15
 439 339 439 339 414.5 357 c 128,-1,16
 390 375 390 375 365 383.5 c 128,-1,17
 340 392 340 392 316 392 c 2,18,-1
 85 392 l 1,19,-1
 94 512 l 2,20,21
 99 582 99 582 123 609 c 128,-1,22
 147 636 147 636 203 636 c 2,23,-1
 444 636 l 2,24,25
 471 636 471 636 471 614 c 0,26,27
 471 594 471 594 444 594 c 2,28,-1
 197 594 l 2,29,30
 169 594 169 594 155 579 c 128,-1,31
 141 564 141 564 138 529 c 2,32,-1
 132 434 l 1,33,-1
 307 434 l 2,34,35
 387 434 387 434 450 377.5 c 128,-1,36
 513 321 513 321 513 227 c 0,37,38
 513 117 513 117 450.5 54 c 128,-1,39
 388 -9 388 -9 291 -9 c 0,0,1
EndSplineSet
EndChar

StartChar: six
Encoding: 54 54 25
Width: 592
GlyphClass: 2
Flags: W
LayerCount: 2
Fore
SplineSet
74 207 m 0,0,1
 74 296 74 296 95.5 373 c 128,-1,2
 117 450 117 450 147 497.5 c 128,-1,3
 177 545 177 545 211 580 c 128,-1,4
 245 615 245 615 269.5 629.5 c 128,-1,5
 294 644 294 644 304 644 c 0,6,7
 326 644 326 644 326 626 c 0,8,9
 326 613 326 613 308 603 c 0,10,11
 255 574 255 574 206.5 512 c 128,-1,12
 158 450 158 450 134 359 c 1,13,14
 198 423 198 423 296 423 c 0,15,16
 391 423 391 423 454.5 362 c 128,-1,17
 518 301 518 301 518 207 c 128,-1,18
 518 113 518 113 454.5 52 c 128,-1,19
 391 -9 391 -9 296 -9 c 128,-1,20
 201 -9 201 -9 137.5 52 c 128,-1,21
 74 113 74 113 74 207 c 0,0,1
116 207 m 128,-1,23
 116 129 116 129 164.5 81 c 128,-1,24
 213 33 213 33 296 33 c 128,-1,25
 379 33 379 33 427.5 81 c 128,-1,26
 476 129 476 129 476 207 c 128,-1,27
 476 285 476 285 427.5 333 c 128,-1,28
 379 381 379 381 296 381 c 128,-1,29
 213 381 213 381 164.5 333 c 128,-1,22
 116 285 116 285 116 207 c 128,-1,23
EndSplineSet
EndChar

StartChar: seven
Encoding: 55 55 26
Width: 592
GlyphClass: 2
Flags: W
LayerCount: 2
Fore
SplineSet
271 -10 m 0,0,1
 249 -10 249 -10 249 9 c 0,2,3
 249 17 249 17 253 28 c 2,4,-1
 459 594 l 1,5,-1
 186 594 l 2,6,7
 152 594 152 594 138.5 579 c 128,-1,8
 125 564 125 564 125 529 c 0,9,10
 125 499 125 499 104 499 c 128,-1,11
 83 499 83 499 83 529 c 0,12,13
 83 587 83 587 105 611.5 c 128,-1,14
 127 636 127 636 178 636 c 2,15,-1
 488 636 l 2,16,17
 509 636 509 636 509 618 c 0,18,19
 509 610 509 610 505 599 c 2,20,-1
 292 13 l 2,21,22
 284 -10 284 -10 271 -10 c 0,0,1
EndSplineSet
EndChar

StartChar: eight
Encoding: 56 56 27
Width: 592
GlyphClass: 2
Flags: W
LayerCount: 2
Fore
SplineSet
116 174 m 0,0,1
 116 138 116 138 123 113.5 c 128,-1,2
 130 89 130 89 141.5 75 c 128,-1,3
 153 61 153 61 175.5 53.5 c 128,-1,4
 198 46 198 46 221 44 c 128,-1,5
 244 42 244 42 282 42 c 2,6,-1
 311 42 l 2,7,8
 358 42 358 42 384.5 45.5 c 128,-1,9
 411 49 411 49 434.5 62 c 128,-1,10
 458 75 458 75 467 102 c 128,-1,11
 476 129 476 129 476 174 c 128,-1,12
 476 219 476 219 466.5 246 c 128,-1,13
 457 273 457 273 434 286.5 c 128,-1,14
 411 300 411 300 384.5 303.5 c 128,-1,15
 358 307 358 307 311 307 c 2,16,-1
 282 307 l 2,17,18
 234 307 234 307 207.5 303.5 c 128,-1,19
 181 300 181 300 158 286.5 c 128,-1,20
 135 273 135 273 125.5 246 c 128,-1,21
 116 219 116 219 116 174 c 0,0,1
518 174 m 0,22,23
 518 119 518 119 504 83.5 c 128,-1,24
 490 48 490 48 460.5 30 c 128,-1,25
 431 12 431 12 396.5 6 c 128,-1,26
 362 0 362 0 311 0 c 2,27,-1
 282 0 l 2,28,29
 176 0 176 0 125 34.5 c 128,-1,30
 74 69 74 69 74 174 c 0,31,32
 74 289 74 289 144 326 c 1,33,34
 74 358 74 358 74 472 c 0,35,36
 74 517 74 517 84.5 547.5 c 128,-1,37
 95 578 95 578 110.5 595.5 c 128,-1,38
 126 613 126 613 155.5 622 c 128,-1,39
 185 631 185 631 212 633.5 c 128,-1,40
 239 636 239 636 282 636 c 2,41,-1
 311 636 l 2,42,43
 354 636 354 636 381 633.5 c 128,-1,44
 408 631 408 631 437 622 c 128,-1,45
 466 613 466 613 481.5 595.5 c 128,-1,46
 497 578 497 578 507.5 547.5 c 128,-1,47
 518 517 518 517 518 472 c 0,48,49
 518 357 518 357 449 326 c 1,50,51
 518 290 518 290 518 174 c 0,22,23
476 472 m 0,52,53
 476 508 476 508 468.5 531.5 c 128,-1,54
 461 555 461 555 451 567.5 c 128,-1,55
 441 580 441 580 416 586 c 128,-1,56
 391 592 391 592 372 593 c 128,-1,57
 353 594 353 594 311 594 c 2,58,-1
 282 594 l 2,59,60
 240 594 240 594 221 593 c 128,-1,61
 202 592 202 592 176.5 586 c 128,-1,62
 151 580 151 580 141 567.5 c 128,-1,63
 131 555 131 555 123.5 531.5 c 128,-1,64
 116 508 116 508 116 472 c 0,65,66
 116 442 116 442 120 420.5 c 128,-1,67
 124 399 124 399 135 385.5 c 128,-1,68
 146 372 146 372 156.5 364.5 c 128,-1,69
 167 357 167 357 190 353.5 c 128,-1,70
 213 350 213 350 230 349.5 c 128,-1,71
 247 349 247 349 282 349 c 2,72,-1
 311 349 l 2,73,74
 346 349 346 349 362.5 349.5 c 128,-1,75
 379 350 379 350 402.5 353.5 c 128,-1,76
 426 357 426 357 436 364.5 c 128,-1,77
 446 372 446 372 457 385.5 c 128,-1,78
 468 399 468 399 472 420.5 c 128,-1,79
 476 442 476 442 476 472 c 0,52,53
EndSplineSet
EndChar

StartChar: nine
Encoding: 57 57 28
Width: 592
GlyphClass: 2
Flags: W
LayerCount: 2
Fore
SplineSet
74 471 m 0,0,1
 74 524 74 524 99.5 560 c 128,-1,2
 125 596 125 596 167 611 c 128,-1,3
 209 626 209 626 242 631 c 128,-1,4
 275 636 275 636 311 636 c 0,5,6
 518 636 518 636 518 470 c 0,7,8
 518 363 518 363 487.5 270 c 128,-1,9
 457 177 457 177 408 115.5 c 128,-1,10
 359 54 359 54 298 19 c 128,-1,11
 237 -16 237 -16 175 -16 c 0,12,13
 149 -16 149 -16 149 6 c 0,14,15
 149 27 149 27 175 27 c 0,16,17
 210 27 210 27 251.5 45.5 c 128,-1,18
 293 64 293 64 336 100.5 c 128,-1,19
 379 137 379 137 414 201 c 128,-1,20
 449 265 449 265 465 345 c 1,21,22
 415 307 415 307 311 307 c 0,23,24
 74 307 74 307 74 471 c 0,0,1
311 594 m 0,25,26
 116 594 116 594 116 471 c 0,27,28
 116 439 116 439 129 415.5 c 128,-1,29
 142 392 142 392 160.5 379.5 c 128,-1,30
 179 367 179 367 207.5 359.5 c 128,-1,31
 236 352 236 352 258.5 350.5 c 128,-1,32
 281 349 281 349 311 349 c 0,33,34
 476 349 476 349 476 470 c 0,35,36
 476 594 476 594 311 594 c 0,25,26
EndSplineSet
EndChar

StartChar: colon
Encoding: 58 58 29
Width: 238
GlyphClass: 2
Flags: W
LayerCount: 2
Fore
SplineSet
73 433 m 128,-1,1
 73 447 73 447 88 458 c 128,-1,2
 103 469 103 469 119 469 c 0,3,4
 134 469 134 469 149.5 458 c 128,-1,5
 165 447 165 447 165 433 c 128,-1,6
 165 419 165 419 149.5 408 c 128,-1,7
 134 397 134 397 119 397 c 0,8,9
 103 397 103 397 88 408 c 128,-1,0
 73 419 73 419 73 433 c 128,-1,1
73 80 m 128,-1,11
 73 94 73 94 88 105 c 128,-1,12
 103 116 103 116 119 116 c 0,13,14
 134 116 134 116 149.5 105 c 128,-1,15
 165 94 165 94 165 80 c 128,-1,16
 165 66 165 66 149.5 55 c 128,-1,17
 134 44 134 44 119 44 c 0,18,19
 103 44 103 44 88 55 c 128,-1,10
 73 66 73 66 73 80 c 128,-1,11
EndSplineSet
EndChar

StartChar: semicolon
Encoding: 59 59 30
Width: 241
GlyphClass: 2
Flags: W
LayerCount: 2
Fore
SplineSet
73 433 m 128,-1,1
 73 447 73 447 88 458 c 128,-1,2
 103 469 103 469 119 469 c 0,3,4
 134 469 134 469 149.5 458 c 128,-1,5
 165 447 165 447 165 433 c 128,-1,6
 165 419 165 419 149.5 408 c 128,-1,7
 134 397 134 397 119 397 c 0,8,9
 103 397 103 397 88 408 c 128,-1,0
 73 419 73 419 73 433 c 128,-1,1
127 112 m 0,10,11
 137 112 137 112 150 107 c 128,-1,12
 163 102 163 102 163 92 c 0,13,14
 163 83 163 83 159 75 c 2,15,-1
 117 -8 l 1,16,17
 108 -29 108 -29 97 -29 c 0,18,19
 80 -29 80 -29 80 -9 c 0,20,21
 80 -3 80 -3 83 6 c 2,22,-1
 107 92 l 2,23,24
 113 112 113 112 127 112 c 0,10,11
EndSplineSet
EndChar

StartChar: less
Encoding: 60 60 31
Width: 522
GlyphClass: 2
Flags: W
LayerCount: 2
Fore
SplineSet
450 116 m 0,0,1
 450 110 450 110 445.5 102 c 128,-1,2
 441 94 441 94 431 94 c 0,3,4
 424 94 424 94 412 100 c 2,5,-1
 49 310 l 1,6,7
 33 321 33 321 33 333 c 128,-1,8
 33 345 33 345 49 354 c 2,9,-1
 412 564 l 2,10,11
 421 569 421 569 430 569 c 0,12,13
 450 569 450 569 450 551 c 0,14,15
 450 539 450 539 434 527 c 1,16,-1
 95 333 l 1,17,-1
 433 137 l 2,18,19
 450 128 450 128 450 116 c 0,0,1
EndSplineSet
EndChar

StartChar: equal
Encoding: 61 61 32
Width: 458
GlyphClass: 2
Flags: W
LayerCount: 2
Fore
SplineSet
105 259 m 2,0,1
 79 259 79 259 79 281 c 0,2,3
 79 302 79 302 105 302 c 2,4,-1
 350 302 l 2,5,6
 379 302 379 302 379 279 c 0,7,8
 379 259 379 259 350 259 c 2,9,-1
 105 259 l 2,0,1
105 362 m 2,10,11
 79 362 79 362 79 384 c 0,12,13
 79 405 79 405 105 405 c 2,14,-1
 350 405 l 2,15,16
 379 405 379 405 379 382 c 0,17,18
 379 362 379 362 350 362 c 2,19,-1
 105 362 l 2,10,11
EndSplineSet
EndChar

StartChar: greater
Encoding: 62 62 33
Width: 522
GlyphClass: 2
Flags: W
LayerCount: 2
Fore
SplineSet
72 548 m 0,0,1
 72 554 72 554 76.5 561.5 c 128,-1,2
 81 569 81 569 91 569 c 0,3,4
 98 569 98 569 109 563 c 2,5,-1
 473 353 l 1,6,7
 489 342 489 342 489 331 c 0,8,9
 489 318 489 318 473 309 c 2,10,-1
 109 99 l 2,11,12
 102 94 102 94 92 94 c 0,13,14
 72 94 72 94 72 113 c 0,15,16
 72 126 72 126 88 136 c 2,17,-1
 427 331 l 1,18,-1
 89 526 l 2,19,20
 72 535 72 535 72 548 c 0,0,1
EndSplineSet
EndChar

StartChar: question
Encoding: 63 63 34
Width: 528
GlyphClass: 2
Flags: W
LayerCount: 2
Fore
SplineSet
201 29 m 128,-1,1
 201 43 201 43 216 54 c 128,-1,2
 231 65 231 65 247 65 c 0,3,4
 262 65 262 65 277.5 54 c 128,-1,5
 293 43 293 43 293 29 c 128,-1,6
 293 15 293 15 277.5 4 c 128,-1,7
 262 -7 262 -7 247 -7 c 0,8,9
 231 -7 231 -7 216 4 c 128,-1,0
 201 15 201 15 201 29 c 128,-1,1
268 303 m 1,10,-1
 268 194 l 2,11,12
 268 166 268 166 247 166 c 128,-1,13
 226 166 226 166 226 194 c 2,14,-1
 226 334 l 1,15,-1
 379 376 l 2,16,17
 407 384 407 384 425 413 c 128,-1,18
 443 442 443 442 443 484 c 0,19,20
 443 528 443 528 418.5 565 c 128,-1,21
 394 602 394 602 341 602 c 2,22,-1
 248 602 l 2,23,24
 200 602 200 602 173.5 598.5 c 128,-1,25
 147 595 147 595 123.5 582.5 c 128,-1,26
 100 570 100 570 91 543 c 128,-1,27
 82 516 82 516 82 471 c 0,28,29
 82 443 82 443 61 443 c 0,30,31
 39 443 39 443 39 471 c 0,32,33
 39 526 39 526 53 561.5 c 128,-1,34
 67 597 67 597 97.5 614.5 c 128,-1,35
 128 632 128 632 162 638 c 128,-1,36
 196 644 196 644 248 644 c 2,37,-1
 324 644 l 2,38,39
 410 644 410 644 447.5 597 c 128,-1,40
 485 550 485 550 485 484 c 128,-1,41
 485 418 485 418 457.5 383 c 128,-1,42
 430 348 430 348 362 329 c 2,43,-1
 268 303 l 1,10,-1
EndSplineSet
EndChar

StartChar: at
Encoding: 64 64 35
Width: 584
GlyphClass: 2
Flags: W
LayerCount: 2
Fore
SplineSet
420 0 m 2,0,-1
 279 0 l 2,1,2
 184 0 184 0 127.5 64 c 128,-1,3
 71 128 71 128 71 241 c 2,4,-1
 71 395 l 2,5,6
 71 508 71 508 127.5 572 c 128,-1,7
 184 636 184 636 279 636 c 2,8,-1
 308 636 l 2,9,10
 403 636 403 636 459.5 572 c 128,-1,11
 516 508 516 508 516 395 c 0,12,13
 516 364 516 364 515 344 c 128,-1,14
 514 324 514 324 509 300 c 128,-1,15
 504 276 504 276 495.5 261.5 c 128,-1,16
 487 247 487 247 471 231.5 c 128,-1,17
 455 216 455 216 432 208 c 128,-1,18
 409 200 409 200 375 195 c 128,-1,19
 341 190 341 190 297 190 c 0,20,21
 227 190 227 190 201.5 222.5 c 128,-1,22
 176 255 176 255 176 332 c 0,23,24
 176 408 176 408 201.5 440.5 c 128,-1,25
 227 473 227 473 297 473 c 0,26,27
 368 473 368 473 393.5 440.5 c 128,-1,28
 419 408 419 408 419 332 c 0,29,30
 419 275 419 275 406 243 c 1,31,32
 434 249 434 249 447 261 c 128,-1,33
 460 273 460 273 467 304 c 128,-1,34
 474 335 474 335 474 395 c 0,35,36
 474 489 474 489 432 541.5 c 128,-1,37
 390 594 390 594 308 594 c 2,38,-1
 279 594 l 2,39,40
 197 594 197 594 155 541.5 c 128,-1,41
 113 489 113 489 113 395 c 2,42,-1
 113 241 l 2,43,44
 113 147 113 147 155 94.5 c 128,-1,45
 197 42 197 42 279 42 c 2,46,-1
 413 42 l 2,47,48
 447 42 447 42 460.5 57 c 128,-1,49
 474 72 474 72 474 109 c 0,50,51
 474 137 474 137 494 137 c 0,52,53
 516 137 516 137 516 106 c 0,54,55
 516 84 516 84 513 68 c 128,-1,56
 510 52 510 52 501 35 c 128,-1,57
 492 18 492 18 471.5 9 c 128,-1,58
 451 0 451 0 420 0 c 2,0,-1
297 232 m 0,59,60
 349 232 349 232 363 252.5 c 128,-1,61
 377 273 377 273 377 332 c 0,62,63
 377 390 377 390 363 410.5 c 128,-1,64
 349 431 349 431 297 431 c 0,65,66
 246 431 246 431 232 410.5 c 128,-1,67
 218 390 218 390 218 332 c 0,68,69
 218 273 218 273 232 252.5 c 128,-1,70
 246 232 246 232 297 232 c 0,59,60
EndSplineSet
EndChar

StartChar: A
Encoding: 65 65 36
Width: 548
GlyphClass: 2
Flags: W
AnchorPoint: "Anchor-1" 274 0 basechar 0
AnchorPoint: "Anchor-0" 273 678 basechar 0
LayerCount: 2
Fore
SplineSet
44 -16 m 0,0,1
 23 -16 23 -16 23 4 c 0,2,3
 23 10 23 10 26 18 c 2,4,-1
 251 636 l 1,5,-1
 297 636 l 1,6,-1
 522 18 l 2,7,8
 525 10 525 10 525 4 c 0,9,10
 525 -16 525 -16 504 -16 c 0,11,12
 490 -16 490 -16 482 4 c 2,13,-1
 410 204 l 1,14,-1
 138 204 l 1,15,-1
 66 4 l 1,16,17
 57 -16 57 -16 44 -16 c 0,0,1
154 246 m 1,18,-1
 394 246 l 1,19,-1
 273 575 l 1,20,-1
 154 246 l 1,18,-1
EndSplineSet
EndChar

StartChar: B
Encoding: 66 66 37
Width: 584
GlyphClass: 2
Flags: W
AnchorPoint: "Anchor-1" 273 0 basechar 0
AnchorPoint: "Anchor-0" 273 678 basechar 0
LayerCount: 2
Fore
SplineSet
126 42 m 1,0,-1
 321 42 l 2,1,2
 368 42 368 42 394.5 45.5 c 128,-1,3
 421 49 421 49 444 62.5 c 128,-1,4
 467 76 467 76 476.5 103 c 128,-1,5
 486 130 486 130 486 175 c 2,6,-1
 486 204 l 2,7,8
 486 249 486 249 476.5 276 c 128,-1,9
 467 303 467 303 444 316.5 c 128,-1,10
 421 330 421 330 394.5 333.5 c 128,-1,11
 368 337 368 337 321 337 c 2,12,-1
 126 337 l 1,13,-1
 126 42 l 1,0,-1
84 31 m 2,14,-1
 84 605 l 2,15,16
 84 636 84 636 103 636 c 2,17,-1
 279 636 l 2,18,19
 382 636 382 636 434 604 c 128,-1,20
 486 572 486 572 486 486 c 0,21,22
 486 402 486 402 431 367 c 1,23,24
 480 352 480 352 504 314 c 128,-1,25
 528 276 528 276 528 204 c 2,26,-1
 528 175 l 2,27,28
 528 70 528 70 477 35 c 128,-1,29
 426 0 426 0 321 0 c 2,30,-1
 103 0 l 2,31,32
 84 0 84 0 84 31 c 2,14,-1
279 379 m 2,33,34
 369 379 369 379 406.5 400 c 128,-1,35
 444 421 444 421 444 486 c 0,36,37
 444 552 444 552 406.5 573 c 128,-1,38
 369 594 369 594 279 594 c 2,39,-1
 126 594 l 1,40,-1
 126 379 l 1,41,-1
 279 379 l 2,33,34
EndSplineSet
EndChar

StartChar: C
Encoding: 67 67 38
Width: 572
GlyphClass: 2
Flags: W
AnchorPoint: "Anchor-1" 312 0 basechar 0
AnchorPoint: "Anchor-0" 312 678 basechar 0
LayerCount: 2
Fore
SplineSet
421 0 m 2,0,-1
 280 0 l 2,1,2
 174 0 174 0 123 35 c 128,-1,3
 72 70 72 70 72 175 c 2,4,-1
 72 461 l 2,5,6
 72 566 72 566 123 601 c 128,-1,7
 174 636 174 636 280 636 c 2,8,-1
 421 636 l 2,9,10
 452 636 452 636 472.5 627 c 128,-1,11
 493 618 493 618 501.5 601 c 128,-1,12
 510 584 510 584 513 568 c 128,-1,13
 516 552 516 552 516 529 c 0,14,15
 516 499 516 499 495 499 c 128,-1,16
 474 499 474 499 474 527 c 0,17,18
 474 563 474 563 461 578.5 c 128,-1,19
 448 594 448 594 414 594 c 2,20,-1
 280 594 l 2,21,22
 232 594 232 594 205.5 590.5 c 128,-1,23
 179 587 179 587 156 573.5 c 128,-1,24
 133 560 133 560 123.5 533 c 128,-1,25
 114 506 114 506 114 461 c 2,26,-1
 114 175 l 2,27,28
 114 130 114 130 123.5 103 c 128,-1,29
 133 76 133 76 156 62.5 c 128,-1,30
 179 49 179 49 205.5 45.5 c 128,-1,31
 232 42 232 42 280 42 c 2,32,-1
 414 42 l 2,33,34
 448 42 448 42 461 57 c 128,-1,35
 474 72 474 72 474 109 c 0,36,37
 474 137 474 137 495 137 c 128,-1,38
 516 137 516 137 516 106 c 0,39,40
 516 84 516 84 513 68 c 128,-1,41
 510 52 510 52 501.5 35 c 128,-1,42
 493 18 493 18 472.5 9 c 128,-1,43
 452 0 452 0 421 0 c 2,0,-1
EndSplineSet
EndChar

StartChar: D
Encoding: 68 68 39
Width: 600
GlyphClass: 2
Flags: W
AnchorPoint: "Anchor-1" 290 0 basechar 0
AnchorPoint: "Anchor-0" 290 678 basechar 0
LayerCount: 2
Fore
SplineSet
528 461 m 2,0,-1
 528 175 l 2,1,2
 528 70 528 70 477 35 c 128,-1,3
 426 0 426 0 321 0 c 2,4,-1
 103 0 l 2,5,6
 84 0 84 0 84 31 c 2,7,-1
 84 605 l 2,8,9
 84 636 84 636 103 636 c 2,10,-1
 321 636 l 2,11,12
 426 636 426 636 477 601 c 128,-1,13
 528 566 528 566 528 461 c 2,0,-1
486 175 m 2,14,-1
 486 461 l 2,15,16
 486 506 486 506 476.5 533 c 128,-1,17
 467 560 467 560 444 573.5 c 128,-1,18
 421 587 421 587 394.5 590.5 c 128,-1,19
 368 594 368 594 321 594 c 2,20,-1
 126 594 l 1,21,-1
 126 42 l 1,22,-1
 321 42 l 2,23,24
 368 42 368 42 394.5 45.5 c 128,-1,25
 421 49 421 49 444 62.5 c 128,-1,26
 467 76 467 76 476.5 103 c 128,-1,27
 486 130 486 130 486 175 c 2,14,-1
EndSplineSet
EndChar

StartChar: E
Encoding: 69 69 40
Width: 577
GlyphClass: 2
Flags: W
AnchorPoint: "Anchor-1" 290 0 basechar 0
AnchorPoint: "Anchor-0" 290 678 basechar 0
LayerCount: 2
Fore
SplineSet
126 337 m 1,0,-1
 126 42 l 1,1,-1
 499 42 l 2,2,3
 528 42 528 42 528 19 c 0,4,5
 528 0 528 0 499 0 c 2,6,-1
 103 0 l 2,7,8
 84 0 84 0 84 31 c 2,9,-1
 84 605 l 2,10,11
 84 636 84 636 103 636 c 2,12,-1
 499 636 l 2,13,14
 528 636 528 636 528 613 c 0,15,16
 528 594 528 594 499 594 c 2,17,-1
 126 594 l 1,18,-1
 126 379 l 1,19,-1
 381 379 l 2,20,21
 411 379 411 379 411 356 c 0,22,23
 411 337 411 337 381 337 c 2,24,-1
 126 337 l 1,0,-1
EndSplineSet
EndChar

StartChar: F
Encoding: 70 70 41
Width: 558
GlyphClass: 2
Flags: W
AnchorPoint: "Anchor-1" 290 0 basechar 0
AnchorPoint: "Anchor-0" 290 678 basechar 0
LayerCount: 2
Fore
SplineSet
126 23 m 2,0,1
 126 -7 126 -7 105 -7 c 128,-1,2
 84 -7 84 -7 84 23 c 2,3,-1
 84 605 l 2,4,5
 84 636 84 636 103 636 c 2,6,-1
 499 636 l 2,7,8
 528 636 528 636 528 613 c 0,9,10
 528 594 528 594 499 594 c 2,11,-1
 126 594 l 1,12,-1
 126 379 l 1,13,-1
 381 379 l 2,14,15
 411 379 411 379 411 356 c 0,16,17
 411 337 411 337 381 337 c 2,18,-1
 126 337 l 1,19,-1
 126 23 l 2,0,1
EndSplineSet
EndChar

StartChar: G
Encoding: 71 71 42
Width: 585
GlyphClass: 2
Flags: W
AnchorPoint: "Anchor-1" 312 0 basechar 0
AnchorPoint: "Anchor-0" 312 678 basechar 0
LayerCount: 2
Fore
SplineSet
474 251 m 1,0,-1
 341 251 l 2,1,2
 311 251 311 251 311 271 c 0,3,4
 311 293 311 293 341 293 c 2,5,-1
 516 293 l 1,6,-1
 516 106 l 2,7,8
 516 84 516 84 513 68 c 128,-1,9
 510 52 510 52 501.5 35 c 128,-1,10
 493 18 493 18 472.5 9 c 128,-1,11
 452 0 452 0 421 0 c 2,12,-1
 280 0 l 2,13,14
 228 0 228 0 194 6 c 128,-1,15
 160 12 160 12 130 30 c 128,-1,16
 100 48 100 48 86 84 c 128,-1,17
 72 120 72 120 72 175 c 2,18,-1
 72 461 l 2,19,20
 72 516 72 516 86 552 c 128,-1,21
 100 588 100 588 130 606 c 128,-1,22
 160 624 160 624 194 630 c 128,-1,23
 228 636 228 636 280 636 c 2,24,-1
 421 636 l 2,25,26
 452 636 452 636 472.5 627 c 128,-1,27
 493 618 493 618 501.5 601 c 128,-1,28
 510 584 510 584 513 568 c 128,-1,29
 516 552 516 552 516 530 c 0,30,31
 516 499 516 499 495 499 c 128,-1,32
 474 499 474 499 474 528 c 0,33,34
 474 564 474 564 461 579 c 128,-1,35
 448 594 448 594 414 594 c 2,36,-1
 280 594 l 2,37,38
 232 594 232 594 205.5 590.5 c 128,-1,39
 179 587 179 587 156 573.5 c 128,-1,40
 133 560 133 560 123.5 533 c 128,-1,41
 114 506 114 506 114 461 c 2,42,-1
 114 175 l 2,43,44
 114 130 114 130 123.5 103 c 128,-1,45
 133 76 133 76 156 62.5 c 128,-1,46
 179 49 179 49 205.5 45.5 c 128,-1,47
 232 42 232 42 280 42 c 2,48,-1
 414 42 l 2,49,50
 448 42 448 42 461 57 c 128,-1,51
 474 72 474 72 474 108 c 2,52,-1
 474 251 l 1,0,-1
EndSplineSet
EndChar

StartChar: H
Encoding: 72 72 43
Width: 612
GlyphClass: 2
Flags: W
AnchorPoint: "Anchor-1" 301 0 basechar 0
AnchorPoint: "Anchor-0" 301 678 basechar 0
LayerCount: 2
Fore
SplineSet
126 23 m 2,0,1
 126 -7 126 -7 105 -7 c 128,-1,2
 84 -7 84 -7 84 23 c 2,3,-1
 84 612 l 2,4,5
 84 643 84 643 103 643 c 0,6,7
 126 643 126 643 126 612 c 2,8,-1
 126 364 l 1,9,-1
 486 364 l 1,10,-1
 486 612 l 2,11,12
 486 643 486 643 506 643 c 0,13,14
 528 643 528 643 528 612 c 2,15,-1
 528 23 l 2,16,17
 528 -7 528 -7 508 -7 c 0,18,19
 486 -7 486 -7 486 23 c 2,20,-1
 486 322 l 1,21,-1
 126 322 l 1,22,-1
 126 23 l 2,0,1
EndSplineSet
EndChar

StartChar: I
Encoding: 73 73 44
Width: 210
GlyphClass: 2
Flags: W
AnchorPoint: "Anchor-1" 105 0 basechar 0
AnchorPoint: "Anchor-0" 105 678 basechar 0
LayerCount: 2
Fore
SplineSet
126 20 m 2,0,1
 126 -7 126 -7 104 -7 c 0,2,3
 84 -7 84 -7 84 20 c 2,4,-1
 84 615 l 2,5,6
 84 643 84 643 105 643 c 128,-1,7
 126 643 126 643 126 615 c 2,8,-1
 126 20 l 2,0,1
EndSplineSet
EndChar

StartChar: J
Encoding: 74 74 45
Width: 530
GlyphClass: 2
Flags: W
AnchorPoint: "Anchor-1" 241 0 basechar 0
AnchorPoint: "Anchor-0" 429 678 basechar 0
LayerCount: 2
Fore
SplineSet
241 34 m 0,0,1
 289 34 289 34 315.5 37.5 c 128,-1,2
 342 41 342 41 365 54.5 c 128,-1,3
 388 68 388 68 397.5 95 c 128,-1,4
 407 122 407 122 407 167 c 2,5,-1
 407 615 l 2,6,7
 407 643 407 643 428 643 c 128,-1,8
 449 643 449 643 449 615 c 2,9,-1
 449 167 l 2,10,11
 449 112 449 112 435 76 c 128,-1,12
 421 40 421 40 391 22 c 128,-1,13
 361 4 361 4 327 -2 c 128,-1,14
 293 -8 293 -8 241 -8 c 128,-1,15
 189 -8 189 -8 154.5 -2 c 128,-1,16
 120 4 120 4 90 22 c 128,-1,17
 60 40 60 40 46 76 c 128,-1,18
 32 112 32 112 32 167 c 0,19,20
 32 195 32 195 55 195 c 0,21,22
 75 195 75 195 75 167 c 0,23,24
 75 81 75 81 111 57.5 c 128,-1,25
 147 34 147 34 241 34 c 0,0,1
EndSplineSet
EndChar

StartChar: K
Encoding: 75 75 46
Width: 497
GlyphClass: 2
Flags: W
AnchorPoint: "Anchor-1" 274 0 basechar 0
AnchorPoint: "Anchor-0" 259 678 basechar 0
LayerCount: 2
Fore
SplineSet
494 13 m 0,0,1
 494 5 494 5 487 -1 c 128,-1,2
 480 -7 480 -7 473 -7 c 0,3,4
 462 -7 462 -7 452 6 c 2,5,-1
 184 325 l 1,6,-1
 126 255 l 1,7,-1
 126 20 l 2,8,9
 126 -7 126 -7 104 -7 c 0,10,11
 84 -7 84 -7 84 20 c 2,12,-1
 84 615 l 2,13,14
 84 643 84 643 105 643 c 128,-1,15
 126 643 126 643 126 615 c 2,16,-1
 126 321 l 1,17,-1
 386 630 l 2,18,19
 396 643 396 643 407 643 c 0,20,21
 414 643 414 643 420.5 637.5 c 128,-1,22
 427 632 427 632 427 624 c 0,23,24
 427 614 427 614 418 603 c 2,25,-1
 212 357 l 1,26,-1
 484 33 l 1,27,28
 494 23 494 23 494 13 c 0,0,1
EndSplineSet
EndChar

StartChar: L
Encoding: 76 76 47
Width: 495
GlyphClass: 2
Flags: W
AnchorPoint: "Anchor-1" 274 0 basechar 0
AnchorPoint: "Anchor-0" 106 678 basechar 0
LayerCount: 2
Fore
SplineSet
103 0 m 2,0,1
 84 0 84 0 84 31 c 2,2,-1
 84 615 l 2,3,4
 84 643 84 643 105 643 c 128,-1,5
 126 643 126 643 126 615 c 2,6,-1
 126 42 l 1,7,-1
 444 42 l 2,8,9
 472 42 472 42 472 20 c 0,10,11
 472 0 472 0 444 0 c 2,12,-1
 103 0 l 2,0,1
EndSplineSet
EndChar

StartChar: M
Encoding: 77 77 48
Width: 633
GlyphClass: 2
Flags: W
AnchorPoint: "Anchor-1" 316 0 basechar 0
AnchorPoint: "Anchor-0" 316 678 basechar 0
LayerCount: 2
Fore
SplineSet
316 279 m 0,0,1
 309 279 309 279 304 285 c 2,2,-1
 126 557 l 1,3,-1
 126 23 l 2,4,5
 126 -7 126 -7 105 -7 c 128,-1,6
 84 -7 84 -7 84 23 c 2,7,-1
 84 612 l 2,8,9
 84 643 84 643 103 643 c 0,10,11
 118 643 118 643 129 626 c 2,12,-1
 316 342 l 1,13,-1
 504 626 l 2,14,15
 515 643 515 643 529 643 c 0,16,17
 549 643 549 643 549 612 c 2,18,-1
 549 23 l 2,19,20
 549 -7 549 -7 527 -7 c 0,21,22
 507 -7 507 -7 507 23 c 2,23,-1
 507 557 l 1,24,-1
 329 285 l 2,25,26
 324 279 324 279 316 279 c 0,0,1
EndSplineSet
EndChar

StartChar: N
Encoding: 78 78 49
Width: 612
GlyphClass: 2
Flags: W
AnchorPoint: "Anchor-1" 310 0 basechar 0
AnchorPoint: "Anchor-0" 310 678 basechar 0
LayerCount: 2
Fore
SplineSet
508 -7 m 0,0,1
 496 -7 496 -7 492 0 c 2,2,-1
 126 557 l 1,3,-1
 126 23 l 2,4,5
 126 -7 126 -7 105 -7 c 128,-1,6
 84 -7 84 -7 84 23 c 2,7,-1
 84 612 l 2,8,9
 84 643 84 643 103 643 c 0,10,11
 118 643 118 643 129 626 c 2,12,-1
 486 84 l 1,13,-1
 486 612 l 2,14,15
 486 643 486 643 506 643 c 0,16,17
 528 643 528 643 528 612 c 2,18,-1
 528 23 l 2,19,20
 528 -7 528 -7 508 -7 c 0,0,1
EndSplineSet
EndChar

StartChar: O
Encoding: 79 79 50
Width: 574
GlyphClass: 2
Flags: W
AnchorPoint: "Anchor-1" 287 0 basechar 0
AnchorPoint: "Anchor-0" 287 678 basechar 0
LayerCount: 2
Fore
SplineSet
287 -9 m 128,-1,1
 190 -9 190 -9 127.5 54 c 128,-1,2
 65 117 65 117 65 227 c 2,3,-1
 65 409 l 2,4,5
 65 519 65 519 127.5 582 c 128,-1,6
 190 645 190 645 287 645 c 128,-1,7
 384 645 384 645 446.5 582 c 128,-1,8
 509 519 509 519 509 409 c 2,9,-1
 509 227 l 2,10,11
 509 117 509 117 446.5 54 c 128,-1,0
 384 -9 384 -9 287 -9 c 128,-1,1
287 603 m 128,-1,13
 203 603 203 603 155 551.5 c 128,-1,14
 107 500 107 500 107 409 c 2,15,-1
 107 227 l 2,16,17
 107 136 107 136 155 84.5 c 128,-1,18
 203 33 203 33 287 33 c 128,-1,19
 371 33 371 33 419 84.5 c 128,-1,20
 467 136 467 136 467 227 c 2,21,-1
 467 409 l 2,22,23
 467 500 467 500 419 551.5 c 128,-1,12
 371 603 371 603 287 603 c 128,-1,13
EndSplineSet
EndChar

StartChar: P
Encoding: 80 80 51
Width: 520
GlyphClass: 2
Flags: W
AnchorPoint: "Anchor-1" 261 0 basechar 0
AnchorPoint: "Anchor-0" 261 678 basechar 0
LayerCount: 2
Fore
SplineSet
126 20 m 2,0,1
 126 -7 126 -7 104 -7 c 0,2,3
 84 -7 84 -7 84 20 c 2,4,-1
 84 605 l 2,5,6
 84 636 84 636 103 636 c 2,7,-1
 279 636 l 2,8,9
 382 636 382 636 434 604 c 128,-1,10
 486 572 486 572 486 486 c 0,11,12
 486 413 486 413 442.5 375 c 128,-1,13
 399 337 399 337 321 337 c 2,14,-1
 126 337 l 1,15,-1
 126 20 l 2,0,1
279 379 m 2,16,17
 369 379 369 379 406.5 400 c 128,-1,18
 444 421 444 421 444 486 c 0,19,20
 444 552 444 552 406.5 573 c 128,-1,21
 369 594 369 594 279 594 c 2,22,-1
 126 594 l 1,23,-1
 126 379 l 1,24,-1
 279 379 l 2,16,17
EndSplineSet
EndChar

StartChar: Q
Encoding: 81 81 52
Width: 574
GlyphClass: 2
Flags: W
AnchorPoint: "Anchor-1" 287 0 basechar 0
AnchorPoint: "Anchor-0" 287 678 basechar 0
LayerCount: 2
Fore
SplineSet
287 603 m 128,-1,1
 203 603 203 603 155 551.5 c 128,-1,2
 107 500 107 500 107 409 c 2,3,-1
 107 227 l 2,4,5
 107 136 107 136 155 84.5 c 128,-1,6
 203 33 203 33 287 33 c 0,7,8
 356 33 356 33 399 67 c 1,9,-1
 341 124 l 2,10,11
 330 135 330 135 330 144 c 0,12,13
 330 151 330 151 336 158 c 128,-1,14
 342 165 342 165 350 165 c 0,15,16
 360 165 360 165 371 154 c 2,17,-1
 429 95 l 1,18,19
 467 145 467 145 467 227 c 2,20,-1
 467 409 l 2,21,22
 467 500 467 500 419 551.5 c 128,-1,0
 371 603 371 603 287 603 c 128,-1,1
287 -9 m 0,23,24
 190 -9 190 -9 127.5 54 c 128,-1,25
 65 117 65 117 65 227 c 2,26,-1
 65 409 l 2,27,28
 65 519 65 519 127.5 582 c 128,-1,29
 190 645 190 645 287 645 c 128,-1,30
 384 645 384 645 446.5 582 c 128,-1,31
 509 519 509 519 509 409 c 2,32,-1
 509 227 l 2,33,34
 509 128 509 128 458 67 c 1,35,-1
 496 29 l 2,36,37
 506 19 506 19 506 8 c 0,38,39
 506 1 506 1 500.5 -5.5 c 128,-1,40
 495 -12 495 -12 487 -12 c 128,-1,41
 479 -12 479 -12 466 -1 c 1,42,-1
 429 37 l 1,43,44
 369 -9 369 -9 287 -9 c 0,23,24
EndSplineSet
EndChar

StartChar: R
Encoding: 82 82 53
Width: 549
GlyphClass: 2
Flags: W
AnchorPoint: "Anchor-1" 291 0 basechar 0
AnchorPoint: "Anchor-0" 261 678 basechar 0
LayerCount: 2
Fore
SplineSet
279 379 m 2,0,1
 369 379 369 379 406.5 400 c 128,-1,2
 444 421 444 421 444 486 c 0,3,4
 444 552 444 552 406.5 573 c 128,-1,5
 369 594 369 594 279 594 c 2,6,-1
 126 594 l 1,7,-1
 126 379 l 1,8,-1
 279 379 l 2,0,1
126 20 m 2,9,10
 126 -7 126 -7 104 -7 c 0,11,12
 84 -7 84 -7 84 20 c 2,13,-1
 84 605 l 2,14,15
 84 636 84 636 103 636 c 2,16,-1
 279 636 l 2,17,18
 382 636 382 636 434 604 c 128,-1,19
 486 572 486 572 486 486 c 0,20,21
 486 423 486 423 454 386 c 128,-1,22
 422 349 422 349 363 340 c 1,23,24
 396 314 396 314 428.5 235.5 c 128,-1,25
 461 157 461 157 477.5 94.5 c 128,-1,26
 494 32 494 32 494 20 c 0,27,28
 494 -7 494 -7 472 -7 c 0,29,30
 463 -7 463 -7 457.5 1 c 128,-1,31
 452 9 452 9 452 20 c 0,32,33
 452 34 452 34 438 91 c 128,-1,34
 424 148 424 148 390 226 c 128,-1,35
 356 304 356 304 314 337 c 1,36,-1
 126 337 l 1,37,-1
 126 20 l 2,9,10
EndSplineSet
EndChar

StartChar: S
Encoding: 83 83 54
Width: 570
GlyphClass: 2
Flags: W
AnchorPoint: "Anchor-1" 306 0 basechar 0
AnchorPoint: "Anchor-0" 306 678 basechar 0
LayerCount: 2
Fore
SplineSet
104 484 m 0,0,1
 104 442 104 442 122.5 412.5 c 128,-1,2
 141 383 141 383 168 376 c 2,3,-1
 385 324 l 1,4,5
 508 293 508 293 508 154 c 0,6,7
 508 88 508 88 470.5 40 c 128,-1,8
 433 -8 433 -8 347 -8 c 2,9,-1
 271 -8 l 2,10,11
 219 -8 219 -8 184.5 -2 c 128,-1,12
 150 4 150 4 120 22 c 128,-1,13
 90 40 90 40 76 76 c 128,-1,14
 62 112 62 112 62 167 c 0,15,16
 62 195 62 195 85 195 c 0,17,18
 105 195 105 195 105 167 c 0,19,20
 105 81 105 81 141 57.5 c 128,-1,21
 177 34 177 34 271 34 c 2,22,-1
 364 34 l 2,23,24
 417 34 417 34 441.5 72 c 128,-1,25
 466 110 466 110 466 154 c 0,26,27
 466 205 466 205 445.5 238 c 128,-1,28
 425 271 425 271 402 276 c 2,29,-1
 186 329 l 2,30,31
 118 345 118 345 90 381 c 128,-1,32
 62 417 62 417 62 484 c 0,33,34
 62 550 62 550 100 597 c 128,-1,35
 138 644 138 644 224 644 c 2,36,-1
 300 644 l 2,37,38
 352 644 352 644 386 638 c 128,-1,39
 420 632 420 632 450 614.5 c 128,-1,40
 480 597 480 597 494 561.5 c 128,-1,41
 508 526 508 526 508 471 c 0,42,43
 508 443 508 443 486 443 c 0,44,45
 465 443 465 443 465 471 c 0,46,47
 465 516 465 516 456 543 c 128,-1,48
 447 570 447 570 423.5 582.5 c 128,-1,49
 400 595 400 595 374 598.5 c 128,-1,50
 348 602 348 602 300 602 c 2,51,-1
 206 602 l 2,52,53
 153 602 153 602 128.5 564.5 c 128,-1,54
 104 527 104 527 104 484 c 0,0,1
EndSplineSet
EndChar

StartChar: T
Encoding: 84 84 55
Width: 460
GlyphClass: 2
Flags: W
AnchorPoint: "Anchor-1" 230 0 basechar 0
AnchorPoint: "Anchor-0" 230 678 basechar 0
LayerCount: 2
Fore
SplineSet
405 636 m 2,0,1
 433 636 433 636 433 614 c 0,2,3
 433 594 433 594 405 594 c 2,4,-1
 251 594 l 1,5,-1
 251 20 l 2,6,7
 251 -7 251 -7 229 -7 c 0,8,9
 209 -7 209 -7 209 20 c 2,10,-1
 209 594 l 1,11,-1
 54 594 l 2,12,13
 26 594 26 594 26 615 c 128,-1,14
 26 636 26 636 54 636 c 2,15,-1
 405 636 l 2,0,1
EndSplineSet
EndChar

StartChar: U
Encoding: 85 85 56
Width: 598
GlyphClass: 2
Flags: W
AnchorPoint: "Anchor-1" 299 0 basechar 0
AnchorPoint: "Anchor-0" 299 678 basechar 0
LayerCount: 2
Fore
SplineSet
479 615 m 2,0,1
 479 643 479 643 501 643 c 0,2,3
 521 643 521 643 521 615 c 2,4,-1
 521 227 l 2,5,6
 521 117 521 117 458.5 54 c 128,-1,7
 396 -9 396 -9 299 -9 c 128,-1,8
 202 -9 202 -9 139.5 54 c 128,-1,9
 77 117 77 117 77 227 c 2,10,-1
 77 615 l 2,11,12
 77 643 77 643 98 643 c 128,-1,13
 119 643 119 643 119 615 c 2,14,-1
 119 227 l 2,15,16
 119 136 119 136 167 84.5 c 128,-1,17
 215 33 215 33 299 33 c 128,-1,18
 383 33 383 33 431 84.5 c 128,-1,19
 479 136 479 136 479 227 c 2,20,-1
 479 615 l 2,0,1
EndSplineSet
EndChar

StartChar: V
Encoding: 86 86 57
Width: 548
GlyphClass: 2
Flags: W
AnchorPoint: "Anchor-1" 274 0 basechar 0
AnchorPoint: "Anchor-0" 273 678 basechar 0
LayerCount: 2
Fore
SplineSet
23 632 m 0,0,1
 23 639 23 639 27.5 644 c 128,-1,2
 32 649 32 649 36.5 650.5 c 128,-1,3
 41 652 41 652 44 652 c 0,4,5
 57 652 57 652 66 632 c 1,6,-1
 274 60 l 1,7,-1
 482 632 l 2,8,9
 490 652 490 652 504 652 c 0,10,11
 507 652 507 652 511.5 650.5 c 128,-1,12
 516 649 516 649 520.5 644 c 128,-1,13
 525 639 525 639 525 632 c 0,14,15
 525 626 525 626 522 617 c 2,16,-1
 297 0 l 1,17,-1
 251 0 l 1,18,-1
 26 617 l 2,19,20
 23 626 23 626 23 632 c 0,0,1
EndSplineSet
EndChar

StartChar: W
Encoding: 87 87 58
Width: 892
GlyphClass: 2
Flags: W
AnchorPoint: "Anchor-1" 446 0 basechar 0
AnchorPoint: "Anchor-0" 445 678 basechar 0
LayerCount: 2
Fore
SplineSet
444 652 m 0,0,1
 462 652 462 652 469 630 c 2,2,-1
 646 60 l 1,3,-1
 822 632 l 1,4,5
 830 652 830 652 842 652 c 0,6,7
 845 652 845 652 850 650.5 c 128,-1,8
 855 649 855 649 860 644 c 128,-1,9
 865 639 865 639 865 632 c 0,10,11
 865 626 865 626 862 617 c 2,12,-1
 670 0 l 1,13,-1
 620 0 l 1,14,-1
 444 565 l 1,15,-1
 269 0 l 1,16,-1
 220 0 l 1,17,-1
 32 617 l 2,18,19
 31 620 31 620 27.5 625 c 128,-1,20
 24 630 24 630 24 632 c 0,21,22
 24 639 24 639 29.5 644 c 128,-1,23
 35 649 35 649 40 650.5 c 128,-1,24
 45 652 45 652 48 652 c 0,25,26
 61 652 61 652 67 632 c 2,27,-1
 245 60 l 1,28,-1
 421 630 l 2,29,30
 428 652 428 652 444 652 c 0,0,1
EndSplineSet
EndChar

StartChar: X
Encoding: 88 88 59
Width: 537
GlyphClass: 2
Flags: W
AnchorPoint: "Anchor-1" 268 0 basechar 0
AnchorPoint: "Anchor-0" 267 678 basechar 0
LayerCount: 2
Fore
SplineSet
481 643 m 0,0,1
 488 643 488 643 495 637 c 128,-1,2
 502 631 502 631 502 623 c 0,3,4
 502 612 502 612 495 604 c 1,5,-1
 294 317 l 1,6,-1
 495 32 l 2,7,8
 502 21 502 21 502 12 c 0,9,10
 502 4 502 4 495.5 -1.5 c 128,-1,11
 489 -7 489 -7 481 -7 c 0,12,13
 471 -7 471 -7 460 7 c 2,14,-1
 268 281 l 1,15,-1
 77 7 l 1,16,17
 66 -7 66 -7 55 -7 c 0,18,19
 48 -7 48 -7 41.5 -1.5 c 128,-1,20
 35 4 35 4 35 12 c 0,21,22
 35 21 35 21 42 32 c 2,23,-1
 243 317 l 1,24,-1
 42 604 l 1,25,26
 35 612 35 612 35 623 c 0,27,28
 35 631 35 631 41.5 637 c 128,-1,29
 48 643 48 643 55 643 c 0,30,31
 66 643 66 643 77 627 c 2,32,-1
 268 354 l 1,33,-1
 460 627 l 2,34,35
 471 643 471 643 481 643 c 0,0,1
EndSplineSet
EndChar

StartChar: Y
Encoding: 89 89 60
Width: 499
GlyphClass: 2
Flags: W
AnchorPoint: "Anchor-1" 249 0 basechar 0
AnchorPoint: "Anchor-0" 248 678 basechar 0
LayerCount: 2
Fore
SplineSet
229 310 m 1,0,-1
 23 604 l 2,1,2
 16 614 16 614 16 623 c 0,3,4
 16 631 16 631 22.5 637 c 128,-1,5
 29 643 29 643 36 643 c 0,6,7
 46 643 46 643 57 627 c 2,8,-1
 249 354 l 1,9,-1
 440 627 l 1,10,11
 453 643 453 643 462 643 c 0,12,13
 469 643 469 643 475.5 637 c 128,-1,14
 482 631 482 631 482 623 c 0,15,16
 482 614 482 614 475 604 c 2,17,-1
 270 310 l 1,18,-1
 270 20 l 2,19,20
 270 -7 270 -7 249 -7 c 0,21,22
 229 -7 229 -7 229 20 c 2,23,-1
 229 310 l 1,0,-1
EndSplineSet
EndChar

StartChar: Z
Encoding: 90 90 61
Width: 535
GlyphClass: 2
Flags: W
AnchorPoint: "Anchor-1" 268 0 basechar 0
AnchorPoint: "Anchor-0" 267 678 basechar 0
LayerCount: 2
Fore
SplineSet
46 0 m 1,0,-1
 46 44 l 1,1,-1
 442 594 l 1,2,-1
 76 594 l 2,3,4
 45 594 45 594 45 615 c 128,-1,5
 45 636 45 636 76 636 c 2,6,-1
 489 636 l 1,7,-1
 489 590 l 1,8,-1
 95 42 l 1,9,-1
 459 42 l 2,10,11
 489 42 489 42 489 20 c 0,12,13
 489 0 489 0 459 0 c 2,14,-1
 46 0 l 1,0,-1
EndSplineSet
EndChar

StartChar: bracketleft
Encoding: 91 91 62
Width: 244
GlyphClass: 2
Flags: W
LayerCount: 2
Fore
SplineSet
200 636 m 1,0,-1
 122 636 l 1,1,-1
 122 0 l 1,2,-1
 200 0 l 1,3,-1
 200 -42 l 1,4,-1
 80 -42 l 1,5,-1
 80 678 l 1,6,-1
 200 678 l 1,7,-1
 200 636 l 1,0,-1
EndSplineSet
EndChar

StartChar: backslash
Encoding: 92 92 63
Width: 349
GlyphClass: 2
Flags: W
LayerCount: 2
Fore
SplineSet
64 645 m 0,0,1
 79 645 79 645 85 625 c 1,2,-1
 303 27 l 2,3,4
 306 16 306 16 306 11 c 0,5,6
 306 -8 306 -8 284 -8 c 0,7,8
 270 -8 270 -8 264 12 c 1,9,-1
 46 610 l 2,10,11
 43 619 43 619 43 626 c 0,12,13
 43 645 43 645 64 645 c 0,0,1
EndSplineSet
EndChar

StartChar: bracketright
Encoding: 93 93 64
Width: 244
GlyphClass: 2
Flags: W
LayerCount: 2
Fore
SplineSet
44 0 m 1,0,-1
 122 0 l 1,1,-1
 122 636 l 1,2,-1
 44 636 l 1,3,-1
 44 678 l 1,4,-1
 164 678 l 1,5,-1
 164 -42 l 1,6,-1
 44 -42 l 1,7,-1
 44 0 l 1,0,-1
EndSplineSet
EndChar

StartChar: asciicircum
Encoding: 94 94 65
Width: 443
GlyphClass: 2
Flags: W
LayerCount: 2
Fore
SplineSet
223 590 m 1,0,-1
 220 590 l 1,1,-1
 127 383 l 2,2,3
 118 365 118 365 103 365 c 0,4,5
 85 365 85 365 85 383 c 0,6,7
 85 385 85 385 87 393 c 1,8,-1
 195 636 l 1,9,-1
 249 636 l 1,10,-1
 356 393 l 2,11,12
 358 389 358 389 358 383 c 0,13,14
 358 365 358 365 340 365 c 0,15,16
 325 365 325 365 316 383 c 2,17,-1
 223 590 l 1,0,-1
EndSplineSet
EndChar

StartChar: underscore
Encoding: 95 95 66
Width: 475
GlyphClass: 2
Flags: W
LayerCount: 2
Fore
SplineSet
28 -42 m 2,0,1
 0 -42 0 -42 0 -20 c 0,2,3
 0 0 0 0 28 0 c 2,4,-1
 447 0 l 2,5,6
 475 0 475 0 475 -22 c 0,7,8
 475 -42 475 -42 447 -42 c 2,9,-1
 28 -42 l 2,0,1
EndSplineSet
EndChar

StartChar: grave
Encoding: 96 96 67
Width: 212
GlyphClass: 2
Flags: W
LayerCount: 2
Fore
SplineSet
34 657 m 0,0,1
 34 666 34 666 40.5 672 c 128,-1,2
 47 678 47 678 54 678 c 0,3,4
 63 678 63 678 75 665 c 2,5,-1
 171 550 l 2,6,7
 179 541 179 541 179 530 c 0,8,9
 179 522 179 522 172.5 516 c 128,-1,10
 166 510 166 510 159 510 c 0,11,12
 150 510 150 510 138 523 c 2,13,-1
 42 638 l 2,14,15
 34 647 34 647 34 657 c 0,0,1
EndSplineSet
EndChar

StartChar: a
Encoding: 97 97 68
Width: 534
GlyphClass: 2
Flags: W
AnchorPoint: "Anchor-1" 254 0 basechar 0
AnchorPoint: "Anchor-0" 263 510 basechar 0
LayerCount: 2
Fore
SplineSet
268 248 m 2,0,1
 220 248 220 248 193.5 244.5 c 128,-1,2
 167 241 167 241 144 227.5 c 128,-1,3
 121 214 121 214 111.5 187 c 128,-1,4
 102 160 102 160 102 115 c 0,5,6
 102 87 102 87 120.5 64.5 c 128,-1,7
 139 42 139 42 162 42 c 2,8,-1
 255 42 l 2,9,10
 334 42 334 42 377 90 c 128,-1,11
 420 138 420 138 420 228 c 2,12,-1
 420 248 l 1,13,-1
 268 248 l 2,0,1
268 290 m 2,14,-1
 420 290 l 1,15,-1
 420 354 l 2,16,17
 420 389 420 389 407 404 c 128,-1,18
 394 419 394 419 360 419 c 2,19,-1
 219 419 l 2,20,21
 102 419 102 419 102 354 c 0,22,23
 102 324 102 324 80 324 c 0,24,25
 60 324 60 324 60 354 c 0,26,27
 60 408 60 408 102.5 434.5 c 128,-1,28
 145 461 145 461 212 461 c 2,29,-1
 367 461 l 2,30,31
 422 461 422 461 442 434 c 128,-1,32
 462 407 462 407 462 337 c 2,33,-1
 462 23 l 2,34,35
 462 -7 462 -7 441 -7 c 128,-1,36
 420 -7 420 -7 420 23 c 2,37,-1
 420 72 l 1,38,39
 366 0 366 0 255 0 c 2,40,-1
 162 0 l 2,41,42
 117 0 117 0 88.5 32.5 c 128,-1,43
 60 65 60 65 60 120 c 0,44,45
 60 162 60 162 70 193 c 128,-1,46
 80 224 80 224 97 242.5 c 128,-1,47
 114 261 114 261 141 271.5 c 128,-1,48
 168 282 168 282 198 286 c 128,-1,49
 228 290 228 290 268 290 c 2,14,-1
EndSplineSet
EndChar

StartChar: b
Encoding: 98 98 69
Width: 580
GlyphClass: 2
Flags: W
AnchorPoint: "Anchor-1" 297 0 basechar 0
AnchorPoint: "Anchor-0" 306 510 basechar 0
LayerCount: 2
Fore
SplineSet
116 389 m 1,0,1
 172 461 172 461 282 461 c 2,2,-1
 311 461 l 2,3,4
 416 461 416 461 467 426 c 128,-1,5
 518 391 518 391 518 286 c 2,6,-1
 518 175 l 2,7,8
 518 70 518 70 467 35 c 128,-1,9
 416 0 416 0 311 0 c 2,10,-1
 282 0 l 2,11,12
 172 0 172 0 116 72 c 1,13,-1
 116 23 l 2,14,15
 116 -7 116 -7 95 -7 c 128,-1,16
 74 -7 74 -7 74 23 c 2,17,-1
 74 612 l 2,18,19
 74 643 74 643 93 643 c 0,20,21
 116 643 116 643 116 612 c 2,22,-1
 116 389 l 1,0,1
282 419 m 2,23,24
 202 419 202 419 159 370.5 c 128,-1,25
 116 322 116 322 116 232 c 2,26,-1
 116 228 l 2,27,28
 116 138 116 138 159 90 c 128,-1,29
 202 42 202 42 282 42 c 2,30,-1
 311 42 l 2,31,32
 358 42 358 42 384.5 45.5 c 128,-1,33
 411 49 411 49 434 62.5 c 128,-1,34
 457 76 457 76 466.5 103 c 128,-1,35
 476 130 476 130 476 175 c 2,36,-1
 476 286 l 2,37,38
 476 331 476 331 466.5 358 c 128,-1,39
 457 385 457 385 434 398.5 c 128,-1,40
 411 412 411 412 384.5 415.5 c 128,-1,41
 358 419 358 419 311 419 c 2,42,-1
 282 419 l 2,23,24
EndSplineSet
EndChar

StartChar: c
Encoding: 99 99 70
Width: 564
GlyphClass: 2
Flags: W
AnchorPoint: "Anchor-1" 294 0 basechar 0
AnchorPoint: "Anchor-0" 294 510 basechar 0
LayerCount: 2
Fore
SplineSet
411 0 m 2,0,-1
 270 0 l 2,1,2
 164 0 164 0 113 35 c 128,-1,3
 62 70 62 70 62 175 c 2,4,-1
 62 286 l 2,5,6
 62 391 62 391 113 426 c 128,-1,7
 164 461 164 461 270 461 c 2,8,-1
 411 461 l 2,9,10
 442 461 442 461 462.5 452 c 128,-1,11
 483 443 483 443 491.5 425.5 c 128,-1,12
 500 408 500 408 503 392.5 c 128,-1,13
 506 377 506 377 506 354 c 0,14,15
 506 324 506 324 485 324 c 128,-1,16
 464 324 464 324 464 352 c 0,17,18
 464 388 464 388 451 403.5 c 128,-1,19
 438 419 438 419 404 419 c 2,20,-1
 270 419 l 2,21,22
 222 419 222 419 195.5 415.5 c 128,-1,23
 169 412 169 412 146 398.5 c 128,-1,24
 123 385 123 385 113.5 358 c 128,-1,25
 104 331 104 331 104 286 c 2,26,-1
 104 175 l 2,27,28
 104 130 104 130 113.5 103 c 128,-1,29
 123 76 123 76 146 62.5 c 128,-1,30
 169 49 169 49 195.5 45.5 c 128,-1,31
 222 42 222 42 270 42 c 2,32,-1
 404 42 l 2,33,34
 438 42 438 42 451 57 c 128,-1,35
 464 72 464 72 464 109 c 0,36,37
 464 137 464 137 485 137 c 128,-1,38
 506 137 506 137 506 106 c 0,39,40
 506 84 506 84 503 68 c 128,-1,41
 500 52 500 52 491.5 35 c 128,-1,42
 483 18 483 18 462.5 9 c 128,-1,43
 442 0 442 0 411 0 c 2,0,-1
EndSplineSet
EndChar

StartChar: d
Encoding: 100 100 71
Width: 580
GlyphClass: 2
Flags: W
AnchorPoint: "Anchor-1" 284 0 basechar 0
AnchorPoint: "Anchor-0" 265 510 basechar 0
LayerCount: 2
Fore
SplineSet
104 175 m 2,0,1
 104 130 104 130 113.5 103 c 128,-1,2
 123 76 123 76 146 62.5 c 128,-1,3
 169 49 169 49 195.5 45.5 c 128,-1,4
 222 42 222 42 270 42 c 2,5,-1
 299 42 l 2,6,7
 378 42 378 42 421 90 c 128,-1,8
 464 138 464 138 464 228 c 2,9,-1
 464 419 l 1,10,-1
 270 419 l 2,11,12
 222 419 222 419 195.5 415.5 c 128,-1,13
 169 412 169 412 146 398.5 c 128,-1,14
 123 385 123 385 113.5 358 c 128,-1,15
 104 331 104 331 104 286 c 2,16,-1
 104 175 l 2,0,1
62 286 m 2,17,18
 62 391 62 391 113 426 c 128,-1,19
 164 461 164 461 270 461 c 2,20,-1
 464 461 l 1,21,-1
 464 612 l 2,22,23
 464 643 464 643 487 643 c 0,24,25
 506 643 506 643 506 612 c 2,26,-1
 506 23 l 2,27,28
 506 -7 506 -7 485 -7 c 128,-1,29
 464 -7 464 -7 464 23 c 2,30,-1
 464 72 l 1,31,32
 410 0 410 0 299 0 c 2,33,-1
 270 0 l 2,34,35
 164 0 164 0 113 35 c 128,-1,36
 62 70 62 70 62 175 c 2,37,-1
 62 286 l 2,17,18
EndSplineSet
EndChar

StartChar: e
Encoding: 101 101 72
Width: 566
GlyphClass: 2
Flags: W
AnchorPoint: "Anchor-1" 294 0 basechar 0
AnchorPoint: "Anchor-0" 294 510 basechar 0
LayerCount: 2
Fore
SplineSet
506 286 m 2,0,-1
 506 250 l 1,1,-1
 104 250 l 1,2,-1
 104 175 l 2,3,4
 104 130 104 130 113.5 103 c 128,-1,5
 123 76 123 76 146 62.5 c 128,-1,6
 169 49 169 49 195.5 45.5 c 128,-1,7
 222 42 222 42 270 42 c 2,8,-1
 404 42 l 2,9,10
 438 42 438 42 451 57 c 128,-1,11
 464 72 464 72 464 109 c 0,12,13
 464 137 464 137 485 137 c 128,-1,14
 506 137 506 137 506 106 c 0,15,16
 506 84 506 84 503 68 c 128,-1,17
 500 52 500 52 491.5 35 c 128,-1,18
 483 18 483 18 462.5 9 c 128,-1,19
 442 0 442 0 411 0 c 2,20,-1
 270 0 l 2,21,22
 164 0 164 0 113 35 c 128,-1,23
 62 70 62 70 62 175 c 2,24,-1
 62 286 l 2,25,26
 62 391 62 391 113 426 c 128,-1,27
 164 461 164 461 270 461 c 2,28,-1
 299 461 l 2,29,30
 404 461 404 461 455 426 c 128,-1,31
 506 391 506 391 506 286 c 2,0,-1
299 419 m 2,32,-1
 270 419 l 2,33,34
 178 419 178 419 141 396 c 128,-1,35
 104 373 104 373 104 292 c 1,36,-1
 464 292 l 1,37,38
 464 373 464 373 427 396 c 128,-1,39
 390 419 390 419 299 419 c 2,32,-1
EndSplineSet
EndChar

StartChar: f
Encoding: 102 102 73
Width: 313
GlyphClass: 2
Flags: W
AnchorPoint: "Anchor-1" 99 2 basechar 0
AnchorPoint: "Anchor-0" 241 677 basechar 0
LayerCount: 2
Fore
SplineSet
287 594 m 0,0,1
 239 594 239 594 212.5 590.5 c 128,-1,2
 186 587 186 587 163 573.5 c 128,-1,3
 140 560 140 560 130.5 533 c 128,-1,4
 121 506 121 506 121 461 c 1,5,-1
 264 461 l 2,6,7
 295 461 295 461 295 438 c 0,8,9
 295 419 295 419 264 419 c 2,10,-1
 121 419 l 1,11,-1
 121 24 l 2,12,13
 121 -7 121 -7 98 -7 c 0,14,15
 79 -7 79 -7 79 24 c 2,16,-1
 79 419 l 1,17,18
 48 419 48 419 48 441 c 0,19,20
 48 461 48 461 79 461 c 1,21,22
 79 517 79 517 93 552.5 c 128,-1,23
 107 588 107 588 137 606 c 128,-1,24
 167 624 167 624 201 630 c 128,-1,25
 235 636 235 636 287 636 c 0,26,27
 318 636 318 636 318 613 c 0,28,29
 318 594 318 594 287 594 c 0,0,1
EndSplineSet
EndChar

StartChar: g
Encoding: 103 103 74
Width: 581
GlyphClass: 2
Flags: W
AnchorPoint: "Anchor-1" 294 0 basechar 0
AnchorPoint: "Anchor-0" 294 510 basechar 0
LayerCount: 2
Fore
SplineSet
62 286 m 2,0,1
 62 391 62 391 113 426 c 128,-1,2
 164 461 164 461 270 461 c 2,3,-1
 299 461 l 2,4,5
 410 461 410 461 464 389 c 1,6,-1
 464 438 l 2,7,8
 464 468 464 468 485 468 c 128,-1,9
 506 468 506 468 506 438 c 2,10,-1
 506 -92 l 2,11,12
 506 -156 506 -156 488 -180.5 c 128,-1,13
 470 -205 470 -205 420 -205 c 2,14,-1
 157 -205 l 2,15,16
 126 -205 126 -205 105.5 -196 c 128,-1,17
 85 -187 85 -187 76.5 -169.5 c 128,-1,18
 68 -152 68 -152 65 -136.5 c 128,-1,19
 62 -121 62 -121 62 -98 c 0,20,21
 62 -68 62 -68 83 -68 c 128,-1,22
 104 -68 104 -68 104 -96 c 0,23,24
 104 -132 104 -132 117 -147.5 c 128,-1,25
 130 -163 130 -163 164 -163 c 2,26,-1
 413 -163 l 2,27,28
 444 -163 444 -163 454 -151.5 c 128,-1,29
 464 -140 464 -140 464 -108 c 2,30,-1
 464 9 l 1,31,32
 444 0 444 0 411 0 c 2,33,-1
 270 0 l 2,34,35
 164 0 164 0 113 35 c 128,-1,36
 62 70 62 70 62 175 c 2,37,-1
 62 286 l 2,0,1
104 175 m 2,38,39
 104 130 104 130 113.5 103 c 128,-1,40
 123 76 123 76 146 62.5 c 128,-1,41
 169 49 169 49 195.5 45.5 c 128,-1,42
 222 42 222 42 270 42 c 2,43,-1
 404 42 l 2,44,45
 438 42 438 42 451 56.5 c 128,-1,46
 464 71 464 71 464 106 c 2,47,-1
 464 232 l 2,48,49
 464 322 464 322 421 370.5 c 128,-1,50
 378 419 378 419 299 419 c 2,51,-1
 270 419 l 2,52,53
 222 419 222 419 195.5 415.5 c 128,-1,54
 169 412 169 412 146 398.5 c 128,-1,55
 123 385 123 385 113.5 358 c 128,-1,56
 104 331 104 331 104 286 c 2,57,-1
 104 175 l 2,38,39
EndSplineSet
EndChar

StartChar: h
Encoding: 104 104 75
Width: 588
GlyphClass: 2
Flags: W
AnchorPoint: "Anchor-1" 297 0 basechar 0
AnchorPoint: "Anchor-0" 306 510 basechar 0
LayerCount: 2
Fore
SplineSet
282 419 m 2,0,1
 202 419 202 419 159 370.5 c 128,-1,2
 116 322 116 322 116 232 c 2,3,-1
 116 23 l 2,4,5
 116 -7 116 -7 95 -7 c 128,-1,6
 74 -7 74 -7 74 23 c 2,7,-1
 74 612 l 2,8,9
 74 643 74 643 93 643 c 0,10,11
 116 643 116 643 116 612 c 2,12,-1
 116 389 l 1,13,14
 172 461 172 461 282 461 c 2,15,-1
 311 461 l 2,16,17
 416 461 416 461 467 426 c 128,-1,18
 518 391 518 391 518 286 c 2,19,-1
 518 23 l 2,20,21
 518 -7 518 -7 498 -7 c 0,22,23
 476 -7 476 -7 476 23 c 2,24,-1
 476 286 l 2,25,26
 476 331 476 331 466.5 358 c 128,-1,27
 457 385 457 385 434 398.5 c 128,-1,28
 411 412 411 412 384.5 415.5 c 128,-1,29
 358 419 358 419 311 419 c 2,30,-1
 282 419 l 2,0,1
EndSplineSet
EndChar

StartChar: i
Encoding: 105 105 76
Width: 190
GlyphClass: 2
Flags: W
AnchorPoint: "Anchor-1" 95 0 basechar 0
AnchorPoint: "Anchor-0" 95 677 basechar 0
LayerCount: 2
Fore
SplineSet
49 601 m 128,-1,1
 49 615 49 615 64 626 c 128,-1,2
 79 637 79 637 95 637 c 0,3,4
 110 637 110 637 125.5 626 c 128,-1,5
 141 615 141 615 141 601 c 128,-1,6
 141 587 141 587 125.5 576 c 128,-1,7
 110 565 110 565 95 565 c 0,8,9
 79 565 79 565 64 576 c 128,-1,0
 49 587 49 587 49 601 c 128,-1,1
116 20 m 2,10,11
 116 -7 116 -7 94 -7 c 0,12,13
 74 -7 74 -7 74 20 c 2,14,-1
 74 440 l 2,15,16
 74 468 74 468 95 468 c 128,-1,17
 116 468 116 468 116 440 c 2,18,-1
 116 20 l 2,10,11
EndSplineSet
EndChar

StartChar: j
Encoding: 106 106 77
Width: 192
GlyphClass: 2
Flags: W
AnchorPoint: "Anchor-1" 96 -175 basechar 0
AnchorPoint: "Anchor-0" 99 677 basechar 0
LayerCount: 2
Fore
SplineSet
50 601 m 128,-1,1
 50 615 50 615 65.5 626 c 128,-1,2
 81 637 81 637 96 637 c 0,3,4
 112 637 112 637 127 626 c 128,-1,5
 142 615 142 615 142 601 c 128,-1,6
 142 587 142 587 127 576 c 128,-1,7
 112 565 112 565 96 565 c 0,8,9
 81 565 81 565 65.5 576 c 128,-1,0
 50 587 50 587 50 601 c 128,-1,1
117 0 m 2,10,11
 117 -56 117 -56 103 -92 c 128,-1,12
 89 -128 89 -128 59 -145.5 c 128,-1,13
 29 -163 29 -163 -5 -169 c 128,-1,14
 -39 -175 -39 -175 -91 -175 c 0,15,16
 -122 -175 -122 -175 -122 -153 c 0,17,18
 -122 -133 -122 -133 -91 -133 c 0,19,20
 -43 -133 -43 -133 -16.5 -129.5 c 128,-1,21
 10 -126 10 -126 33 -112.5 c 128,-1,22
 56 -99 56 -99 65.5 -72 c 128,-1,23
 75 -45 75 -45 75 0 c 2,24,-1
 75 437 l 2,25,26
 75 468 75 468 97 468 c 0,27,28
 117 468 117 468 117 437 c 2,29,-1
 117 0 l 2,10,11
EndSplineSet
EndChar

StartChar: k
Encoding: 107 107 78
Width: 433
GlyphClass: 2
Flags: W
AnchorPoint: "Anchor-1" 247 0 basechar 0
AnchorPoint: "Anchor-0" 241 510 basechar 0
LayerCount: 2
Fore
SplineSet
421 14 m 0,0,1
 421 7 421 7 415.5 0.5 c 128,-1,2
 410 -6 410 -6 402 -6 c 0,3,4
 392 -6 392 -6 381 5 c 2,5,-1
 150 237 l 1,6,-1
 116 203 l 1,7,-1
 116 20 l 2,8,9
 116 -7 116 -7 94 -7 c 0,10,11
 74 -7 74 -7 74 20 c 2,12,-1
 74 615 l 2,13,14
 74 643 74 643 95 643 c 128,-1,15
 116 643 116 643 116 615 c 2,16,-1
 116 262 l 1,17,-1
 308 455 l 1,18,19
 321 466 321 466 329 466 c 0,20,21
 336 466 336 466 342.5 460 c 128,-1,22
 349 454 349 454 349 445 c 128,-1,23
 349 436 349 436 338 425 c 2,24,-1
 179 266 l 1,25,-1
 411 35 l 2,26,27
 421 25 421 25 421 14 c 0,0,1
EndSplineSet
EndChar

StartChar: l
Encoding: 108 108 79
Width: 260
GlyphClass: 2
Flags: W
AnchorPoint: "Anchor-1" 153 0 basechar 0
AnchorPoint: "Anchor-0" 111 677 basechar 0
LayerCount: 2
Fore
SplineSet
192 0 m 2,0,-1
 185 0 l 2,1,2
 130 0 130 0 110 27 c 128,-1,3
 90 54 90 54 90 124 c 2,4,-1
 90 613 l 2,5,6
 90 643 90 643 111 643 c 128,-1,7
 132 643 132 643 132 613 c 2,8,-1
 132 106 l 2,9,10
 132 71 132 71 145 56.5 c 128,-1,11
 158 42 158 42 192 42 c 0,12,13
 222 42 222 42 222 20 c 0,14,15
 222 0 222 0 192 0 c 2,0,-1
EndSplineSet
EndChar

StartChar: m
Encoding: 109 109 80
Width: 812
GlyphClass: 2
Flags: W
AnchorPoint: "Anchor-1" 407 0 basechar 0
AnchorPoint: "Anchor-0" 407 510 basechar 0
LayerCount: 2
Fore
SplineSet
251 419 m 0,0,1
 187 419 187 419 151.5 370.5 c 128,-1,2
 116 322 116 322 116 232 c 2,3,-1
 116 23 l 2,4,5
 116 -7 116 -7 95 -7 c 128,-1,6
 74 -7 74 -7 74 23 c 2,7,-1
 74 437 l 2,8,9
 74 468 74 468 93 468 c 0,10,11
 116 468 116 468 116 437 c 2,12,-1
 116 389 l 1,13,14
 146 428 146 428 175 444.5 c 128,-1,15
 204 461 204 461 251 461 c 0,16,17
 318 461 318 461 359 443 c 128,-1,18
 400 425 400 425 417 374 c 1,19,20
 464 461 464 461 563 461 c 0,21,22
 652 461 652 461 696.5 426 c 128,-1,23
 741 391 741 391 741 286 c 2,24,-1
 741 23 l 2,25,26
 741 -7 741 -7 720 -7 c 128,-1,27
 699 -7 699 -7 699 23 c 2,28,-1
 699 286 l 2,29,30
 699 331 699 331 692 358 c 128,-1,31
 685 385 685 385 666 398.5 c 128,-1,32
 647 412 647 412 625 415.5 c 128,-1,33
 603 419 603 419 563 419 c 0,34,35
 499 419 499 419 463.5 370.5 c 128,-1,36
 428 322 428 322 428 232 c 2,37,-1
 428 23 l 2,38,39
 428 -7 428 -7 408 -7 c 0,40,41
 386 -7 386 -7 386 23 c 2,42,-1
 386 286 l 2,43,44
 386 331 386 331 379 358 c 128,-1,45
 372 385 372 385 353 398.5 c 128,-1,46
 334 412 334 412 312.5 415.5 c 128,-1,47
 291 419 291 419 251 419 c 0,0,1
EndSplineSet
EndChar

StartChar: n
Encoding: 110 110 81
Width: 587
GlyphClass: 2
Flags: W
AnchorPoint: "Anchor-1" 306 0 basechar 0
AnchorPoint: "Anchor-0" 306 510 basechar 0
LayerCount: 2
Fore
SplineSet
282 419 m 2,0,1
 202 419 202 419 159 370.5 c 128,-1,2
 116 322 116 322 116 232 c 2,3,-1
 116 23 l 2,4,5
 116 -7 116 -7 95 -7 c 128,-1,6
 74 -7 74 -7 74 23 c 2,7,-1
 74 437 l 2,8,9
 74 468 74 468 93 468 c 0,10,11
 116 468 116 468 116 437 c 2,12,-1
 116 389 l 1,13,14
 172 461 172 461 282 461 c 2,15,-1
 311 461 l 2,16,17
 416 461 416 461 467 426 c 128,-1,18
 518 391 518 391 518 286 c 2,19,-1
 518 23 l 2,20,21
 518 -7 518 -7 498 -7 c 0,22,23
 476 -7 476 -7 476 23 c 2,24,-1
 476 286 l 2,25,26
 476 331 476 331 466.5 358 c 128,-1,27
 457 385 457 385 434 398.5 c 128,-1,28
 411 412 411 412 384.5 415.5 c 128,-1,29
 358 419 358 419 311 419 c 2,30,-1
 282 419 l 2,0,1
EndSplineSet
EndChar

StartChar: o
Encoding: 111 111 82
Width: 568
GlyphClass: 2
Flags: W
AnchorPoint: "Anchor-1" 284 0 basechar 0
AnchorPoint: "Anchor-0" 284 510 basechar 0
LayerCount: 2
Fore
SplineSet
299 0 m 2,0,-1
 270 0 l 2,1,2
 164 0 164 0 113 35 c 128,-1,3
 62 70 62 70 62 175 c 2,4,-1
 62 286 l 2,5,6
 62 391 62 391 113 426 c 128,-1,7
 164 461 164 461 270 461 c 2,8,-1
 299 461 l 2,9,10
 404 461 404 461 455 426 c 128,-1,11
 506 391 506 391 506 286 c 2,12,-1
 506 175 l 2,13,14
 506 70 506 70 455 35 c 128,-1,15
 404 0 404 0 299 0 c 2,0,-1
270 42 m 2,16,-1
 299 42 l 2,17,18
 346 42 346 42 372.5 45.5 c 128,-1,19
 399 49 399 49 422 62.5 c 128,-1,20
 445 76 445 76 454.5 103 c 128,-1,21
 464 130 464 130 464 175 c 2,22,-1
 464 286 l 2,23,24
 464 331 464 331 454.5 358 c 128,-1,25
 445 385 445 385 422 398.5 c 128,-1,26
 399 412 399 412 372.5 415.5 c 128,-1,27
 346 419 346 419 299 419 c 2,28,-1
 270 419 l 2,29,30
 222 419 222 419 195.5 415.5 c 128,-1,31
 169 412 169 412 146 398.5 c 128,-1,32
 123 385 123 385 113.5 358 c 128,-1,33
 104 331 104 331 104 286 c 2,34,-1
 104 175 l 2,35,36
 104 130 104 130 113.5 103 c 128,-1,37
 123 76 123 76 146 62.5 c 128,-1,38
 169 49 169 49 195.5 45.5 c 128,-1,39
 222 42 222 42 270 42 c 2,16,-1
EndSplineSet
EndChar

StartChar: p
Encoding: 112 112 83
Width: 581
GlyphClass: 2
Flags: W
AnchorPoint: "Anchor-1" 307 0 basechar 0
AnchorPoint: "Anchor-0" 307 510 basechar 0
LayerCount: 2
Fore
SplineSet
477 286 m 2,0,1
 477 331 477 331 467.5 358 c 128,-1,2
 458 385 458 385 435 398.5 c 128,-1,3
 412 412 412 412 385.5 415.5 c 128,-1,4
 359 419 359 419 312 419 c 2,5,-1
 283 419 l 2,6,7
 203 419 203 419 160 370.5 c 128,-1,8
 117 322 117 322 117 232 c 2,9,-1
 117 42 l 1,10,-1
 312 42 l 2,11,12
 359 42 359 42 385.5 45.5 c 128,-1,13
 412 49 412 49 435 62.5 c 128,-1,14
 458 76 458 76 467.5 103 c 128,-1,15
 477 130 477 130 477 175 c 2,16,-1
 477 286 l 2,0,1
519 175 m 2,17,18
 519 70 519 70 468 35 c 128,-1,19
 417 0 417 0 312 0 c 2,20,-1
 117 0 l 1,21,-1
 117 -152 l 2,22,23
 117 -182 117 -182 94 -182 c 0,24,25
 75 -182 75 -182 75 -152 c 2,26,-1
 75 438 l 2,27,28
 75 468 75 468 96 468 c 128,-1,29
 117 468 117 468 117 438 c 2,30,-1
 117 389 l 1,31,32
 173 461 173 461 283 461 c 2,33,-1
 312 461 l 2,34,35
 417 461 417 461 468 426 c 128,-1,36
 519 391 519 391 519 286 c 2,37,-1
 519 175 l 2,17,18
EndSplineSet
EndChar

StartChar: q
Encoding: 113 113 84
Width: 581
GlyphClass: 2
Flags: W
AnchorPoint: "Anchor-1" 278 0 basechar 0
AnchorPoint: "Anchor-0" 278 510 basechar 0
LayerCount: 2
Fore
SplineSet
104 286 m 2,0,-1
 104 175 l 2,1,2
 104 130 104 130 113.5 103 c 128,-1,3
 123 76 123 76 146 62.5 c 128,-1,4
 169 49 169 49 195.5 45.5 c 128,-1,5
 222 42 222 42 270 42 c 2,6,-1
 464 42 l 1,7,-1
 464 232 l 2,8,9
 464 322 464 322 421 370.5 c 128,-1,10
 378 419 378 419 299 419 c 2,11,-1
 270 419 l 2,12,13
 222 419 222 419 195.5 415.5 c 128,-1,14
 169 412 169 412 146 398.5 c 128,-1,15
 123 385 123 385 113.5 358 c 128,-1,16
 104 331 104 331 104 286 c 2,0,-1
62 175 m 2,17,-1
 62 286 l 2,18,19
 62 391 62 391 113 426 c 128,-1,20
 164 461 164 461 270 461 c 2,21,-1
 299 461 l 2,22,23
 410 461 410 461 464 389 c 1,24,-1
 464 438 l 2,25,26
 464 468 464 468 485 468 c 128,-1,27
 506 468 506 468 506 438 c 2,28,-1
 506 -152 l 2,29,30
 506 -182 506 -182 487 -182 c 0,31,32
 464 -182 464 -182 464 -152 c 2,33,-1
 464 0 l 1,34,-1
 270 0 l 2,35,36
 164 0 164 0 113 35 c 128,-1,37
 62 70 62 70 62 175 c 2,17,-1
EndSplineSet
EndChar

StartChar: r
Encoding: 114 114 85
Width: 372
GlyphClass: 2
Flags: W
AnchorPoint: "Anchor-1" 186 0 basechar 0
AnchorPoint: "Anchor-0" 236 510 basechar 0
LayerCount: 2
Fore
SplineSet
282 419 m 2,0,1
 202 419 202 419 159 370.5 c 128,-1,2
 116 322 116 322 116 232 c 2,3,-1
 116 23 l 2,4,5
 116 -7 116 -7 95 -7 c 128,-1,6
 74 -7 74 -7 74 23 c 2,7,-1
 74 437 l 2,8,9
 74 468 74 468 93 468 c 0,10,11
 116 468 116 468 116 437 c 2,12,-1
 116 389 l 1,13,14
 172 461 172 461 282 461 c 2,15,-1
 328 461 l 2,16,17
 358 461 358 461 358 440 c 128,-1,18
 358 419 358 419 328 419 c 2,19,-1
 282 419 l 2,0,1
EndSplineSet
EndChar

StartChar: s
Encoding: 115 115 86
Width: 566
GlyphClass: 2
Flags: W
AnchorPoint: "Anchor-1" 282 0 basechar 0
AnchorPoint: "Anchor-0" 282 510 basechar 0
LayerCount: 2
Fore
SplineSet
155 0 m 2,0,1
 124 0 124 0 103.5 9 c 128,-1,2
 83 18 83 18 74.5 35 c 128,-1,3
 66 52 66 52 63 68 c 128,-1,4
 60 84 60 84 60 106 c 0,5,6
 60 137 60 137 81 137 c 128,-1,7
 102 137 102 137 102 109 c 0,8,9
 102 72 102 72 115 57 c 128,-1,10
 128 42 128 42 162 42 c 2,11,-1
 400 42 l 2,12,13
 464 42 464 42 464 123 c 0,14,15
 464 165 464 165 446 190 c 128,-1,16
 428 215 428 215 400 215 c 2,17,-1
 184 215 l 2,18,19
 60 215 60 215 60 343 c 0,20,21
 60 401 60 401 88.5 431 c 128,-1,22
 117 461 117 461 184 461 c 2,23,-1
 409 461 l 2,24,25
 440 461 440 461 460.5 452 c 128,-1,26
 481 443 481 443 489.5 425.5 c 128,-1,27
 498 408 498 408 501 392.5 c 128,-1,28
 504 377 504 377 504 354 c 0,29,30
 504 324 504 324 483 324 c 128,-1,31
 462 324 462 324 462 352 c 0,32,33
 462 388 462 388 449 403.5 c 128,-1,34
 436 419 436 419 402 419 c 2,35,-1
 166 419 l 2,36,37
 102 419 102 419 102 343 c 0,38,39
 102 302 102 302 120 279.5 c 128,-1,40
 138 257 138 257 166 257 c 2,41,-1
 383 257 l 2,42,43
 506 257 506 257 506 123 c 0,44,45
 506 0 506 0 383 0 c 2,46,-1
 155 0 l 2,0,1
EndSplineSet
EndChar

StartChar: t
Encoding: 116 116 87
Width: 330
GlyphClass: 2
Flags: W
AnchorPoint: "Anchor-1" 204 0 basechar 0
AnchorPoint: "Anchor-0" 214 510 basechar 0
LayerCount: 2
Fore
SplineSet
119 175 m 2,0,1
 119 130 119 130 128.5 103 c 128,-1,2
 138 76 138 76 161 62.5 c 128,-1,3
 184 49 184 49 210.5 45.5 c 128,-1,4
 237 42 237 42 285 42 c 0,5,6
 315 42 315 42 315 23 c 0,7,8
 315 0 315 0 285 0 c 0,9,10
 234 0 234 0 199 6.5 c 128,-1,11
 164 13 164 13 134.5 31 c 128,-1,12
 105 49 105 49 91 84.5 c 128,-1,13
 77 120 77 120 77 175 c 2,14,-1
 77 419 l 1,15,16
 46 419 46 419 46 441 c 0,17,18
 46 461 46 461 77 461 c 1,19,-1
 77 570 l 2,20,21
 77 601 77 601 96 601 c 0,22,23
 119 601 119 601 119 570 c 2,24,-1
 119 461 l 1,25,-1
 262 461 l 2,26,27
 293 461 293 461 293 438 c 0,28,29
 293 419 293 419 262 419 c 2,30,-1
 119 419 l 1,31,-1
 119 175 l 2,0,1
EndSplineSet
EndChar

StartChar: u
Encoding: 117 117 88
Width: 588
GlyphClass: 2
Flags: W
AnchorPoint: "Anchor-1" 292 0 basechar 0
AnchorPoint: "Anchor-0" 292 510 basechar 0
LayerCount: 2
Fore
SplineSet
307 42 m 2,0,1
 386 42 386 42 429 90 c 128,-1,2
 472 138 472 138 472 228 c 2,3,-1
 472 438 l 2,4,5
 472 468 472 468 493 468 c 128,-1,6
 514 468 514 468 514 438 c 2,7,-1
 514 24 l 2,8,9
 514 -7 514 -7 495 -7 c 0,10,11
 472 -7 472 -7 472 24 c 2,12,-1
 472 72 l 1,13,14
 418 0 418 0 307 0 c 2,15,-1
 278 0 l 2,16,17
 172 0 172 0 121 35 c 128,-1,18
 70 70 70 70 70 175 c 2,19,-1
 70 438 l 2,20,21
 70 468 70 468 90 468 c 0,22,23
 112 468 112 468 112 438 c 2,24,-1
 112 175 l 2,25,26
 112 130 112 130 121.5 103 c 128,-1,27
 131 76 131 76 154 62.5 c 128,-1,28
 177 49 177 49 203.5 45.5 c 128,-1,29
 230 42 230 42 278 42 c 2,30,-1
 307 42 l 2,0,1
EndSplineSet
EndChar

StartChar: v
Encoding: 118 118 89
Width: 499
GlyphClass: 2
Flags: W
AnchorPoint: "Anchor-1" 246 0 basechar 0
AnchorPoint: "Anchor-0" 246 510 basechar 0
LayerCount: 2
Fore
SplineSet
212 0 m 1,0,-1
 31 439 l 1,1,2
 28 441 28 441 28 449 c 128,-1,3
 28 457 28 457 33.5 462.5 c 128,-1,4
 39 468 39 468 47 468 c 0,5,6
 62 468 62 468 70 449 c 2,7,-1
 243 46 l 1,8,-1
 250 46 l 1,9,-1
 430 450 l 2,10,11
 439 468 439 468 453 468 c 0,12,13
 472 468 472 468 472 450 c 0,14,15
 472 442 472 442 469 439 c 1,16,-1
 276 0 l 1,17,-1
 212 0 l 1,0,-1
EndSplineSet
EndChar

StartChar: w
Encoding: 119 119 90
Width: 771
GlyphClass: 2
Flags: W
AnchorPoint: "Anchor-1" 387 0 basechar 0
AnchorPoint: "Anchor-0" 387 510 basechar 0
LayerCount: 2
Fore
SplineSet
408 450 m 2,0,-1
 546 46 l 1,1,-1
 552 46 l 1,2,-1
 697 450 l 2,3,4
 703 468 703 468 714 468 c 0,5,6
 722 468 722 468 731.5 462.5 c 128,-1,7
 741 457 741 457 741 450 c 0,8,9
 741 442 741 442 738 439 c 1,10,-1
 583 0 l 1,11,-1
 512 0 l 1,12,-1
 386 384 l 1,13,-1
 250 0 l 1,14,-1
 179 0 l 1,15,-1
 34 439 l 1,16,17
 31 441 31 441 31 449 c 0,18,19
 31 456 31 456 41 462 c 128,-1,20
 51 468 51 468 58 468 c 0,21,22
 68 468 68 468 75 449 c 2,23,-1
 214 46 l 1,24,-1
 220 46 l 1,25,-1
 364 450 l 1,26,27
 367 467 367 467 387 467 c 0,28,29
 403 467 403 467 408 450 c 2,0,-1
EndSplineSet
EndChar

StartChar: x
Encoding: 120 120 91
Width: 488
GlyphClass: 2
Flags: W
AnchorPoint: "Anchor-1" 245 0 basechar 0
AnchorPoint: "Anchor-0" 245 510 basechar 0
LayerCount: 2
Fore
SplineSet
450 8 m 128,-1,1
 450 0 450 0 443.5 -5.5 c 128,-1,2
 437 -11 437 -11 430 -11 c 0,3,4
 420 -11 420 -11 410 1 c 2,5,-1
 245 198 l 1,6,-1
 79 1 l 2,7,8
 68 -11 68 -11 58 -11 c 0,9,10
 51 -11 51 -11 44.5 -5.5 c 128,-1,11
 38 0 38 0 38 8 c 128,-1,12
 38 16 38 16 47 29 c 1,13,-1
 217 230 l 1,14,-1
 47 433 l 2,15,16
 38 444 38 444 38 453 c 0,17,18
 38 461 38 461 44.5 466.5 c 128,-1,19
 51 472 51 472 58 472 c 0,20,21
 68 472 68 472 79 460 c 2,22,-1
 245 263 l 1,23,-1
 410 460 l 2,24,25
 420 472 420 472 430 472 c 0,26,27
 437 472 437 472 443.5 466.5 c 128,-1,28
 450 461 450 461 450 453 c 0,29,30
 450 444 450 444 441 433 c 2,31,-1
 271 230 l 1,32,-1
 441 29 l 1,33,0
 450 16 450 16 450 8 c 128,-1,1
EndSplineSet
EndChar

StartChar: y
Encoding: 121 121 92
Width: 589
GlyphClass: 2
Flags: W
AnchorPoint: "Anchor-1" 291 0 basechar 0
AnchorPoint: "Anchor-0" 291 510 basechar 0
LayerCount: 2
Fore
SplineSet
514 -92 m 2,0,1
 514 -156 514 -156 496 -180.5 c 128,-1,2
 478 -205 478 -205 428 -205 c 2,3,-1
 165 -205 l 2,4,5
 134 -205 134 -205 113.5 -196 c 128,-1,6
 93 -187 93 -187 84.5 -169.5 c 128,-1,7
 76 -152 76 -152 73 -136.5 c 128,-1,8
 70 -121 70 -121 70 -98 c 0,9,10
 70 -68 70 -68 91 -68 c 128,-1,11
 112 -68 112 -68 112 -96 c 0,12,13
 112 -132 112 -132 125 -147.5 c 128,-1,14
 138 -163 138 -163 172 -163 c 2,15,-1
 421 -163 l 2,16,17
 452 -163 452 -163 462 -151.5 c 128,-1,18
 472 -140 472 -140 472 -108 c 2,19,-1
 472 72 l 1,20,21
 418 0 418 0 307 0 c 2,22,-1
 278 0 l 2,23,24
 172 0 172 0 121 35 c 128,-1,25
 70 70 70 70 70 175 c 2,26,-1
 70 436 l 2,27,28
 70 468 70 468 91 468 c 128,-1,29
 112 468 112 468 112 436 c 2,30,-1
 112 175 l 2,31,32
 112 130 112 130 121.5 103 c 128,-1,33
 131 76 131 76 154 62.5 c 128,-1,34
 177 49 177 49 203.5 45.5 c 128,-1,35
 230 42 230 42 278 42 c 2,36,-1
 307 42 l 2,37,38
 386 42 386 42 429 90 c 128,-1,39
 472 138 472 138 472 228 c 2,40,-1
 472 436 l 2,41,42
 472 468 472 468 494 468 c 0,43,44
 514 468 514 468 514 436 c 2,45,-1
 514 -92 l 2,0,1
EndSplineSet
EndChar

StartChar: z
Encoding: 122 122 93
Width: 530
GlyphClass: 2
Flags: W
AnchorPoint: "Anchor-1" 258 0 basechar 0
AnchorPoint: "Anchor-0" 258 510 basechar 0
LayerCount: 2
Fore
SplineSet
108 42 m 1,0,-1
 377 42 l 2,1,2
 405 42 405 42 419 54.5 c 128,-1,3
 433 67 433 67 435.5 81.5 c 128,-1,4
 438 96 438 96 438 124 c 0,5,6
 438 155 438 155 459 155 c 128,-1,7
 480 155 480 155 480 124 c 0,8,9
 480 54 480 54 459.5 27 c 128,-1,10
 439 0 439 0 385 0 c 2,11,-1
 58 0 l 1,12,-1
 58 59 l 1,13,-1
 412 419 l 1,14,-1
 160 419 l 2,15,16
 121 419 121 419 110.5 398.5 c 128,-1,17
 100 378 100 378 100 337 c 0,18,19
 100 306 100 306 78 306 c 0,20,21
 58 306 58 306 58 337 c 0,22,23
 58 407 58 407 78 434 c 128,-1,24
 98 461 98 461 153 461 c 2,25,-1
 459 461 l 1,26,-1
 459 399 l 1,27,-1
 108 42 l 1,0,-1
EndSplineSet
EndChar

StartChar: braceleft
Encoding: 123 123 94
Width: 250
GlyphClass: 2
Flags: W
LayerCount: 2
Fore
SplineSet
76 317 m 1,0,1
 85 313 85 313 97.5 305.5 c 128,-1,2
 110 298 110 298 131 276.5 c 128,-1,3
 152 255 152 255 152 236 c 0,4,5
 152 210 152 210 138 165 c 128,-1,6
 124 120 124 120 124 108 c 0,7,8
 124 39 124 39 137 19.5 c 128,-1,9
 150 0 150 0 202 0 c 1,10,-1
 202 -42 l 1,11,12
 136 -42 136 -42 109 -11.5 c 128,-1,13
 82 19 82 19 82 108 c 0,14,15
 82 126 82 126 96 171.5 c 128,-1,16
 110 217 110 217 110 236 c 128,-1,17
 110 255 110 255 91 275.5 c 128,-1,18
 72 296 72 296 53 306 c 2,19,-1
 34 317 l 1,20,21
 43 321 43 321 55.5 329 c 128,-1,22
 68 337 68 337 89 359 c 128,-1,23
 110 381 110 381 110 400 c 128,-1,24
 110 419 110 419 96 464.5 c 128,-1,25
 82 510 82 510 82 528 c 0,26,27
 82 617 82 617 109 647.5 c 128,-1,28
 136 678 136 678 202 678 c 1,29,-1
 202 636 l 1,30,31
 150 636 150 636 137 616 c 128,-1,32
 124 596 124 596 124 528 c 0,33,34
 124 516 124 516 138 470.5 c 128,-1,35
 152 425 152 425 152 400 c 0,36,37
 152 381 152 381 133 360 c 128,-1,38
 114 339 114 339 95 328 c 2,39,-1
 76 317 l 1,0,1
EndSplineSet
EndChar

StartChar: bar
Encoding: 124 124 95
Width: 204
GlyphClass: 2
Flags: W
LayerCount: 2
Fore
SplineSet
123 20 m 2,0,1
 123 -7 123 -7 101 -7 c 0,2,3
 81 -7 81 -7 81 20 c 2,4,-1
 81 615 l 2,5,6
 81 643 81 643 102 643 c 128,-1,7
 123 643 123 643 123 615 c 2,8,-1
 123 20 l 2,0,1
EndSplineSet
EndChar

StartChar: braceright
Encoding: 125 125 96
Width: 251
GlyphClass: 2
Flags: W
LayerCount: 2
Fore
SplineSet
174 318 m 1,0,1
 165 322 165 322 152.5 330 c 128,-1,2
 140 338 140 338 119 359.5 c 128,-1,3
 98 381 98 381 98 400 c 0,4,5
 98 425 98 425 112 470.5 c 128,-1,6
 126 516 126 516 126 528 c 0,7,8
 126 596 126 596 113 616 c 128,-1,9
 100 636 100 636 48 636 c 1,10,-1
 48 678 l 1,11,12
 114 678 114 678 141 647.5 c 128,-1,13
 168 617 168 617 168 528 c 0,14,15
 168 510 168 510 154 464.5 c 128,-1,16
 140 419 140 419 140 400 c 128,-1,17
 140 381 140 381 159 360.5 c 128,-1,18
 178 340 178 340 197 329 c 2,19,-1
 216 318 l 1,20,21
 207 314 207 314 194.5 306 c 128,-1,22
 182 298 182 298 161 276.5 c 128,-1,23
 140 255 140 255 140 236 c 128,-1,24
 140 217 140 217 154 171.5 c 128,-1,25
 168 126 168 126 168 108 c 0,26,27
 168 19 168 19 141 -11.5 c 128,-1,28
 114 -42 114 -42 48 -42 c 1,29,-1
 48 0 l 1,30,31
 100 0 100 0 113 19.5 c 128,-1,32
 126 39 126 39 126 108 c 0,33,34
 126 120 126 120 112 165 c 128,-1,35
 98 210 98 210 98 236 c 0,36,37
 98 255 98 255 117 275.5 c 128,-1,38
 136 296 136 296 155 307 c 2,39,-1
 174 318 l 1,0,1
EndSplineSet
EndChar

StartChar: asciitilde
Encoding: 126 126 97
Width: 418
GlyphClass: 2
Flags: W
LayerCount: 2
Fore
SplineSet
256 231 m 2,0,1
 260 229 260 229 263 229 c 0,2,3
 267 229 267 229 274 234 c 2,4,-1
 305 262 l 1,5,6
 316 270 316 270 324 270 c 128,-1,7
 332 270 332 270 338.5 265 c 128,-1,8
 345 260 345 260 345 252 c 0,9,10
 345 240 345 240 333 229 c 2,11,-1
 286 190 l 2,12,13
 279 183 279 183 270 183 c 0,14,15
 266 183 266 183 260 185 c 2,16,-1
 162 221 l 2,17,18
 158 223 158 223 154 223 c 128,-1,19
 150 223 150 223 143 218 c 2,20,-1
 112 190 l 1,21,22
 101 182 101 182 93 182 c 0,23,24
 86 182 86 182 79.5 187.5 c 128,-1,25
 73 193 73 193 73 201 c 0,26,27
 73 214 73 214 85 223 c 2,28,-1
 132 262 l 1,29,30
 137 269 137 269 147 269 c 0,31,32
 150 269 150 269 158 267 c 2,33,-1
 256 231 l 2,0,1
EndSplineSet
EndChar

StartChar: exclamdown
Encoding: 161 161 98
Width: 218
GlyphClass: 2
Flags: W
LayerCount: 2
Fore
SplineSet
130 -138 m 2,0,1
 130 -165 130 -165 108 -165 c 0,2,3
 88 -165 88 -165 88 -138 c 2,4,-1
 88 282 l 2,5,6
 88 310 88 310 109 310 c 128,-1,7
 130 310 130 310 130 282 c 2,8,-1
 130 -138 l 2,0,1
62 450 m 128,-1,10
 62 464 62 464 77.5 475 c 128,-1,11
 93 486 93 486 108 486 c 0,12,13
 124 486 124 486 139.5 475 c 128,-1,14
 155 464 155 464 155 450 c 128,-1,15
 155 436 155 436 139.5 425 c 128,-1,16
 124 414 124 414 108 414 c 0,17,18
 93 414 93 414 77.5 425 c 128,-1,9
 62 436 62 436 62 450 c 128,-1,10
EndSplineSet
EndChar

StartChar: cent
Encoding: 162 162 99
Width: 471
GlyphClass: 2
Flags: W
LayerCount: 2
Fore
SplineSet
261 20 m 2,0,1
 261 -7 261 -7 239 -7 c 0,2,3
 219 -7 219 -7 219 20 c 2,4,-1
 219 124 l 1,5,6
 134 128 134 128 92 165 c 128,-1,7
 50 202 50 202 50 298 c 2,8,-1
 50 340 l 2,9,10
 50 435 50 435 92.5 472.5 c 128,-1,11
 135 510 135 510 219 514 c 1,12,-1
 219 615 l 2,13,14
 219 643 219 643 241 643 c 0,15,16
 261 643 261 643 261 615 c 2,17,-1
 261 515 l 1,18,-1
 318 515 l 2,19,20
 376 515 376 515 395 486 c 128,-1,21
 414 457 414 457 414 409 c 0,22,23
 414 378 414 378 392 378 c 0,24,25
 372 378 372 378 372 407 c 0,26,27
 372 443 372 443 358.5 458 c 128,-1,28
 345 473 345 473 311 473 c 2,29,-1
 261 473 l 1,30,-1
 261 165 l 1,31,-1
 309 165 l 2,32,33
 343 165 343 165 356.5 180 c 128,-1,34
 370 195 370 195 370 231 c 0,35,36
 370 260 370 260 390 260 c 0,37,38
 412 260 412 260 412 229 c 0,39,40
 412 207 412 207 409 191 c 128,-1,41
 406 175 406 175 397 158 c 128,-1,42
 388 141 388 141 367.5 132 c 128,-1,43
 347 123 347 123 316 123 c 2,44,-1
 261 123 l 1,45,-1
 261 20 l 2,0,1
219 166 m 1,46,-1
 219 472 l 1,47,48
 151 470 151 470 121.5 442.5 c 128,-1,49
 92 415 92 415 92 340 c 2,50,-1
 92 298 l 2,51,52
 92 221 92 221 120.5 194.5 c 128,-1,53
 149 168 149 168 219 166 c 1,46,-1
EndSplineSet
EndChar

StartChar: sterling
Encoding: 163 163 100
Width: 491
GlyphClass: 2
Flags: W
LayerCount: 2
Fore
SplineSet
82 0 m 2,0,1
 65 0 65 0 65 23 c 0,2,3
 65 28 65 28 66 31 c 2,4,-1
 104 468 l 2,5,6
 109 523 109 523 125 559.5 c 128,-1,7
 141 596 141 596 167.5 613 c 128,-1,8
 194 630 194 630 220.5 636.5 c 128,-1,9
 247 643 247 643 283 643 c 0,10,11
 352 643 352 643 391.5 613.5 c 128,-1,12
 431 584 431 584 431 501 c 0,13,14
 431 473 431 473 409 473 c 0,15,16
 389 473 389 473 389 501 c 0,17,18
 389 535 389 535 381 556.5 c 128,-1,19
 373 578 373 578 355.5 587 c 128,-1,20
 338 596 338 596 322 598.5 c 128,-1,21
 306 601 306 601 279 601 c 0,22,23
 219 601 219 601 186 576 c 128,-1,24
 153 551 153 551 146 468 c 2,25,-1
 137 364 l 1,26,-1
 176 364 l 2,27,28
 203 364 203 364 203 342 c 0,29,30
 203 322 203 322 176 322 c 2,31,-1
 133 322 l 1,32,-1
 109 42 l 1,33,-1
 405 42 l 2,34,35
 433 42 433 42 433 20 c 0,36,37
 433 0 433 0 405 0 c 2,38,-1
 82 0 l 2,0,1
EndSplineSet
EndChar

StartChar: currency
Encoding: 164 164 101
Width: 493
GlyphClass: 2
Flags: W
LayerCount: 2
Fore
SplineSet
137 230 m 0,0,1
 137 185 137 185 169 153 c 128,-1,2
 201 121 201 121 247 121 c 0,3,4
 292 121 292 121 324 153 c 128,-1,5
 356 185 356 185 356 230 c 0,6,7
 356 276 356 276 324 308 c 128,-1,8
 292 340 292 340 247 340 c 0,9,10
 201 340 201 340 169 308 c 128,-1,11
 137 276 137 276 137 230 c 0,0,1
131 145 m 1,12,13
 103 182 103 182 103 230 c 0,14,15
 103 279 103 279 131 315 c 1,16,-1
 83 364 l 2,17,18
 72 375 72 375 72 384 c 0,19,20
 72 391 72 391 78.5 397.5 c 128,-1,21
 85 404 85 404 92 404 c 0,22,23
 101 404 101 404 112 393 c 2,24,-1
 161 345 l 1,25,26
 198 374 198 374 247 374 c 0,27,28
 295 374 295 374 332 345 c 1,29,-1
 380 393 l 2,30,31
 391 404 391 404 401 404 c 0,32,33
 407 404 407 404 414 398.5 c 128,-1,34
 421 393 421 393 421 385 c 0,35,36
 421 374 421 374 409 364 c 1,37,-1
 361 315 l 1,38,39
 390 280 390 280 390 230 c 0,40,41
 390 182 390 182 361 145 c 1,42,-1
 409 97 l 2,43,44
 421 86 421 86 421 77 c 0,45,46
 421 70 421 70 414 63 c 128,-1,47
 407 56 407 56 400 56 c 0,48,49
 390 56 390 56 380 68 c 1,50,-1
 332 116 l 1,51,52
 295 87 295 87 247 87 c 0,53,54
 198 87 198 87 161 116 c 1,55,-1
 112 68 l 1,56,57
 102 56 102 56 91 56 c 0,58,59
 85 56 85 56 78.5 61.5 c 128,-1,60
 72 67 72 67 72 76 c 0,61,62
 72 86 72 86 83 97 c 2,63,-1
 131 145 l 1,12,13
EndSplineSet
EndChar

StartChar: yen
Encoding: 165 165 102
Width: 529
GlyphClass: 2
Flags: W
LayerCount: 2
Fore
SplineSet
245 310 m 1,0,-1
 39 604 l 2,1,2
 32 614 32 614 32 623 c 0,3,4
 32 631 32 631 38.5 637 c 128,-1,5
 45 643 45 643 52 643 c 0,6,7
 62 643 62 643 73 627 c 2,8,-1
 265 354 l 1,9,-1
 456 627 l 1,10,11
 469 643 469 643 478 643 c 0,12,13
 485 643 485 643 491.5 637 c 128,-1,14
 498 631 498 631 498 623 c 0,15,16
 498 614 498 614 491 604 c 2,17,-1
 286 310 l 1,18,-1
 286 272 l 1,19,-1
 385 272 l 2,20,21
 413 272 413 272 413 250 c 0,22,23
 413 229 413 229 385 229 c 2,24,-1
 286 229 l 1,25,-1
 286 183 l 1,26,-1
 385 183 l 2,27,28
 413 183 413 183 413 161 c 0,29,30
 413 140 413 140 385 140 c 2,31,-1
 286 140 l 1,32,-1
 286 20 l 2,33,34
 286 -7 286 -7 265 -7 c 0,35,36
 245 -7 245 -7 245 20 c 2,37,-1
 245 140 l 1,38,-1
 140 140 l 2,39,40
 113 140 113 140 113 163 c 0,41,42
 113 183 113 183 140 183 c 2,43,-1
 245 183 l 1,44,-1
 245 229 l 1,45,-1
 140 229 l 2,46,47
 113 229 113 229 113 252 c 0,48,49
 113 272 113 272 140 272 c 2,50,-1
 245 272 l 1,51,-1
 245 310 l 1,0,-1
EndSplineSet
EndChar

StartChar: brokenbar
Encoding: 166 166 103
Width: 207
GlyphClass: 2
Flags: W
LayerCount: 2
Fore
SplineSet
83 616 m 2,0,1
 83 643 83 643 104 643 c 0,2,3
 124 643 124 643 124 616 c 2,4,-1
 124 401 l 2,5,6
 124 373 124 373 102 373 c 0,7,8
 83 373 83 373 83 401 c 2,9,-1
 83 616 l 2,0,1
83 237 m 2,10,11
 83 263 83 263 104 263 c 0,12,13
 124 263 124 263 124 237 c 2,14,-1
 124 22 l 2,15,16
 124 -7 124 -7 102 -7 c 0,17,18
 83 -7 83 -7 83 22 c 2,19,-1
 83 237 l 2,10,11
EndSplineSet
EndChar

StartChar: section
Encoding: 167 167 104
Width: 510
GlyphClass: 2
Flags: W
LayerCount: 2
Fore
SplineSet
435 289 m 0,0,1
 435 212 435 212 382 195 c 1,2,3
 435 170 435 170 435 99 c 0,4,5
 435 0 435 0 335 0 c 2,6,-1
 151 0 l 2,7,8
 118 0 118 0 100.5 14 c 128,-1,9
 83 28 83 28 79 44.5 c 128,-1,10
 75 61 75 61 75 86 c 128,-1,11
 75 111 75 111 97 111 c 0,12,13
 105 111 105 111 111 105 c 128,-1,14
 117 99 117 99 117 88 c 0,15,16
 117 59 117 59 125.5 50.5 c 128,-1,17
 134 42 134 42 162 42 c 2,18,-1
 346 42 l 2,19,20
 373 42 373 42 383 55.5 c 128,-1,21
 393 69 393 69 393 99 c 0,22,23
 393 168 393 168 350 174 c 2,24,-1
 175 199 l 2,25,26
 75 213 75 213 75 306 c 0,27,28
 75 382 75 382 128 399 c 1,29,30
 75 424 75 424 75 495 c 0,31,32
 75 594 75 594 175 594 c 2,33,-1
 360 594 l 2,34,35
 385 594 385 594 401 587 c 128,-1,36
 417 580 417 580 424 566 c 128,-1,37
 431 552 431 552 433 539 c 128,-1,38
 435 526 435 526 435 508 c 0,39,40
 435 483 435 483 414 483 c 128,-1,41
 393 483 393 483 393 506 c 0,42,43
 393 535 393 535 384.5 543.5 c 128,-1,44
 376 552 376 552 348 552 c 2,45,-1
 164 552 l 2,46,47
 137 552 137 552 127 538 c 128,-1,48
 117 524 117 524 117 495 c 0,49,50
 117 426 117 426 160 420 c 2,51,-1
 335 395 l 2,52,53
 435 381 435 381 435 289 c 0,0,1
117 306 m 0,54,55
 117 263 117 263 172 242 c 128,-1,56
 227 221 227 221 307 221 c 0,57,58
 360 221 360 221 376.5 232 c 128,-1,59
 393 243 393 243 393 289 c 0,60,61
 393 332 393 332 338 352.5 c 128,-1,62
 283 373 283 373 203 373 c 0,63,64
 150 373 150 373 133.5 362 c 128,-1,65
 117 351 117 351 117 306 c 0,54,55
EndSplineSet
EndChar

StartChar: dieresis
Encoding: 168 168 105
Width: 367
GlyphClass: 2
Flags: W
LayerCount: 2
Fore
SplineSet
211 630 m 128,-1,1
 211 644 211 644 226 655 c 128,-1,2
 241 666 241 666 257 666 c 0,3,4
 272 666 272 666 287.5 655 c 128,-1,5
 303 644 303 644 303 630 c 128,-1,6
 303 616 303 616 287.5 605 c 128,-1,7
 272 594 272 594 257 594 c 0,8,9
 241 594 241 594 226 605 c 128,-1,0
 211 616 211 616 211 630 c 128,-1,1
65 630 m 128,-1,11
 65 644 65 644 80 655 c 128,-1,12
 95 666 95 666 111 666 c 0,13,14
 126 666 126 666 141.5 655 c 128,-1,15
 157 644 157 644 157 630 c 128,-1,16
 157 616 157 616 141.5 605 c 128,-1,17
 126 594 126 594 111 594 c 0,18,19
 95 594 95 594 80 605 c 128,-1,10
 65 616 65 616 65 630 c 128,-1,11
EndSplineSet
EndChar

StartChar: copyright
Encoding: 169 169 106
Width: 604
GlyphClass: 2
Flags: W
LayerCount: 2
Fore
SplineSet
347 219 m 2,0,-1
 297 219 l 2,1,2
 260 219 260 219 233.5 239 c 128,-1,3
 207 259 207 259 207 298 c 2,4,-1
 207 337 l 2,5,6
 207 376 207 376 233.5 396 c 128,-1,7
 260 416 260 416 297 416 c 2,8,-1
 347 416 l 2,9,10
 367 416 367 416 379 405.5 c 128,-1,11
 391 395 391 395 394 384.5 c 128,-1,12
 397 374 397 374 397 362 c 0,13,14
 397 351 397 351 382 351 c 0,15,16
 368 351 368 351 368 361 c 0,17,18
 368 385 368 385 345 385 c 2,19,-1
 297 385 l 2,20,21
 272 385 272 385 254.5 372.5 c 128,-1,22
 237 360 237 360 237 337 c 2,23,-1
 237 298 l 2,24,25
 237 275 237 275 254.5 262.5 c 128,-1,26
 272 250 272 250 297 250 c 2,27,-1
 345 250 l 2,28,29
 368 250 368 250 368 273 c 0,30,31
 368 284 368 284 382 284 c 0,32,33
 397 284 397 284 397 272 c 0,34,35
 397 261 397 261 394 250.5 c 128,-1,36
 391 240 391 240 379 229.5 c 128,-1,37
 367 219 367 219 347 219 c 2,0,-1
317 87 m 2,38,-1
 288 87 l 2,39,40
 182 87 182 87 131 122 c 128,-1,41
 80 157 80 157 80 262 c 2,42,-1
 80 373 l 2,43,44
 80 478 80 478 131 513 c 128,-1,45
 182 548 182 548 288 548 c 2,46,-1
 317 548 l 2,47,48
 422 548 422 548 473 513 c 128,-1,49
 524 478 524 478 524 373 c 2,50,-1
 524 262 l 2,51,52
 524 157 524 157 473 122 c 128,-1,53
 422 87 422 87 317 87 c 2,38,-1
288 129 m 2,54,-1
 317 129 l 2,55,56
 364 129 364 129 390.5 132.5 c 128,-1,57
 417 136 417 136 440 149.5 c 128,-1,58
 463 163 463 163 472.5 190 c 128,-1,59
 482 217 482 217 482 262 c 2,60,-1
 482 373 l 2,61,62
 482 418 482 418 472.5 445 c 128,-1,63
 463 472 463 472 440 485.5 c 128,-1,64
 417 499 417 499 390.5 502.5 c 128,-1,65
 364 506 364 506 317 506 c 2,66,-1
 288 506 l 2,67,68
 240 506 240 506 213.5 502.5 c 128,-1,69
 187 499 187 499 164 485.5 c 128,-1,70
 141 472 141 472 131.5 445 c 128,-1,71
 122 418 122 418 122 373 c 2,72,-1
 122 262 l 2,73,74
 122 217 122 217 131.5 190 c 128,-1,75
 141 163 141 163 164 149.5 c 128,-1,76
 187 136 187 136 213.5 132.5 c 128,-1,77
 240 129 240 129 288 129 c 2,54,-1
EndSplineSet
EndChar

StartChar: ordfeminine
Encoding: 170 170 107
Width: 376
GlyphClass: 2
Flags: W
LayerCount: 2
Fore
SplineSet
89 164 m 2,0,1
 68 164 68 164 68 182 c 0,2,3
 68 199 68 199 89 199 c 2,4,-1
 285 199 l 2,5,6
 308 199 308 199 308 180 c 0,7,8
 308 164 308 164 285 164 c 2,9,-1
 89 164 l 2,0,1
252 354 m 1,10,-1
 190 354 l 2,11,12
 153 354 153 354 138.5 345.5 c 128,-1,13
 124 337 124 337 124 309 c 0,14,15
 124 298 124 298 131 289 c 128,-1,16
 138 280 138 280 148 280 c 2,17,-1
 185 280 l 2,18,19
 217 280 217 280 234.5 299 c 128,-1,20
 252 318 252 318 252 354 c 1,10,-1
190 385 m 2,21,-1
 252 385 l 1,22,-1
 252 404 l 2,23,24
 252 418 252 418 246.5 424 c 128,-1,25
 241 430 241 430 227 430 c 2,26,-1
 148 430 l 2,27,28
 135 430 135 430 129.5 424 c 128,-1,29
 124 418 124 418 124 404 c 0,30,31
 124 392 124 392 108 392 c 0,32,33
 93 392 93 392 93 404 c 0,34,35
 93 428 93 428 107.5 444.5 c 128,-1,36
 122 461 122 461 145 461 c 2,37,-1
 230 461 l 2,38,39
 283 461 283 461 283 397 c 2,40,-1
 283 258 l 2,41,42
 283 246 283 246 267 246 c 0,43,44
 252 246 252 246 252 258 c 2,45,-1
 252 292 l 1,46,47
 244 270 244 270 230 259.5 c 128,-1,48
 216 249 216 249 185 249 c 2,49,-1
 148 249 l 2,50,51
 124 249 124 249 108.5 268 c 128,-1,52
 93 287 93 287 93 311 c 0,53,54
 93 353 93 353 116.5 369 c 128,-1,55
 140 385 140 385 190 385 c 2,21,-1
EndSplineSet
EndChar

StartChar: guillemotleft
Encoding: 171 171 108
Width: 484
GlyphClass: 2
Flags: W
LayerCount: 2
Fore
SplineSet
256 178 m 2,0,1
 269 165 269 165 269 150 c 128,-1,2
 269 135 269 135 254 135 c 0,3,4
 240 135 240 135 234 141 c 2,5,-1
 52 310 l 2,6,7
 36 324 36 324 36 333 c 0,8,9
 36 340 36 340 52 354 c 2,10,-1
 234 523 l 2,11,12
 239 528 239 528 254 528 c 128,-1,13
 269 528 269 528 269 514 c 128,-1,14
 269 500 269 500 256 486 c 1,15,-1
 98 333 l 1,16,-1
 256 178 l 2,0,1
410 178 m 2,17,18
 423 165 423 165 423 150 c 128,-1,19
 423 135 423 135 408 135 c 0,20,21
 394 135 394 135 388 141 c 2,22,-1
 206 310 l 2,23,24
 190 324 190 324 190 333 c 0,25,26
 190 340 190 340 206 354 c 2,27,-1
 388 523 l 2,28,29
 393 528 393 528 408 528 c 128,-1,30
 423 528 423 528 423 514 c 128,-1,31
 423 500 423 500 410 486 c 1,32,-1
 252 333 l 1,33,-1
 410 178 l 2,17,18
EndSplineSet
EndChar

StartChar: logicalnot
Encoding: 172 172 109
Width: 515
GlyphClass: 2
Flags: W
LayerCount: 2
Fore
SplineSet
436 225 m 2,0,-1
 436 141 l 2,1,2
 436 113 436 113 413 113 c 0,3,4
 393 113 393 113 393 141 c 2,5,-1
 393 209 l 1,6,-1
 109 209 l 2,7,8
 83 209 83 209 83 231 c 0,9,10
 83 252 83 252 109 252 c 2,11,-1
 407 252 l 2,12,13
 436 252 436 252 436 225 c 2,0,-1
EndSplineSet
EndChar

StartChar: uni00AD
Encoding: 173 173 110
Width: 446
GlyphClass: 2
Flags: W
LayerCount: 2
Fore
SplineSet
99 209 m 2,0,1
 73 209 73 209 73 231 c 0,2,3
 73 252 73 252 99 252 c 2,4,-1
 344 252 l 2,5,6
 373 252 373 252 373 229 c 0,7,8
 373 209 373 209 344 209 c 2,9,-1
 99 209 l 2,0,1
EndSplineSet
EndChar

StartChar: registered
Encoding: 174 174 111
Width: 604
GlyphClass: 2
Flags: W
LayerCount: 2
Fore
SplineSet
301 334 m 2,0,1
 341 334 341 334 357.5 339 c 128,-1,2
 374 344 374 344 374 361 c 0,3,4
 374 379 374 379 357.5 384.5 c 128,-1,5
 341 390 341 390 301 390 c 2,6,-1
 234 390 l 1,7,-1
 234 334 l 1,8,-1
 301 334 l 2,0,1
234 217 m 2,9,10
 234 208 234 208 218 208 c 0,11,12
 203 208 203 208 203 217 c 2,13,-1
 203 411 l 2,14,15
 203 421 203 421 217 421 c 2,16,-1
 301 421 l 2,17,18
 405 421 405 421 405 361 c 0,19,20
 405 340 405 340 390 323.5 c 128,-1,21
 375 307 375 307 350 304 c 1,22,23
 365 295 365 295 379.5 274 c 128,-1,24
 394 253 394 253 401 236.5 c 128,-1,25
 408 220 408 220 408 217 c 0,26,27
 408 208 408 208 392 208 c 0,28,29
 387 208 387 208 382 211 c 128,-1,30
 377 214 377 214 377 217 c 128,-1,31
 377 220 377 220 369.5 235 c 128,-1,32
 362 250 362 250 345.5 271 c 128,-1,33
 329 292 329 292 311 303 c 1,34,-1
 234 303 l 1,35,-1
 234 217 l 2,9,10
317 87 m 2,36,-1
 288 87 l 2,37,38
 182 87 182 87 131 122 c 128,-1,39
 80 157 80 157 80 262 c 2,40,-1
 80 373 l 2,41,42
 80 478 80 478 131 513 c 128,-1,43
 182 548 182 548 288 548 c 2,44,-1
 317 548 l 2,45,46
 422 548 422 548 473 513 c 128,-1,47
 524 478 524 478 524 373 c 2,48,-1
 524 262 l 2,49,50
 524 157 524 157 473 122 c 128,-1,51
 422 87 422 87 317 87 c 2,36,-1
288 129 m 2,52,-1
 317 129 l 2,53,54
 364 129 364 129 390.5 132.5 c 128,-1,55
 417 136 417 136 440 149.5 c 128,-1,56
 463 163 463 163 472.5 190 c 128,-1,57
 482 217 482 217 482 262 c 2,58,-1
 482 373 l 2,59,60
 482 418 482 418 472.5 445 c 128,-1,61
 463 472 463 472 440 485.5 c 128,-1,62
 417 499 417 499 390.5 502.5 c 128,-1,63
 364 506 364 506 317 506 c 2,64,-1
 288 506 l 2,65,66
 240 506 240 506 213.5 502.5 c 128,-1,67
 187 499 187 499 164 485.5 c 128,-1,68
 141 472 141 472 131.5 445 c 128,-1,69
 122 418 122 418 122 373 c 2,70,-1
 122 262 l 2,71,72
 122 217 122 217 131.5 190 c 128,-1,73
 141 163 141 163 164 149.5 c 128,-1,74
 187 136 187 136 213.5 132.5 c 128,-1,75
 240 129 240 129 288 129 c 2,52,-1
EndSplineSet
EndChar

StartChar: macron
Encoding: 175 175 112
Width: 429
GlyphClass: 2
Flags: W
LayerCount: 2
Fore
SplineSet
91 678 m 2,0,1
 65 678 65 678 65 700 c 0,2,3
 65 721 65 721 91 721 c 2,4,-1
 336 721 l 2,5,6
 365 721 365 721 365 698 c 0,7,8
 365 678 365 678 336 678 c 2,9,-1
 91 678 l 2,0,1
EndSplineSet
EndChar

StartChar: degree
Encoding: 176 176 113
Width: 394
GlyphClass: 2
Flags: W
LayerCount: 2
Fore
SplineSet
95 535 m 0,0,1
 95 492 95 492 125 462 c 128,-1,2
 155 432 155 432 197 432 c 0,3,4
 240 432 240 432 270 462 c 128,-1,5
 300 492 300 492 300 535 c 0,6,7
 300 577 300 577 270 607 c 128,-1,8
 240 637 240 637 197 637 c 0,9,10
 155 637 155 637 125 607 c 128,-1,11
 95 577 95 577 95 535 c 0,0,1
54 535 m 128,-1,13
 54 594 54 594 96 636 c 128,-1,14
 138 678 138 678 197 678 c 128,-1,15
 256 678 256 678 298.5 636 c 128,-1,16
 341 594 341 594 341 535 c 128,-1,17
 341 476 341 476 298.5 433.5 c 128,-1,18
 256 391 256 391 197 391 c 128,-1,19
 138 391 138 391 96 433.5 c 128,-1,12
 54 476 54 476 54 535 c 128,-1,13
EndSplineSet
EndChar

StartChar: plusminus
Encoding: 177 177 114
Width: 573
GlyphClass: 2
Flags: W
LayerCount: 2
Fore
SplineSet
474 43 m 2,0,1
 503 43 503 43 503 20 c 0,2,3
 503 0 503 0 474 0 c 2,4,-1
 96 0 l 2,5,6
 70 0 70 0 70 23 c 0,7,8
 70 43 70 43 96 43 c 2,9,-1
 474 43 l 2,0,1
307 143 m 2,10,11
 307 116 307 116 286 116 c 128,-1,12
 265 116 265 116 265 143 c 2,13,-1
 265 270 l 1,14,-1
 96 270 l 2,15,16
 70 270 70 270 70 293 c 0,17,18
 70 313 70 313 96 313 c 2,19,-1
 265 313 l 1,20,-1
 265 440 l 2,21,22
 265 468 265 468 287 468 c 0,23,24
 307 468 307 468 307 440 c 2,25,-1
 307 313 l 1,26,-1
 474 313 l 2,27,28
 503 313 503 313 503 291 c 0,29,30
 503 270 503 270 474 270 c 2,31,-1
 307 270 l 1,32,-1
 307 143 l 2,10,11
EndSplineSet
EndChar

StartChar: twosuperior
Encoding: 178 178 115
Width: 310
GlyphClass: 2
Flags: W
LayerCount: 2
Fore
SplineSet
266 682 m 0,0,1
 266 654 266 654 236.5 629.5 c 128,-1,2
 207 605 207 605 172 589 c 128,-1,3
 137 573 137 573 107.5 547.5 c 128,-1,4
 78 522 78 522 78 494 c 1,5,-1
 244 494 l 2,6,7
 252 494 252 494 259 488.5 c 128,-1,8
 266 483 266 483 266 477 c 0,9,10
 266 472 266 472 259 466.5 c 128,-1,11
 252 461 252 461 244 461 c 2,12,-1
 41 461 l 1,13,-1
 41 483 l 2,14,15
 41 518 41 518 61 545.5 c 128,-1,16
 81 573 81 573 109 590 c 128,-1,17
 137 607 137 607 165 621 c 128,-1,18
 193 635 193 635 213 650 c 128,-1,19
 233 665 233 665 233 682 c 0,20,21
 233 717 233 717 215 725.5 c 128,-1,22
 197 734 197 734 146 734 c 2,23,-1
 120 734 l 2,24,25
 77 734 77 734 77 703 c 0,26,27
 77 696 77 696 71.5 690.5 c 128,-1,28
 66 685 66 685 59 685 c 0,29,30
 53 685 53 685 47 690.5 c 128,-1,31
 41 696 41 696 41 703 c 0,32,33
 41 730 41 730 63.5 748.5 c 128,-1,34
 86 767 86 767 116 767 c 2,35,-1
 146 767 l 2,36,37
 207 767 207 767 236.5 751 c 128,-1,38
 266 735 266 735 266 682 c 0,0,1
EndSplineSet
EndChar

StartChar: threesuperior
Encoding: 179 179 116
Width: 280
GlyphClass: 2
Flags: W
LayerCount: 2
Fore
SplineSet
143 734 m 2,0,-1
 131 734 l 2,1,2
 108 734 108 734 87 725.5 c 128,-1,3
 66 717 66 717 66 701 c 0,4,5
 66 688 66 688 47 688 c 0,6,7
 30 688 30 688 30 703 c 0,8,9
 30 724 30 724 56.5 745.5 c 128,-1,10
 83 767 83 767 127 767 c 2,11,-1
 139 767 l 2,12,13
 196 767 196 767 219.5 748 c 128,-1,14
 243 729 243 729 243 684 c 0,15,16
 243 660 243 660 218 641 c 128,-1,17
 193 622 193 622 173 618 c 1,18,19
 194 615 194 615 218.5 592.5 c 128,-1,20
 243 570 243 570 243 540 c 0,21,22
 243 498 243 498 219.5 479.5 c 128,-1,23
 196 461 196 461 139 461 c 2,24,-1
 127 461 l 2,25,26
 83 461 83 461 56.5 482.5 c 128,-1,27
 30 504 30 504 30 525 c 0,28,29
 30 540 30 540 47 540 c 0,30,31
 66 540 66 540 66 527 c 0,32,33
 66 511 66 511 87 502.5 c 128,-1,34
 108 494 108 494 131 494 c 2,35,-1
 143 494 l 2,36,37
 166 494 166 494 180.5 497.5 c 128,-1,38
 195 501 195 501 201 508.5 c 128,-1,39
 207 516 207 516 209 523 c 128,-1,40
 211 530 211 530 211 541 c 0,41,42
 211 565 211 565 180.5 583 c 128,-1,43
 150 601 150 601 119 601 c 0,44,45
 101 601 101 601 101 618 c 0,46,47
 101 634 101 634 119 634 c 0,48,49
 151 634 151 634 181 649 c 128,-1,50
 211 664 211 664 211 687 c 0,51,52
 211 698 211 698 209 705 c 128,-1,53
 207 712 207 712 201 719.5 c 128,-1,54
 195 727 195 727 180.5 730.5 c 128,-1,55
 166 734 166 734 143 734 c 2,0,-1
EndSplineSet
EndChar

StartChar: acute
Encoding: 180 180 117
Width: 212
GlyphClass: 2
Flags: W
LayerCount: 2
Fore
SplineSet
179 657 m 0,0,1
 179 647 179 647 171 638 c 2,2,-1
 75 523 l 2,3,4
 63 510 63 510 54 510 c 0,5,6
 47 510 47 510 40.5 516 c 128,-1,7
 34 522 34 522 34 530 c 0,8,9
 34 541 34 541 42 550 c 2,10,-1
 138 665 l 2,11,12
 150 678 150 678 159 678 c 0,13,14
 166 678 166 678 172.5 672 c 128,-1,15
 179 666 179 666 179 657 c 0,0,1
EndSplineSet
EndChar

StartChar: paragraph
Encoding: 182 182 119
Width: 447
GlyphClass: 2
Flags: W
LayerCount: 2
Fore
SplineSet
358 20 m 2,0,1
 358 -7 358 -7 338 -7 c 0,2,3
 316 -7 316 -7 316 20 c 2,4,-1
 316 594 l 1,5,-1
 285 594 l 1,6,-1
 285 20 l 2,7,8
 285 -7 285 -7 265 -7 c 0,9,10
 243 -7 243 -7 243 20 c 2,11,-1
 243 337 l 1,12,-1
 201 337 l 2,13,14
 123 337 123 337 79.5 375 c 128,-1,15
 36 413 36 413 36 486 c 0,16,17
 36 572 36 572 88 604 c 128,-1,18
 140 636 140 636 243 636 c 2,19,-1
 358 636 l 1,20,-1
 358 20 l 2,0,1
EndSplineSet
EndChar

StartChar: periodcentered
Encoding: 183 183 120
Width: 232
GlyphClass: 2
Flags: W
LayerCount: 2
Fore
SplineSet
70 387 m 128,-1,1
 70 401 70 401 85 412 c 128,-1,2
 100 423 100 423 116 423 c 0,3,4
 131 423 131 423 146.5 412 c 128,-1,5
 162 401 162 401 162 387 c 128,-1,6
 162 373 162 373 146.5 362 c 128,-1,7
 131 351 131 351 116 351 c 0,8,9
 100 351 100 351 85 362 c 128,-1,0
 70 373 70 373 70 387 c 128,-1,1
EndSplineSet
EndChar

StartChar: cedilla
Encoding: 184 184 121
Width: 242
GlyphClass: 2
Flags: W
LayerCount: 2
Fore
SplineSet
42 -120 m 0,0,1
 42 -107 42 -107 52 -107 c 0,2,3
 55 -107 55 -107 78 -116 c 128,-1,4
 101 -125 101 -125 118 -125 c 0,5,6
 165 -125 165 -125 165 -94 c 0,7,8
 165 -82 165 -82 154 -70.5 c 128,-1,9
 143 -59 143 -59 130.5 -51 c 128,-1,10
 118 -43 118 -43 107 -25.5 c 128,-1,11
 96 -8 96 -8 96 15 c 1,12,-1
 138 15 l 1,13,14
 138 -3 138 -3 149 -16 c 128,-1,15
 160 -29 160 -29 172.5 -36 c 128,-1,16
 185 -43 185 -43 196 -56.5 c 128,-1,17
 207 -70 207 -70 207 -89 c 0,18,19
 207 -122 207 -122 181 -143.5 c 128,-1,20
 155 -165 155 -165 116 -165 c 0,21,22
 93 -165 93 -165 67.5 -154.5 c 128,-1,23
 42 -144 42 -144 42 -120 c 0,0,1
EndSplineSet
EndChar

StartChar: onesuperior
Encoding: 185 185 122
Width: 138
GlyphClass: 2
Flags: W
LayerCount: 2
Fore
SplineSet
52 715 m 1,0,-1
 25 688 l 2,1,2
 16 678 16 678 5 678 c 0,3,4
 -10 678 -10 678 -10 692 c 0,5,6
 -10 701 -10 701 0 710 c 2,7,-1
 49 760 l 2,8,9
 59 770 59 770 68 770 c 0,10,11
 86 770 86 770 86 751 c 2,12,-1
 86 480 l 2,13,14
 86 458 86 458 69 458 c 128,-1,15
 52 458 52 458 52 480 c 2,16,-1
 52 715 l 1,0,-1
EndSplineSet
EndChar

StartChar: ordmasculine
Encoding: 186 186 123
Width: 376
GlyphClass: 2
Flags: W
LayerCount: 2
Fore
SplineSet
183 280 m 2,0,-1
 192 280 l 2,1,2
 228 280 228 280 240 289 c 128,-1,3
 252 298 252 298 252 333 c 2,4,-1
 252 377 l 2,5,6
 252 412 252 412 240 421 c 128,-1,7
 228 430 228 430 192 430 c 2,8,-1
 183 430 l 2,9,10
 147 430 147 430 135.5 421 c 128,-1,11
 124 412 124 412 124 377 c 2,12,-1
 124 333 l 2,13,14
 124 298 124 298 135.5 289 c 128,-1,15
 147 280 147 280 183 280 c 2,0,-1
192 249 m 2,16,-1
 183 249 l 2,17,18
 132 249 132 249 112.5 266 c 128,-1,19
 93 283 93 283 93 333 c 2,20,-1
 93 377 l 2,21,22
 93 426 93 426 112.5 443.5 c 128,-1,23
 132 461 132 461 183 461 c 2,24,-1
 192 461 l 2,25,26
 244 461 244 461 263.5 443.5 c 128,-1,27
 283 426 283 426 283 377 c 2,28,-1
 283 333 l 2,29,30
 283 283 283 283 263.5 266 c 128,-1,31
 244 249 244 249 192 249 c 2,16,-1
89 164 m 2,32,33
 68 164 68 164 68 182 c 0,34,35
 68 199 68 199 89 199 c 2,36,-1
 285 199 l 2,37,38
 308 199 308 199 308 180 c 0,39,40
 308 164 308 164 285 164 c 2,41,-1
 89 164 l 2,32,33
EndSplineSet
EndChar

StartChar: guillemotright
Encoding: 187 187 124
Width: 484
GlyphClass: 2
Flags: W
LayerCount: 2
Fore
SplineSet
74 178 m 2,0,-1
 232 333 l 1,1,-1
 74 486 l 1,2,3
 61 500 61 500 61 514 c 128,-1,4
 61 528 61 528 76 528 c 0,5,6
 90 528 90 528 95 523 c 2,7,-1
 278 354 l 2,8,9
 294 340 294 340 294 333 c 0,10,11
 294 324 294 324 278 310 c 2,12,-1
 95 141 l 2,13,14
 89 135 89 135 76 135 c 0,15,16
 61 135 61 135 61 150 c 128,-1,17
 61 165 61 165 74 178 c 2,0,-1
228 178 m 2,18,-1
 386 333 l 1,19,-1
 228 486 l 1,20,21
 215 500 215 500 215 514 c 128,-1,22
 215 528 215 528 230 528 c 0,23,24
 244 528 244 528 249 523 c 2,25,-1
 432 354 l 2,26,27
 448 340 448 340 448 333 c 0,28,29
 448 324 448 324 432 310 c 2,30,-1
 249 141 l 2,31,32
 243 135 243 135 230 135 c 0,33,34
 215 135 215 135 215 150 c 128,-1,35
 215 165 215 165 228 178 c 2,18,-1
EndSplineSet
EndChar

StartChar: onequarter
Encoding: 188 188 125
Width: 579
GlyphClass: 2
Flags: W
LayerCount: 2
Fore
SplineSet
517 100 m 2,0,-1
 468 100 l 1,1,-1
 468 18 l 2,2,3
 468 -4 468 -4 451 -4 c 128,-1,4
 434 -4 434 -4 434 18 c 2,5,-1
 434 100 l 1,6,-1
 302 100 l 1,7,-1
 302 145 l 1,8,-1
 422 305 l 1,9,-1
 468 305 l 1,10,-1
 468 133 l 1,11,-1
 517 133 l 2,12,13
 538 133 538 133 538 117 c 0,14,15
 538 100 538 100 517 100 c 2,0,-1
434 133 m 1,16,-1
 434 271 l 1,17,-1
 331 133 l 1,18,-1
 434 133 l 1,16,-1
481 534 m 0,19,20
 496 534 496 534 496 519 c 0,21,22
 496 511 496 511 485 498 c 1,23,-1
 76 89 l 2,24,25
 65 78 65 78 55 78 c 0,26,27
 40 78 40 78 40 93 c 0,28,29
 40 103 40 103 51 114 c 2,30,-1
 460 523 l 1,31,32
 473 534 473 534 481 534 c 0,19,20
159 581 m 1,33,-1
 132 554 l 2,34,35
 123 544 123 544 112 544 c 0,36,37
 97 544 97 544 97 558 c 0,38,39
 97 567 97 567 107 576 c 2,40,-1
 156 626 l 2,41,42
 166 636 166 636 175 636 c 0,43,44
 193 636 193 636 193 617 c 2,45,-1
 193 346 l 2,46,47
 193 324 193 324 176 324 c 128,-1,48
 159 324 159 324 159 346 c 2,49,-1
 159 581 l 1,33,-1
EndSplineSet
EndChar

StartChar: onehalf
Encoding: 189 189 126
Width: 602
GlyphClass: 2
Flags: W
LayerCount: 2
Fore
SplineSet
159 581 m 1,0,-1
 132 554 l 2,1,2
 123 544 123 544 112 544 c 0,3,4
 97 544 97 544 97 558 c 0,5,6
 97 567 97 567 107 576 c 2,7,-1
 156 626 l 2,8,9
 166 636 166 636 175 636 c 0,10,11
 193 636 193 636 193 617 c 2,12,-1
 193 346 l 2,13,14
 193 324 193 324 176 324 c 128,-1,15
 159 324 159 324 159 346 c 2,16,-1
 159 581 l 1,0,-1
549 220 m 0,17,18
 549 192 549 192 519.5 167.5 c 128,-1,19
 490 143 490 143 455 127 c 128,-1,20
 420 111 420 111 390.5 85.5 c 128,-1,21
 361 60 361 60 361 32 c 1,22,-1
 527 32 l 2,23,24
 535 32 535 32 542 26.5 c 128,-1,25
 549 21 549 21 549 15 c 0,26,27
 549 10 549 10 542 4.5 c 128,-1,28
 535 -1 535 -1 527 -1 c 2,29,-1
 324 -1 l 1,30,-1
 324 21 l 2,31,32
 324 56 324 56 344 83.5 c 128,-1,33
 364 111 364 111 392 128 c 128,-1,34
 420 145 420 145 448 159 c 128,-1,35
 476 173 476 173 496 188 c 128,-1,36
 516 203 516 203 516 220 c 0,37,38
 516 255 516 255 498 263.5 c 128,-1,39
 480 272 480 272 429 272 c 2,40,-1
 403 272 l 2,41,42
 360 272 360 272 360 241 c 0,43,44
 360 234 360 234 354.5 228.5 c 128,-1,45
 349 223 349 223 342 223 c 0,46,47
 336 223 336 223 330 228.5 c 128,-1,48
 324 234 324 234 324 241 c 0,49,50
 324 268 324 268 346.5 286.5 c 128,-1,51
 369 305 369 305 399 305 c 2,52,-1
 429 305 l 2,53,54
 490 305 490 305 519.5 289 c 128,-1,55
 549 273 549 273 549 220 c 0,17,18
481 534 m 0,56,57
 496 534 496 534 496 519 c 0,58,59
 496 511 496 511 485 498 c 1,60,-1
 76 89 l 2,61,62
 65 78 65 78 55 78 c 0,63,64
 40 78 40 78 40 93 c 0,65,66
 40 103 40 103 51 114 c 2,67,-1
 460 523 l 1,68,69
 473 534 473 534 481 534 c 0,56,57
EndSplineSet
EndChar

StartChar: threequarters
Encoding: 190 190 127
Width: 622
GlyphClass: 2
Flags: W
LayerCount: 2
Fore
SplineSet
179 603 m 2,0,-1
 167 603 l 2,1,2
 144 603 144 603 123 594.5 c 128,-1,3
 102 586 102 586 102 570 c 0,4,5
 102 557 102 557 83 557 c 0,6,7
 66 557 66 557 66 572 c 0,8,9
 66 593 66 593 92.5 614.5 c 128,-1,10
 119 636 119 636 163 636 c 2,11,-1
 175 636 l 2,12,13
 232 636 232 636 255.5 617 c 128,-1,14
 279 598 279 598 279 553 c 0,15,16
 279 529 279 529 254 510 c 128,-1,17
 229 491 229 491 209 487 c 1,18,19
 230 484 230 484 254.5 461.5 c 128,-1,20
 279 439 279 439 279 409 c 0,21,22
 279 367 279 367 255.5 348.5 c 128,-1,23
 232 330 232 330 175 330 c 2,24,-1
 163 330 l 2,25,26
 119 330 119 330 92.5 351.5 c 128,-1,27
 66 373 66 373 66 394 c 0,28,29
 66 409 66 409 83 409 c 0,30,31
 102 409 102 409 102 396 c 0,32,33
 102 380 102 380 123 371.5 c 128,-1,34
 144 363 144 363 167 363 c 2,35,-1
 179 363 l 2,36,37
 202 363 202 363 216.5 366.5 c 128,-1,38
 231 370 231 370 237 377.5 c 128,-1,39
 243 385 243 385 245 392 c 128,-1,40
 247 399 247 399 247 410 c 0,41,42
 247 434 247 434 216.5 452 c 128,-1,43
 186 470 186 470 155 470 c 0,44,45
 137 470 137 470 137 487 c 0,46,47
 137 503 137 503 155 503 c 0,48,49
 187 503 187 503 217 518 c 128,-1,50
 247 533 247 533 247 556 c 0,51,52
 247 567 247 567 245 574 c 128,-1,53
 243 581 243 581 237 588.5 c 128,-1,54
 231 596 231 596 216.5 599.5 c 128,-1,55
 202 603 202 603 179 603 c 2,0,-1
531 534 m 0,56,57
 546 534 546 534 546 519 c 0,58,59
 546 511 546 511 535 498 c 1,60,-1
 126 89 l 2,61,62
 115 78 115 78 105 78 c 0,63,64
 90 78 90 78 90 93 c 0,65,66
 90 103 90 103 101 114 c 2,67,-1
 510 523 l 1,68,69
 523 534 523 534 531 534 c 0,56,57
558 100 m 2,70,-1
 509 100 l 1,71,-1
 509 18 l 2,72,73
 509 -4 509 -4 492 -4 c 128,-1,74
 475 -4 475 -4 475 18 c 2,75,-1
 475 100 l 1,76,-1
 343 100 l 1,77,-1
 343 145 l 1,78,-1
 463 305 l 1,79,-1
 509 305 l 1,80,-1
 509 133 l 1,81,-1
 558 133 l 2,82,83
 579 133 579 133 579 117 c 0,84,85
 579 100 579 100 558 100 c 2,70,-1
475 133 m 1,86,-1
 475 271 l 1,87,-1
 372 133 l 1,88,-1
 475 133 l 1,86,-1
EndSplineSet
EndChar

StartChar: questiondown
Encoding: 191 191 128
Width: 520
GlyphClass: 2
Flags: W
LayerCount: 2
Fore
SplineSet
324 450 m 128,-1,1
 324 436 324 436 308.5 425 c 128,-1,2
 293 414 293 414 278 414 c 0,3,4
 262 414 262 414 246.5 425 c 128,-1,5
 231 436 231 436 231 450 c 128,-1,6
 231 464 231 464 246.5 475 c 128,-1,7
 262 486 262 486 278 486 c 0,8,9
 293 486 293 486 308.5 475 c 128,-1,0
 324 464 324 464 324 450 c 128,-1,1
256 176 m 1,10,-1
 256 285 l 2,11,12
 256 313 256 313 278 313 c 0,13,14
 298 313 298 313 298 285 c 2,15,-1
 298 145 l 1,16,-1
 145 103 l 2,17,18
 118 95 118 95 99.5 65.5 c 128,-1,19
 81 36 81 36 81 -5 c 0,20,21
 81 -49 81 -49 105.5 -86 c 128,-1,22
 130 -123 130 -123 183 -123 c 2,23,-1
 277 -123 l 2,24,25
 325 -123 325 -123 351 -119.5 c 128,-1,26
 377 -116 377 -116 400.5 -103.5 c 128,-1,27
 424 -91 424 -91 433 -64 c 128,-1,28
 442 -37 442 -37 442 8 c 0,29,30
 442 36 442 36 463 36 c 0,31,32
 485 36 485 36 485 8 c 0,33,34
 485 -47 485 -47 471 -82.5 c 128,-1,35
 457 -118 457 -118 427 -135.5 c 128,-1,36
 397 -153 397 -153 363 -159 c 128,-1,37
 329 -165 329 -165 277 -165 c 2,38,-1
 201 -165 l 2,39,40
 115 -165 115 -165 77 -118 c 128,-1,41
 39 -71 39 -71 39 -5 c 128,-1,42
 39 61 39 61 67 96 c 128,-1,43
 95 131 95 131 163 150 c 2,44,-1
 256 176 l 1,10,-1
EndSplineSet
EndChar

StartChar: AE
Encoding: 198 198 135
Width: 846
GlyphClass: 2
Flags: W
AnchorPoint: "Anchor-1" 421 0 basechar 0
AnchorPoint: "Anchor-0" 420 678 basechar 0
LayerCount: 2
Fore
SplineSet
435 337 m 1,0,-1
 435 42 l 1,1,-1
 769 42 l 2,2,3
 798 42 798 42 798 19 c 0,4,5
 798 0 798 0 769 0 c 2,6,-1
 413 0 l 2,7,8
 394 0 394 0 394 31 c 2,9,-1
 394 204 l 1,10,-1
 175 204 l 1,11,-1
 52 5 l 2,12,13
 39 -16 39 -16 23 -16 c 0,14,15
 8 -16 8 -16 8 -3 c 0,16,17
 8 7 8 7 15 18 c 2,18,-1
 398 628 l 2,19,20
 403 636 403 636 413 636 c 2,21,-1
 769 636 l 2,22,23
 798 636 798 636 798 613 c 0,24,25
 798 594 798 594 769 594 c 2,26,-1
 435 594 l 1,27,-1
 435 379 l 1,28,-1
 650 379 l 2,29,30
 681 379 681 379 681 356 c 0,31,32
 681 337 681 337 650 337 c 2,33,-1
 435 337 l 1,0,-1
394 246 m 1,34,-1
 394 550 l 1,35,-1
 203 246 l 1,36,-1
 394 246 l 1,34,-1
EndSplineSet
EndChar

StartChar: Ccedilla
Encoding: 199 199 136
Width: 572
GlyphClass: 2
Flags: W
LayerCount: 2
Fore
SplineSet
220 -120 m 0,0,1
 220 -107 220 -107 230 -107 c 0,2,3
 233 -107 233 -107 256 -116 c 128,-1,4
 279 -125 279 -125 296 -125 c 0,5,6
 343 -125 343 -125 343 -94 c 0,7,8
 343 -80 343 -80 328 -67.5 c 128,-1,9
 313 -55 313 -55 296 -39 c 128,-1,10
 279 -23 279 -23 275 0 c 1,11,12
 172 1 172 1 122 36 c 128,-1,13
 72 71 72 71 72 175 c 2,14,-1
 72 461 l 2,15,16
 72 566 72 566 123 601 c 128,-1,17
 174 636 174 636 280 636 c 2,18,-1
 421 636 l 2,19,20
 452 636 452 636 472.5 627 c 128,-1,21
 493 618 493 618 501.5 601 c 128,-1,22
 510 584 510 584 513 568 c 128,-1,23
 516 552 516 552 516 529 c 0,24,25
 516 499 516 499 495 499 c 128,-1,26
 474 499 474 499 474 527 c 0,27,28
 474 563 474 563 461 578.5 c 128,-1,29
 448 594 448 594 414 594 c 2,30,-1
 280 594 l 2,31,32
 232 594 232 594 205.5 590.5 c 128,-1,33
 179 587 179 587 156 573.5 c 128,-1,34
 133 560 133 560 123.5 533 c 128,-1,35
 114 506 114 506 114 461 c 2,36,-1
 114 175 l 2,37,38
 114 130 114 130 123.5 103 c 128,-1,39
 133 76 133 76 156 62.5 c 128,-1,40
 179 49 179 49 205.5 45.5 c 128,-1,41
 232 42 232 42 280 42 c 2,42,-1
 414 42 l 2,43,44
 448 42 448 42 461 57 c 128,-1,45
 474 72 474 72 474 109 c 0,46,47
 474 137 474 137 495 137 c 128,-1,48
 516 137 516 137 516 106 c 0,49,50
 516 84 516 84 513 68 c 128,-1,51
 510 52 510 52 501.5 35 c 128,-1,52
 493 18 493 18 472.5 9 c 128,-1,53
 452 0 452 0 421 0 c 2,54,-1
 318 0 l 1,55,56
 322 -15 322 -15 339.5 -27.5 c 128,-1,57
 357 -40 357 -40 371 -54 c 128,-1,58
 385 -68 385 -68 385 -89 c 0,59,60
 385 -122 385 -122 359 -143.5 c 128,-1,61
 333 -165 333 -165 294 -165 c 0,62,63
 271 -165 271 -165 245.5 -154.5 c 128,-1,64
 220 -144 220 -144 220 -120 c 0,0,1
EndSplineSet
EndChar

StartChar: Eth
Encoding: 208 208 145
Width: 600
GlyphClass: 2
Flags: W
LayerCount: 2
Fore
SplineSet
76 303 m 2,0,1
 49 303 49 303 49 326 c 0,2,3
 49 346 49 346 76 346 c 2,4,-1
 84 346 l 1,5,-1
 84 605 l 2,6,7
 84 636 84 636 103 636 c 2,8,-1
 321 636 l 2,9,10
 426 636 426 636 477 601 c 128,-1,11
 528 566 528 566 528 461 c 2,12,-1
 528 175 l 2,13,14
 528 70 528 70 477 35 c 128,-1,15
 426 0 426 0 321 0 c 2,16,-1
 103 0 l 2,17,18
 84 0 84 0 84 31 c 2,19,-1
 84 303 l 1,20,-1
 76 303 l 2,0,1
486 175 m 2,21,-1
 486 461 l 2,22,23
 486 506 486 506 476.5 533 c 128,-1,24
 467 560 467 560 444 573.5 c 128,-1,25
 421 587 421 587 394.5 590.5 c 128,-1,26
 368 594 368 594 321 594 c 2,27,-1
 126 594 l 1,28,-1
 126 346 l 1,29,-1
 232 346 l 2,30,31
 261 346 261 346 261 324 c 0,32,33
 261 303 261 303 232 303 c 2,34,-1
 126 303 l 1,35,-1
 126 42 l 1,36,-1
 321 42 l 2,37,38
 368 42 368 42 394.5 45.5 c 128,-1,39
 421 49 421 49 444 62.5 c 128,-1,40
 467 76 467 76 476.5 103 c 128,-1,41
 486 130 486 130 486 175 c 2,21,-1
EndSplineSet
EndChar

StartChar: multiply
Encoding: 215 215 152
Width: 491
GlyphClass: 2
Flags: W
LayerCount: 2
Fore
SplineSet
71 384 m 0,0,1
 71 391 71 391 77.5 397.5 c 128,-1,2
 84 404 84 404 91 404 c 0,3,4
 100 404 100 404 111 393 c 2,5,-1
 246 260 l 1,6,-1
 379 393 l 2,7,8
 390 404 390 404 400 404 c 0,9,10
 406 404 406 404 413 398.5 c 128,-1,11
 420 393 420 393 420 385 c 0,12,13
 420 374 420 374 408 364 c 1,14,-1
 275 230 l 1,15,-1
 408 97 l 2,16,17
 420 86 420 86 420 77 c 0,18,19
 420 70 420 70 413 63 c 128,-1,20
 406 56 406 56 399 56 c 0,21,22
 390 56 390 56 379 68 c 2,23,-1
 246 201 l 1,24,-1
 111 68 l 2,25,26
 100 56 100 56 90 56 c 0,27,28
 84 56 84 56 77.5 61.5 c 128,-1,29
 71 67 71 67 71 76 c 0,30,31
 71 86 71 86 82 97 c 2,32,-1
 215 230 l 1,33,-1
 82 364 l 2,34,35
 71 375 71 375 71 384 c 0,0,1
EndSplineSet
EndChar

StartChar: Oslash
Encoding: 216 216 153
Width: 574
GlyphClass: 2
Flags: W
LayerCount: 2
Fore
SplineSet
287 603 m 0,0,1
 203 603 203 603 155 551.5 c 128,-1,2
 107 500 107 500 107 409 c 2,3,-1
 107 227 l 2,4,5
 107 151 107 151 140 103 c 1,6,-1
 406 564 l 1,7,8
 360 603 360 603 287 603 c 0,0,1
460 638 m 0,9,10
 463 638 463 638 467.5 636.5 c 128,-1,11
 472 635 472 635 476.5 630 c 128,-1,12
 481 625 481 625 481 618 c 0,13,14
 481 612 481 612 476 600 c 1,15,-1
 457 570 l 1,16,17
 509 507 509 507 509 409 c 2,18,-1
 509 227 l 2,19,20
 509 117 509 117 446.5 54 c 128,-1,21
 384 -9 384 -9 287 -9 c 0,22,23
 205 -9 205 -9 149 35 c 1,24,-1
 137 14 l 2,25,26
 128 -2 128 -2 115 -2 c 0,27,28
 110 -2 110 -2 102.5 2.5 c 128,-1,29
 95 7 95 7 95 17 c 0,30,31
 95 24 95 24 100 36 c 1,32,-1
 117 65 l 1,33,34
 65 126 65 126 65 227 c 2,35,-1
 65 409 l 2,36,37
 65 519 65 519 127.5 582 c 128,-1,38
 190 645 190 645 287 645 c 0,39,40
 370 645 370 645 426 600 c 1,41,-1
 439 622 l 2,42,43
 448 638 448 638 460 638 c 0,9,10
435 531 m 1,44,-1
 169 71 l 1,45,46
 215 33 215 33 287 33 c 0,47,48
 371 33 371 33 419 84.5 c 128,-1,49
 467 136 467 136 467 227 c 2,50,-1
 467 409 l 2,51,52
 467 484 467 484 435 531 c 1,44,-1
EndSplineSet
EndChar

StartChar: Thorn
Encoding: 222 222 159
Width: 500
GlyphClass: 2
Flags: W
LayerCount: 2
Fore
SplineSet
126 461 m 1,0,-1
 299 461 l 2,1,2
 377 461 377 461 421 423 c 128,-1,3
 465 385 465 385 465 311 c 0,4,5
 465 238 465 238 420.5 199.5 c 128,-1,6
 376 161 376 161 298 161 c 2,7,-1
 126 161 l 1,8,-1
 126 20 l 2,9,10
 126 -7 126 -7 104 -7 c 0,11,12
 84 -7 84 -7 84 20 c 2,13,-1
 84 573 l 2,14,15
 84 601 84 601 105 601 c 128,-1,16
 126 601 126 601 126 573 c 2,17,-1
 126 461 l 1,0,-1
126 419 m 1,18,-1
 126 203 l 1,19,-1
 256 203 l 2,20,21
 347 203 347 203 384 223.5 c 128,-1,22
 421 244 421 244 422 310 c 0,23,24
 422 376 422 376 384.5 397.5 c 128,-1,25
 347 419 347 419 257 419 c 2,26,-1
 126 419 l 1,18,-1
EndSplineSet
EndChar

StartChar: germandbls
Encoding: 223 223 160
Width: 442
GlyphClass: 2
Flags: W
LayerCount: 2
Fore
SplineSet
161 360 m 1,0,-1
 161 402 l 1,1,2
 221 402 221 402 258 433 c 128,-1,3
 295 464 295 464 295 527 c 0,4,5
 295 557 295 557 273.5 575.5 c 128,-1,6
 252 594 252 594 214 594 c 0,7,8
 187 594 187 594 170 590 c 128,-1,9
 153 586 153 586 136 573.5 c 128,-1,10
 119 561 119 561 111.5 533 c 128,-1,11
 104 505 104 505 104 461 c 2,12,-1
 104 24 l 2,13,14
 104 -7 104 -7 81 -7 c 0,15,16
 62 -7 62 -7 62 24 c 2,17,-1
 62 419 l 1,18,19
 31 419 31 419 31 441 c 0,20,21
 31 461 31 461 62 461 c 1,22,23
 62 516 62 516 75.5 552.5 c 128,-1,24
 89 589 89 589 113 606 c 128,-1,25
 137 623 137 623 160.5 629.5 c 128,-1,26
 184 636 184 636 214 636 c 0,27,28
 273 636 273 636 305 603 c 128,-1,29
 337 570 337 570 337 525 c 0,30,31
 337 431 337 431 257 384 c 1,32,33
 405 346 405 346 405 195 c 0,34,35
 405 134 405 134 392 89.5 c 128,-1,36
 379 45 379 45 356.5 22.5 c 128,-1,37
 334 0 334 0 310.5 -10 c 128,-1,38
 287 -20 287 -20 261 -20 c 0,39,40
 221 -20 221 -20 186 7.5 c 128,-1,41
 151 35 151 35 151 86 c 0,42,43
 151 117 151 117 172 117 c 128,-1,44
 193 117 193 117 193 88 c 0,45,46
 193 54 193 54 215.5 38 c 128,-1,47
 238 22 238 22 269 22 c 0,48,49
 306 22 306 22 334.5 59 c 128,-1,50
 363 96 363 96 363 195 c 0,51,52
 363 266 363 266 310.5 313 c 128,-1,53
 258 360 258 360 161 360 c 1,0,-1
EndSplineSet
EndChar

StartChar: ae
Encoding: 230 230 167
Width: 924
GlyphClass: 2
Flags: W
AnchorPoint: "Anchor-1" 453 0 basechar 0
AnchorPoint: "Anchor-0" 453 510 basechar 0
LayerCount: 2
Fore
SplineSet
276 253 m 2,0,1
 180 253 180 253 141 225.5 c 128,-1,2
 102 198 102 198 102 113 c 0,3,4
 102 85 102 85 120.5 63.5 c 128,-1,5
 139 42 139 42 162 42 c 2,6,-1
 254 42 l 2,7,8
 337 42 337 42 381.5 93 c 128,-1,9
 426 144 426 144 426 233 c 2,10,-1
 426 253 l 1,11,-1
 276 253 l 2,0,1
822 295 m 1,12,13
 821 371 821 371 785.5 395 c 128,-1,14
 750 419 750 419 649 419 c 2,15,-1
 641 419 l 2,16,17
 539 419 539 419 504 395.5 c 128,-1,18
 469 372 469 372 468 295 c 1,19,-1
 822 295 l 1,12,13
460 410 m 1,20,21
 476 426 476 426 489 434.5 c 128,-1,22
 502 443 502 443 542 452 c 128,-1,23
 582 461 582 461 641 461 c 2,24,-1
 649 461 l 2,25,26
 763 461 763 461 813.5 426 c 128,-1,27
 864 391 864 391 864 290 c 2,28,-1
 864 253 l 1,29,-1
 468 253 l 1,30,-1
 468 172 l 2,31,32
 468 127 468 127 477 101 c 128,-1,33
 486 75 486 75 510.5 62 c 128,-1,34
 535 49 535 49 562.5 45.5 c 128,-1,35
 590 42 590 42 641 42 c 2,36,-1
 762 42 l 2,37,38
 797 42 797 42 809.5 57.5 c 128,-1,39
 822 73 822 73 822 109 c 0,40,41
 822 137 822 137 843 137 c 128,-1,42
 864 137 864 137 864 106 c 0,43,44
 864 55 864 55 844.5 27.5 c 128,-1,45
 825 0 825 0 769 0 c 2,46,-1
 641 0 l 2,47,48
 586 0 586 0 548.5 6.5 c 128,-1,49
 511 13 511 13 490 26.5 c 128,-1,50
 469 40 469 40 459.5 51.5 c 128,-1,51
 450 63 450 63 440 82 c 1,52,-1
 435 76 l 1,53,54
 410 41 410 41 356 20.5 c 128,-1,55
 302 0 302 0 254 0 c 2,56,-1
 162 0 l 2,57,58
 118 0 118 0 89 32 c 128,-1,59
 60 64 60 64 60 118 c 0,60,61
 60 218 60 218 114.5 256.5 c 128,-1,62
 169 295 169 295 276 295 c 2,63,-1
 426 295 l 1,64,-1
 426 357 l 2,65,66
 426 390 426 390 413.5 404.5 c 128,-1,67
 401 419 401 419 367 419 c 2,68,-1
 228 419 l 2,69,70
 102 419 102 419 102 354 c 0,71,72
 102 324 102 324 80 324 c 0,73,74
 60 324 60 324 60 354 c 0,75,76
 60 394 60 394 86 419.5 c 128,-1,77
 112 445 112 445 145.5 453 c 128,-1,78
 179 461 179 461 221 461 c 2,79,-1
 374 461 l 2,80,81
 398 461 398 461 414.5 456.5 c 128,-1,82
 431 452 431 452 440 442.5 c 128,-1,83
 449 433 449 433 452 427.5 c 128,-1,84
 455 422 455 422 460 410 c 1,20,21
EndSplineSet
EndChar

StartChar: ccedilla
Encoding: 231 231 168
Width: 564
GlyphClass: 2
Flags: W
LayerCount: 2
Fore
SplineSet
212 -120 m 0,0,1
 212 -107 212 -107 222 -107 c 0,2,3
 225 -107 225 -107 248 -116 c 128,-1,4
 271 -125 271 -125 288 -125 c 0,5,6
 335 -125 335 -125 335 -94 c 0,7,8
 335 -80 335 -80 320 -67.5 c 128,-1,9
 305 -55 305 -55 288 -39 c 128,-1,10
 271 -23 271 -23 267 0 c 1,11,12
 163 0 163 0 112.5 35.5 c 128,-1,13
 62 71 62 71 62 175 c 2,14,-1
 62 286 l 2,15,16
 62 391 62 391 113 426 c 128,-1,17
 164 461 164 461 270 461 c 2,18,-1
 411 461 l 2,19,20
 442 461 442 461 462.5 452 c 128,-1,21
 483 443 483 443 491.5 425.5 c 128,-1,22
 500 408 500 408 503 392.5 c 128,-1,23
 506 377 506 377 506 354 c 0,24,25
 506 324 506 324 485 324 c 128,-1,26
 464 324 464 324 464 352 c 0,27,28
 464 388 464 388 451 403.5 c 128,-1,29
 438 419 438 419 404 419 c 2,30,-1
 270 419 l 2,31,32
 222 419 222 419 195.5 415.5 c 128,-1,33
 169 412 169 412 146 398.5 c 128,-1,34
 123 385 123 385 113.5 358 c 128,-1,35
 104 331 104 331 104 286 c 2,36,-1
 104 175 l 2,37,38
 104 130 104 130 113.5 103 c 128,-1,39
 123 76 123 76 146 62.5 c 128,-1,40
 169 49 169 49 195.5 45.5 c 128,-1,41
 222 42 222 42 270 42 c 2,42,-1
 404 42 l 2,43,44
 438 42 438 42 451 57 c 128,-1,45
 464 72 464 72 464 109 c 0,46,47
 464 137 464 137 485 137 c 128,-1,48
 506 137 506 137 506 106 c 0,49,50
 506 84 506 84 503 68 c 128,-1,51
 500 52 500 52 491.5 35 c 128,-1,52
 483 18 483 18 462.5 9 c 128,-1,53
 442 0 442 0 411 0 c 2,54,-1
 310 0 l 1,55,56
 314 -15 314 -15 331.5 -27.5 c 128,-1,57
 349 -40 349 -40 363 -54 c 128,-1,58
 377 -68 377 -68 377 -89 c 0,59,60
 377 -122 377 -122 351 -143.5 c 128,-1,61
 325 -165 325 -165 286 -165 c 0,62,63
 263 -165 263 -165 237.5 -154.5 c 128,-1,64
 212 -144 212 -144 212 -120 c 0,0,1
EndSplineSet
EndChar

StartChar: eth
Encoding: 240 240 177
Width: 546
GlyphClass: 2
Flags: W
LayerCount: 2
Fore
SplineSet
148 593 m 0,0,1
 122 593 122 593 122 613 c 0,2,3
 122 636 122 636 148 636 c 0,4,5
 219 636 219 636 279 609 c 1,6,-1
 313 643 l 2,7,8
 324 654 324 654 334 654 c 0,9,10
 341 654 341 654 347.5 648.5 c 128,-1,11
 354 643 354 643 354 635 c 0,12,13
 354 625 354 625 343 613 c 1,14,-1
 318 589 l 1,15,16
 491 483 491 483 491 221 c 0,17,18
 491 123 491 123 435 53.5 c 128,-1,19
 379 -16 379 -16 284 -16 c 0,20,21
 180 -16 180 -16 113.5 47 c 128,-1,22
 47 110 47 110 47 220 c 0,23,24
 47 331 47 331 113.5 393.5 c 128,-1,25
 180 456 180 456 284 456 c 0,26,27
 366 456 366 456 419 403 c 1,28,29
 377 509 377 509 287 557 c 1,30,-1
 237 508 l 2,31,32
 226 497 226 497 217 497 c 0,33,34
 210 497 210 497 203 503 c 128,-1,35
 196 509 196 509 196 517 c 0,36,37
 196 524 196 524 208 538 c 1,38,-1
 246 575 l 1,39,40
 198 593 198 593 148 593 c 0,0,1
449 221 m 0,41,42
 449 301 449 301 407.5 357.5 c 128,-1,43
 366 414 366 414 284 414 c 0,44,45
 196 414 196 414 142.5 360 c 128,-1,46
 89 306 89 306 89 220 c 0,47,48
 89 135 89 135 142.5 80.5 c 128,-1,49
 196 26 196 26 284 26 c 0,50,51
 364 26 364 26 406.5 87.5 c 128,-1,52
 449 149 449 149 449 221 c 0,41,42
EndSplineSet
EndChar

StartChar: divide
Encoding: 247 247 184
Width: 440
GlyphClass: 2
Flags: W
LayerCount: 2
Fore
SplineSet
170 333 m 128,-1,1
 170 347 170 347 185 358 c 128,-1,2
 200 369 200 369 216 369 c 0,3,4
 231 369 231 369 246.5 358 c 128,-1,5
 262 347 262 347 262 333 c 128,-1,6
 262 319 262 319 246.5 308 c 128,-1,7
 231 297 231 297 216 297 c 0,8,9
 200 297 200 297 185 308 c 128,-1,0
 170 319 170 319 170 333 c 128,-1,1
170 128 m 128,-1,11
 170 142 170 142 185 153 c 128,-1,12
 200 164 200 164 216 164 c 0,13,14
 231 164 231 164 246.5 153 c 128,-1,15
 262 142 262 142 262 128 c 128,-1,16
 262 114 262 114 246.5 103 c 128,-1,17
 231 92 231 92 216 92 c 0,18,19
 200 92 200 92 185 103 c 128,-1,10
 170 114 170 114 170 128 c 128,-1,11
96 209 m 2,20,21
 70 209 70 209 70 231 c 0,22,23
 70 252 70 252 96 252 c 2,24,-1
 341 252 l 2,25,26
 370 252 370 252 370 229 c 0,27,28
 370 209 370 209 341 209 c 2,29,-1
 96 209 l 2,20,21
EndSplineSet
EndChar

StartChar: oslash
Encoding: 248 248 185
Width: 568
GlyphClass: 2
Flags: W
LayerCount: 2
Fore
SplineSet
467 469 m 0,0,1
 474 469 474 469 481 463 c 128,-1,2
 488 457 488 457 488 449 c 0,3,4
 488 440 488 440 479 429 c 2,5,-1
 467 415 l 1,6,7
 506 374 506 374 506 286 c 2,8,-1
 506 175 l 2,9,10
 506 70 506 70 455 35 c 128,-1,11
 404 0 404 0 299 0 c 2,12,-1
 270 0 l 2,13,14
 181 0 181 0 137 20 c 1,15,-1
 123 5 l 2,16,17
 112 -8 112 -8 102 -8 c 0,18,19
 95 -8 95 -8 88 -2 c 128,-1,20
 81 4 81 4 81 12 c 128,-1,21
 81 20 81 20 91 32 c 2,22,-1
 102 45 l 1,23,24
 62 87 62 87 62 175 c 2,25,-1
 62 286 l 2,26,27
 62 391 62 391 113 426 c 128,-1,28
 164 461 164 461 270 461 c 2,29,-1
 299 461 l 2,30,31
 390 461 390 461 433 439 c 1,32,-1
 446 456 l 2,33,34
 457 469 457 469 467 469 c 0,0,1
270 42 m 2,35,-1
 299 42 l 2,36,37
 346 42 346 42 372.5 45.5 c 128,-1,38
 399 49 399 49 422 62.5 c 128,-1,39
 445 76 445 76 454.5 103 c 128,-1,40
 464 130 464 130 464 175 c 2,41,-1
 464 286 l 2,42,43
 464 354 464 354 440 383 c 1,44,-1
 164 53 l 1,45,46
 196 42 196 42 270 42 c 2,35,-1
129 77 m 1,47,-1
 405 407 l 1,48,49
 373 419 373 419 299 419 c 2,50,-1
 270 419 l 2,51,52
 222 419 222 419 195.5 415.5 c 128,-1,53
 169 412 169 412 146 398.5 c 128,-1,54
 123 385 123 385 113.5 358 c 128,-1,55
 104 331 104 331 104 286 c 2,56,-1
 104 175 l 2,57,58
 104 106 104 106 129 77 c 1,47,-1
EndSplineSet
EndChar

StartChar: thorn
Encoding: 254 254 191
Width: 581
GlyphClass: 2
Flags: W
LayerCount: 2
Fore
SplineSet
477 286 m 2,0,1
 477 331 477 331 467.5 358 c 128,-1,2
 458 385 458 385 435 398.5 c 128,-1,3
 412 412 412 412 385.5 415.5 c 128,-1,4
 359 419 359 419 312 419 c 2,5,-1
 283 419 l 2,6,7
 203 419 203 419 160 370.5 c 128,-1,8
 117 322 117 322 117 232 c 2,9,-1
 117 42 l 1,10,-1
 312 42 l 2,11,12
 359 42 359 42 385.5 45.5 c 128,-1,13
 412 49 412 49 435 62.5 c 128,-1,14
 458 76 458 76 467.5 103 c 128,-1,15
 477 130 477 130 477 175 c 2,16,-1
 477 286 l 2,0,1
519 175 m 2,17,18
 519 70 519 70 468 35 c 128,-1,19
 417 0 417 0 312 0 c 2,20,-1
 117 0 l 1,21,-1
 117 -152 l 2,22,23
 117 -182 117 -182 94 -182 c 0,24,25
 75 -182 75 -182 75 -152 c 2,26,-1
 75 613 l 2,27,28
 75 643 75 643 96 643 c 128,-1,29
 117 643 117 643 117 613 c 2,30,-1
 117 389 l 1,31,32
 173 461 173 461 283 461 c 2,33,-1
 312 461 l 2,34,35
 417 461 417 461 468 426 c 128,-1,36
 519 391 519 391 519 286 c 2,37,-1
 519 175 l 2,17,18
EndSplineSet
EndChar

StartChar: Amacron
Encoding: 256 256 193
Width: 548
GlyphClass: 2
Flags: W
LayerCount: 2
Fore
SplineSet
150 706 m 2,0,1
 124 706 124 706 124 728 c 0,2,3
 124 749 124 749 150 749 c 2,4,-1
 395 749 l 2,5,6
 424 749 424 749 424 726 c 0,7,8
 424 706 424 706 395 706 c 2,9,-1
 150 706 l 2,0,1
44 -16 m 0,10,11
 23 -16 23 -16 23 4 c 0,12,13
 23 10 23 10 26 18 c 2,14,-1
 251 636 l 1,15,-1
 297 636 l 1,16,-1
 522 18 l 2,17,18
 525 10 525 10 525 4 c 0,19,20
 525 -16 525 -16 504 -16 c 0,21,22
 490 -16 490 -16 482 4 c 2,23,-1
 410 204 l 1,24,-1
 138 204 l 1,25,-1
 66 4 l 1,26,27
 57 -16 57 -16 44 -16 c 0,10,11
154 246 m 1,28,-1
 394 246 l 1,29,-1
 273 575 l 1,30,-1
 154 246 l 1,28,-1
EndSplineSet
EndChar

StartChar: amacron
Encoding: 257 257 194
Width: 534
GlyphClass: 2
Flags: W
LayerCount: 2
Fore
SplineSet
141 522 m 2,0,1
 115 522 115 522 115 544 c 0,2,3
 115 565 115 565 141 565 c 2,4,-1
 386 565 l 2,5,6
 415 565 415 565 415 542 c 0,7,8
 415 522 415 522 386 522 c 2,9,-1
 141 522 l 2,0,1
268 248 m 2,10,11
 220 248 220 248 193.5 244.5 c 128,-1,12
 167 241 167 241 144 227.5 c 128,-1,13
 121 214 121 214 111.5 187 c 128,-1,14
 102 160 102 160 102 115 c 0,15,16
 102 87 102 87 120.5 64.5 c 128,-1,17
 139 42 139 42 162 42 c 2,18,-1
 255 42 l 2,19,20
 334 42 334 42 377 90 c 128,-1,21
 420 138 420 138 420 228 c 2,22,-1
 420 248 l 1,23,-1
 268 248 l 2,10,11
268 290 m 2,24,-1
 420 290 l 1,25,-1
 420 354 l 2,26,27
 420 389 420 389 407 404 c 128,-1,28
 394 419 394 419 360 419 c 2,29,-1
 219 419 l 2,30,31
 102 419 102 419 102 354 c 0,32,33
 102 324 102 324 80 324 c 0,34,35
 60 324 60 324 60 354 c 0,36,37
 60 408 60 408 102.5 434.5 c 128,-1,38
 145 461 145 461 212 461 c 2,39,-1
 367 461 l 2,40,41
 422 461 422 461 442 434 c 128,-1,42
 462 407 462 407 462 337 c 2,43,-1
 462 23 l 2,44,45
 462 -7 462 -7 441 -7 c 128,-1,46
 420 -7 420 -7 420 23 c 2,47,-1
 420 72 l 1,48,49
 366 0 366 0 255 0 c 2,50,-1
 162 0 l 2,51,52
 117 0 117 0 88.5 32.5 c 128,-1,53
 60 65 60 65 60 120 c 0,54,55
 60 162 60 162 70 193 c 128,-1,56
 80 224 80 224 97 242.5 c 128,-1,57
 114 261 114 261 141 271.5 c 128,-1,58
 168 282 168 282 198 286 c 128,-1,59
 228 290 228 290 268 290 c 2,24,-1
EndSplineSet
EndChar

StartChar: Abreve
Encoding: 258 258 195
Width: 548
GlyphClass: 2
Flags: W
LayerCount: 2
Fore
SplineSet
389 819 m 1,0,1
 389 771 389 771 355 734.5 c 128,-1,2
 321 698 321 698 274 698 c 128,-1,3
 227 698 227 698 193 734.5 c 128,-1,4
 159 771 159 771 159 819 c 1,5,-1
 202 819 l 1,6,7
 202 785 202 785 221.5 763.5 c 128,-1,8
 241 742 241 742 274 742 c 128,-1,9
 307 742 307 742 326.5 763.5 c 128,-1,10
 346 785 346 785 346 819 c 1,11,-1
 389 819 l 1,0,1
44 -16 m 0,12,13
 23 -16 23 -16 23 4 c 0,14,15
 23 10 23 10 26 18 c 2,16,-1
 251 636 l 1,17,-1
 297 636 l 1,18,-1
 522 18 l 2,19,20
 525 10 525 10 525 4 c 0,21,22
 525 -16 525 -16 504 -16 c 0,23,24
 490 -16 490 -16 482 4 c 2,25,-1
 410 204 l 1,26,-1
 138 204 l 1,27,-1
 66 4 l 1,28,29
 57 -16 57 -16 44 -16 c 0,12,13
154 246 m 1,30,-1
 394 246 l 1,31,-1
 273 575 l 1,32,-1
 154 246 l 1,30,-1
EndSplineSet
EndChar

StartChar: abreve
Encoding: 259 259 196
Width: 534
GlyphClass: 2
Flags: W
LayerCount: 2
Fore
SplineSet
387 643 m 1,0,1
 387 595 387 595 353 558.5 c 128,-1,2
 319 522 319 522 272 522 c 128,-1,3
 225 522 225 522 191 558.5 c 128,-1,4
 157 595 157 595 157 643 c 1,5,-1
 200 643 l 1,6,7
 200 609 200 609 219.5 587.5 c 128,-1,8
 239 566 239 566 272 566 c 128,-1,9
 305 566 305 566 324.5 587.5 c 128,-1,10
 344 609 344 609 344 643 c 1,11,-1
 387 643 l 1,0,1
268 248 m 2,12,13
 220 248 220 248 193.5 244.5 c 128,-1,14
 167 241 167 241 144 227.5 c 128,-1,15
 121 214 121 214 111.5 187 c 128,-1,16
 102 160 102 160 102 115 c 0,17,18
 102 87 102 87 120.5 64.5 c 128,-1,19
 139 42 139 42 162 42 c 2,20,-1
 255 42 l 2,21,22
 334 42 334 42 377 90 c 128,-1,23
 420 138 420 138 420 228 c 2,24,-1
 420 248 l 1,25,-1
 268 248 l 2,12,13
268 290 m 2,26,-1
 420 290 l 1,27,-1
 420 354 l 2,28,29
 420 389 420 389 407 404 c 128,-1,30
 394 419 394 419 360 419 c 2,31,-1
 219 419 l 2,32,33
 102 419 102 419 102 354 c 0,34,35
 102 324 102 324 80 324 c 0,36,37
 60 324 60 324 60 354 c 0,38,39
 60 408 60 408 102.5 434.5 c 128,-1,40
 145 461 145 461 212 461 c 2,41,-1
 367 461 l 2,42,43
 422 461 422 461 442 434 c 128,-1,44
 462 407 462 407 462 337 c 2,45,-1
 462 23 l 2,46,47
 462 -7 462 -7 441 -7 c 128,-1,48
 420 -7 420 -7 420 23 c 2,49,-1
 420 72 l 1,50,51
 366 0 366 0 255 0 c 2,52,-1
 162 0 l 2,53,54
 117 0 117 0 88.5 32.5 c 128,-1,55
 60 65 60 65 60 120 c 0,56,57
 60 162 60 162 70 193 c 128,-1,58
 80 224 80 224 97 242.5 c 128,-1,59
 114 261 114 261 141 271.5 c 128,-1,60
 168 282 168 282 198 286 c 128,-1,61
 228 290 228 290 268 290 c 2,26,-1
EndSplineSet
EndChar

StartChar: Aogonek
Encoding: 260 260 197
Width: 547
GlyphClass: 2
Flags: W
LayerCount: 2
Fore
SplineSet
581 -160 m 0,0,1
 581 -184 581 -184 555.5 -194.5 c 128,-1,2
 530 -205 530 -205 507 -205 c 0,3,4
 467 -205 467 -205 441.5 -177.5 c 128,-1,5
 416 -150 416 -150 416 -106 c 0,6,7
 416 -84 416 -84 436 -48.5 c 128,-1,8
 456 -13 456 -13 479 13 c 1,9,-1
 410 204 l 1,10,-1
 138 204 l 1,11,-1
 66 4 l 1,12,13
 57 -16 57 -16 44 -16 c 0,14,15
 23 -16 23 -16 23 4 c 0,16,17
 23 10 23 10 26 18 c 2,18,-1
 251 636 l 1,19,-1
 297 636 l 1,20,-1
 522 18 l 2,21,22
 525 10 525 10 525 4 c 0,23,24
 525 -13 525 -13 507 -16 c 1,25,26
 489 -34 489 -34 473.5 -62.5 c 128,-1,27
 458 -91 458 -91 458 -106 c 0,28,29
 458 -165 458 -165 505 -165 c 0,30,31
 522 -165 522 -165 545 -156 c 128,-1,32
 568 -147 568 -147 571 -147 c 0,33,34
 581 -147 581 -147 581 -160 c 0,0,1
154 246 m 1,35,-1
 394 246 l 1,36,-1
 273 575 l 1,37,-1
 154 246 l 1,35,-1
EndSplineSet
EndChar

StartChar: aogonek
Encoding: 261 261 198
Width: 534
GlyphClass: 2
Flags: W
LayerCount: 2
Fore
SplineSet
514 -159 m 0,0,1
 514 -183 514 -183 488.5 -193.5 c 128,-1,2
 463 -204 463 -204 440 -204 c 0,3,4
 400 -204 400 -204 374.5 -176.5 c 128,-1,5
 349 -149 349 -149 349 -105 c 0,6,7
 349 -82 349 -82 373 -41.5 c 128,-1,8
 397 -1 397 -1 420 23 c 1,9,-1
 420 72 l 1,10,11
 366 0 366 0 255 0 c 2,12,-1
 162 0 l 2,13,14
 117 0 117 0 88.5 32.5 c 128,-1,15
 60 65 60 65 60 120 c 0,16,17
 60 162 60 162 70 193 c 128,-1,18
 80 224 80 224 97 242.5 c 128,-1,19
 114 261 114 261 141 271.5 c 128,-1,20
 168 282 168 282 198 286 c 128,-1,21
 228 290 228 290 268 290 c 2,22,-1
 420 290 l 1,23,-1
 420 354 l 2,24,25
 420 389 420 389 407 404 c 128,-1,26
 394 419 394 419 360 419 c 2,27,-1
 219 419 l 2,28,29
 102 419 102 419 102 354 c 0,30,31
 102 324 102 324 80 324 c 0,32,33
 60 324 60 324 60 354 c 0,34,35
 60 408 60 408 102.5 434.5 c 128,-1,36
 145 461 145 461 212 461 c 2,37,-1
 367 461 l 2,38,39
 422 461 422 461 442 434 c 128,-1,40
 462 407 462 407 462 337 c 2,41,-1
 462 23 l 2,42,43
 462 0 462 0 451 -5 c 1,44,45
 432 -18 432 -18 411.5 -53 c 128,-1,46
 391 -88 391 -88 391 -105 c 0,47,48
 391 -164 391 -164 438 -164 c 0,49,50
 455 -164 455 -164 478 -155 c 128,-1,51
 501 -146 501 -146 504 -146 c 0,52,53
 514 -146 514 -146 514 -159 c 0,0,1
268 248 m 2,54,55
 220 248 220 248 193.5 244.5 c 128,-1,56
 167 241 167 241 144 227.5 c 128,-1,57
 121 214 121 214 111.5 187 c 128,-1,58
 102 160 102 160 102 115 c 0,59,60
 102 87 102 87 120.5 64.5 c 128,-1,61
 139 42 139 42 162 42 c 2,62,-1
 255 42 l 2,63,64
 334 42 334 42 377 90 c 128,-1,65
 420 138 420 138 420 228 c 2,66,-1
 420 248 l 1,67,-1
 268 248 l 2,54,55
EndSplineSet
EndChar

StartChar: Cacute
Encoding: 262 262 199
Width: 572
GlyphClass: 2
Flags: W
LayerCount: 2
Fore
SplineSet
413 800 m 0,0,1
 413 792 413 792 402 779 c 1,2,-1
 332 710 l 2,3,4
 322 699 322 699 312 699 c 0,5,6
 304 699 304 699 297.5 705.5 c 128,-1,7
 291 712 291 712 291 718 c 0,8,9
 291 728 291 728 303 740 c 2,10,-1
 372 809 l 2,11,12
 382 820 382 820 393 820 c 0,13,14
 401 820 401 820 407 813 c 128,-1,15
 413 806 413 806 413 800 c 0,0,1
421 0 m 2,16,-1
 280 0 l 2,17,18
 174 0 174 0 123 35 c 128,-1,19
 72 70 72 70 72 175 c 2,20,-1
 72 461 l 2,21,22
 72 566 72 566 123 601 c 128,-1,23
 174 636 174 636 280 636 c 2,24,-1
 421 636 l 2,25,26
 452 636 452 636 472.5 627 c 128,-1,27
 493 618 493 618 501.5 601 c 128,-1,28
 510 584 510 584 513 568 c 128,-1,29
 516 552 516 552 516 529 c 0,30,31
 516 499 516 499 495 499 c 128,-1,32
 474 499 474 499 474 527 c 0,33,34
 474 563 474 563 461 578.5 c 128,-1,35
 448 594 448 594 414 594 c 2,36,-1
 280 594 l 2,37,38
 232 594 232 594 205.5 590.5 c 128,-1,39
 179 587 179 587 156 573.5 c 128,-1,40
 133 560 133 560 123.5 533 c 128,-1,41
 114 506 114 506 114 461 c 2,42,-1
 114 175 l 2,43,44
 114 130 114 130 123.5 103 c 128,-1,45
 133 76 133 76 156 62.5 c 128,-1,46
 179 49 179 49 205.5 45.5 c 128,-1,47
 232 42 232 42 280 42 c 2,48,-1
 414 42 l 2,49,50
 448 42 448 42 461 57 c 128,-1,51
 474 72 474 72 474 109 c 0,52,53
 474 137 474 137 495 137 c 128,-1,54
 516 137 516 137 516 106 c 0,55,56
 516 84 516 84 513 68 c 128,-1,57
 510 52 510 52 501.5 35 c 128,-1,58
 493 18 493 18 472.5 9 c 128,-1,59
 452 0 452 0 421 0 c 2,16,-1
EndSplineSet
EndChar

StartChar: cacute
Encoding: 263 263 200
Width: 564
GlyphClass: 2
Flags: W
LayerCount: 2
Fore
SplineSet
408 657 m 0,0,1
 408 647 408 647 400 638 c 2,2,-1
 304 523 l 2,3,4
 292 510 292 510 283 510 c 0,5,6
 276 510 276 510 269.5 516 c 128,-1,7
 263 522 263 522 263 530 c 0,8,9
 263 541 263 541 271 550 c 2,10,-1
 367 665 l 2,11,12
 379 678 379 678 388 678 c 0,13,14
 395 678 395 678 401.5 672 c 128,-1,15
 408 666 408 666 408 657 c 0,0,1
411 0 m 2,16,-1
 270 0 l 2,17,18
 164 0 164 0 113 35 c 128,-1,19
 62 70 62 70 62 175 c 2,20,-1
 62 286 l 2,21,22
 62 391 62 391 113 426 c 128,-1,23
 164 461 164 461 270 461 c 2,24,-1
 411 461 l 2,25,26
 442 461 442 461 462.5 452 c 128,-1,27
 483 443 483 443 491.5 425.5 c 128,-1,28
 500 408 500 408 503 392.5 c 128,-1,29
 506 377 506 377 506 354 c 0,30,31
 506 324 506 324 485 324 c 128,-1,32
 464 324 464 324 464 352 c 0,33,34
 464 388 464 388 451 403.5 c 128,-1,35
 438 419 438 419 404 419 c 2,36,-1
 270 419 l 2,37,38
 222 419 222 419 195.5 415.5 c 128,-1,39
 169 412 169 412 146 398.5 c 128,-1,40
 123 385 123 385 113.5 358 c 128,-1,41
 104 331 104 331 104 286 c 2,42,-1
 104 175 l 2,43,44
 104 130 104 130 113.5 103 c 128,-1,45
 123 76 123 76 146 62.5 c 128,-1,46
 169 49 169 49 195.5 45.5 c 128,-1,47
 222 42 222 42 270 42 c 2,48,-1
 404 42 l 2,49,50
 438 42 438 42 451 57 c 128,-1,51
 464 72 464 72 464 109 c 0,52,53
 464 137 464 137 485 137 c 128,-1,54
 506 137 506 137 506 106 c 0,55,56
 506 84 506 84 503 68 c 128,-1,57
 500 52 500 52 491.5 35 c 128,-1,58
 483 18 483 18 462.5 9 c 128,-1,59
 442 0 442 0 411 0 c 2,16,-1
EndSplineSet
EndChar

StartChar: Ccircumflex
Encoding: 264 264 201
Width: 572
GlyphClass: 2
Flags: W
LayerCount: 2
Fore
SplineSet
307 773 m 1,0,-1
 304 773 l 1,1,-1
 212 669 l 2,2,3
 196 651 196 651 188 651 c 0,4,5
 170 651 170 651 170 669 c 0,6,7
 170 678 170 678 174 682 c 2,8,-1
 278 819 l 1,9,-1
 333 819 l 1,10,-1
 439 682 l 2,11,12
 443 677 443 677 443 669 c 0,13,14
 443 651 443 651 425 651 c 0,15,16
 421 651 421 651 417.5 652.5 c 128,-1,17
 414 654 414 654 412.5 655.5 c 128,-1,18
 411 657 411 657 407 662 c 128,-1,19
 403 667 403 667 401 669 c 2,20,-1
 307 773 l 1,0,-1
421 0 m 2,21,-1
 280 0 l 2,22,23
 174 0 174 0 123 35 c 128,-1,24
 72 70 72 70 72 175 c 2,25,-1
 72 461 l 2,26,27
 72 566 72 566 123 601 c 128,-1,28
 174 636 174 636 280 636 c 2,29,-1
 421 636 l 2,30,31
 452 636 452 636 472.5 627 c 128,-1,32
 493 618 493 618 501.5 601 c 128,-1,33
 510 584 510 584 513 568 c 128,-1,34
 516 552 516 552 516 529 c 0,35,36
 516 499 516 499 495 499 c 128,-1,37
 474 499 474 499 474 527 c 0,38,39
 474 563 474 563 461 578.5 c 128,-1,40
 448 594 448 594 414 594 c 2,41,-1
 280 594 l 2,42,43
 232 594 232 594 205.5 590.5 c 128,-1,44
 179 587 179 587 156 573.5 c 128,-1,45
 133 560 133 560 123.5 533 c 128,-1,46
 114 506 114 506 114 461 c 2,47,-1
 114 175 l 2,48,49
 114 130 114 130 123.5 103 c 128,-1,50
 133 76 133 76 156 62.5 c 128,-1,51
 179 49 179 49 205.5 45.5 c 128,-1,52
 232 42 232 42 280 42 c 2,53,-1
 414 42 l 2,54,55
 448 42 448 42 461 57 c 128,-1,56
 474 72 474 72 474 109 c 0,57,58
 474 137 474 137 495 137 c 128,-1,59
 516 137 516 137 516 106 c 0,60,61
 516 84 516 84 513 68 c 128,-1,62
 510 52 510 52 501.5 35 c 128,-1,63
 493 18 493 18 472.5 9 c 128,-1,64
 452 0 452 0 421 0 c 2,21,-1
EndSplineSet
EndChar

StartChar: ccircumflex
Encoding: 265 265 202
Width: 564
GlyphClass: 2
Flags: W
LayerCount: 2
Fore
SplineSet
289 644 m 1,0,-1
 286 644 l 1,1,-1
 194 540 l 2,2,3
 178 522 178 522 170 522 c 0,4,5
 152 522 152 522 152 540 c 0,6,7
 152 549 152 549 156 553 c 2,8,-1
 260 690 l 1,9,-1
 315 690 l 1,10,-1
 421 553 l 2,11,12
 425 548 425 548 425 540 c 0,13,14
 425 522 425 522 407 522 c 0,15,16
 403 522 403 522 399.5 523.5 c 128,-1,17
 396 525 396 525 394.5 526.5 c 128,-1,18
 393 528 393 528 389 533 c 128,-1,19
 385 538 385 538 383 540 c 2,20,-1
 289 644 l 1,0,-1
411 0 m 2,21,-1
 270 0 l 2,22,23
 164 0 164 0 113 35 c 128,-1,24
 62 70 62 70 62 175 c 2,25,-1
 62 286 l 2,26,27
 62 391 62 391 113 426 c 128,-1,28
 164 461 164 461 270 461 c 2,29,-1
 411 461 l 2,30,31
 442 461 442 461 462.5 452 c 128,-1,32
 483 443 483 443 491.5 425.5 c 128,-1,33
 500 408 500 408 503 392.5 c 128,-1,34
 506 377 506 377 506 354 c 0,35,36
 506 324 506 324 485 324 c 128,-1,37
 464 324 464 324 464 352 c 0,38,39
 464 388 464 388 451 403.5 c 128,-1,40
 438 419 438 419 404 419 c 2,41,-1
 270 419 l 2,42,43
 222 419 222 419 195.5 415.5 c 128,-1,44
 169 412 169 412 146 398.5 c 128,-1,45
 123 385 123 385 113.5 358 c 128,-1,46
 104 331 104 331 104 286 c 2,47,-1
 104 175 l 2,48,49
 104 130 104 130 113.5 103 c 128,-1,50
 123 76 123 76 146 62.5 c 128,-1,51
 169 49 169 49 195.5 45.5 c 128,-1,52
 222 42 222 42 270 42 c 2,53,-1
 404 42 l 2,54,55
 438 42 438 42 451 57 c 128,-1,56
 464 72 464 72 464 109 c 0,57,58
 464 137 464 137 485 137 c 128,-1,59
 506 137 506 137 506 106 c 0,60,61
 506 84 506 84 503 68 c 128,-1,62
 500 52 500 52 491.5 35 c 128,-1,63
 483 18 483 18 462.5 9 c 128,-1,64
 442 0 442 0 411 0 c 2,21,-1
EndSplineSet
EndChar

StartChar: Cdotaccent
Encoding: 266 266 203
Width: 572
GlyphClass: 2
Flags: W
LayerCount: 2
Fore
SplineSet
245 742 m 128,-1,1
 245 756 245 756 260 767 c 128,-1,2
 275 778 275 778 291 778 c 0,3,4
 306 778 306 778 321.5 767 c 128,-1,5
 337 756 337 756 337 742 c 128,-1,6
 337 728 337 728 321.5 717 c 128,-1,7
 306 706 306 706 291 706 c 0,8,9
 275 706 275 706 260 717 c 128,-1,0
 245 728 245 728 245 742 c 128,-1,1
421 0 m 2,10,-1
 280 0 l 2,11,12
 174 0 174 0 123 35 c 128,-1,13
 72 70 72 70 72 175 c 2,14,-1
 72 461 l 2,15,16
 72 566 72 566 123 601 c 128,-1,17
 174 636 174 636 280 636 c 2,18,-1
 421 636 l 2,19,20
 452 636 452 636 472.5 627 c 128,-1,21
 493 618 493 618 501.5 601 c 128,-1,22
 510 584 510 584 513 568 c 128,-1,23
 516 552 516 552 516 529 c 0,24,25
 516 499 516 499 495 499 c 128,-1,26
 474 499 474 499 474 527 c 0,27,28
 474 563 474 563 461 578.5 c 128,-1,29
 448 594 448 594 414 594 c 2,30,-1
 280 594 l 2,31,32
 232 594 232 594 205.5 590.5 c 128,-1,33
 179 587 179 587 156 573.5 c 128,-1,34
 133 560 133 560 123.5 533 c 128,-1,35
 114 506 114 506 114 461 c 2,36,-1
 114 175 l 2,37,38
 114 130 114 130 123.5 103 c 128,-1,39
 133 76 133 76 156 62.5 c 128,-1,40
 179 49 179 49 205.5 45.5 c 128,-1,41
 232 42 232 42 280 42 c 2,42,-1
 414 42 l 2,43,44
 448 42 448 42 461 57 c 128,-1,45
 474 72 474 72 474 109 c 0,46,47
 474 137 474 137 495 137 c 128,-1,48
 516 137 516 137 516 106 c 0,49,50
 516 84 516 84 513 68 c 128,-1,51
 510 52 510 52 501.5 35 c 128,-1,52
 493 18 493 18 472.5 9 c 128,-1,53
 452 0 452 0 421 0 c 2,10,-1
EndSplineSet
EndChar

StartChar: cdotaccent
Encoding: 267 267 204
Width: 564
GlyphClass: 2
Flags: W
LayerCount: 2
Fore
SplineSet
239 558 m 128,-1,1
 239 572 239 572 254 583 c 128,-1,2
 269 594 269 594 285 594 c 0,3,4
 300 594 300 594 315.5 583 c 128,-1,5
 331 572 331 572 331 558 c 128,-1,6
 331 544 331 544 315.5 533 c 128,-1,7
 300 522 300 522 285 522 c 0,8,9
 269 522 269 522 254 533 c 128,-1,0
 239 544 239 544 239 558 c 128,-1,1
411 0 m 2,10,-1
 270 0 l 2,11,12
 164 0 164 0 113 35 c 128,-1,13
 62 70 62 70 62 175 c 2,14,-1
 62 286 l 2,15,16
 62 391 62 391 113 426 c 128,-1,17
 164 461 164 461 270 461 c 2,18,-1
 411 461 l 2,19,20
 442 461 442 461 462.5 452 c 128,-1,21
 483 443 483 443 491.5 425.5 c 128,-1,22
 500 408 500 408 503 392.5 c 128,-1,23
 506 377 506 377 506 354 c 0,24,25
 506 324 506 324 485 324 c 128,-1,26
 464 324 464 324 464 352 c 0,27,28
 464 388 464 388 451 403.5 c 128,-1,29
 438 419 438 419 404 419 c 2,30,-1
 270 419 l 2,31,32
 222 419 222 419 195.5 415.5 c 128,-1,33
 169 412 169 412 146 398.5 c 128,-1,34
 123 385 123 385 113.5 358 c 128,-1,35
 104 331 104 331 104 286 c 2,36,-1
 104 175 l 2,37,38
 104 130 104 130 113.5 103 c 128,-1,39
 123 76 123 76 146 62.5 c 128,-1,40
 169 49 169 49 195.5 45.5 c 128,-1,41
 222 42 222 42 270 42 c 2,42,-1
 404 42 l 2,43,44
 438 42 438 42 451 57 c 128,-1,45
 464 72 464 72 464 109 c 0,46,47
 464 137 464 137 485 137 c 128,-1,48
 506 137 506 137 506 106 c 0,49,50
 506 84 506 84 503 68 c 128,-1,51
 500 52 500 52 491.5 35 c 128,-1,52
 483 18 483 18 462.5 9 c 128,-1,53
 442 0 442 0 411 0 c 2,10,-1
EndSplineSet
EndChar

StartChar: Ccaron
Encoding: 268 268 205
Width: 572
GlyphClass: 2
Flags: W
LayerCount: 2
Fore
SplineSet
323 678 m 1,0,-1
 271 678 l 1,1,-1
 169 785 l 2,2,3
 163 791 163 791 163 797 c 0,4,5
 163 812 163 812 181 812 c 0,6,7
 191 812 191 812 210 796 c 2,8,-1
 297 724 l 1,9,-1
 384 796 l 2,10,11
 403 812 403 812 413 812 c 0,12,13
 431 812 431 812 431 797 c 0,14,15
 431 791 431 791 425 785 c 2,16,-1
 323 678 l 1,0,-1
421 0 m 2,17,-1
 280 0 l 2,18,19
 174 0 174 0 123 35 c 128,-1,20
 72 70 72 70 72 175 c 2,21,-1
 72 461 l 2,22,23
 72 566 72 566 123 601 c 128,-1,24
 174 636 174 636 280 636 c 2,25,-1
 421 636 l 2,26,27
 452 636 452 636 472.5 627 c 128,-1,28
 493 618 493 618 501.5 601 c 128,-1,29
 510 584 510 584 513 568 c 128,-1,30
 516 552 516 552 516 529 c 0,31,32
 516 499 516 499 495 499 c 128,-1,33
 474 499 474 499 474 527 c 0,34,35
 474 563 474 563 461 578.5 c 128,-1,36
 448 594 448 594 414 594 c 2,37,-1
 280 594 l 2,38,39
 232 594 232 594 205.5 590.5 c 128,-1,40
 179 587 179 587 156 573.5 c 128,-1,41
 133 560 133 560 123.5 533 c 128,-1,42
 114 506 114 506 114 461 c 2,43,-1
 114 175 l 2,44,45
 114 130 114 130 123.5 103 c 128,-1,46
 133 76 133 76 156 62.5 c 128,-1,47
 179 49 179 49 205.5 45.5 c 128,-1,48
 232 42 232 42 280 42 c 2,49,-1
 414 42 l 2,50,51
 448 42 448 42 461 57 c 128,-1,52
 474 72 474 72 474 109 c 0,53,54
 474 137 474 137 495 137 c 128,-1,55
 516 137 516 137 516 106 c 0,56,57
 516 84 516 84 513 68 c 128,-1,58
 510 52 510 52 501.5 35 c 128,-1,59
 493 18 493 18 472.5 9 c 128,-1,60
 452 0 452 0 421 0 c 2,17,-1
EndSplineSet
EndChar

StartChar: ccaron
Encoding: 269 269 206
Width: 564
GlyphClass: 2
Flags: W
LayerCount: 2
Fore
SplineSet
315 522 m 1,0,-1
 263 522 l 1,1,-1
 161 629 l 2,2,3
 155 635 155 635 155 641 c 0,4,5
 155 656 155 656 173 656 c 0,6,7
 183 656 183 656 202 640 c 2,8,-1
 289 568 l 1,9,-1
 376 640 l 2,10,11
 395 656 395 656 405 656 c 0,12,13
 423 656 423 656 423 641 c 0,14,15
 423 635 423 635 417 629 c 2,16,-1
 315 522 l 1,0,-1
411 0 m 2,17,-1
 270 0 l 2,18,19
 164 0 164 0 113 35 c 128,-1,20
 62 70 62 70 62 175 c 2,21,-1
 62 286 l 2,22,23
 62 391 62 391 113 426 c 128,-1,24
 164 461 164 461 270 461 c 2,25,-1
 411 461 l 2,26,27
 442 461 442 461 462.5 452 c 128,-1,28
 483 443 483 443 491.5 425.5 c 128,-1,29
 500 408 500 408 503 392.5 c 128,-1,30
 506 377 506 377 506 354 c 0,31,32
 506 324 506 324 485 324 c 128,-1,33
 464 324 464 324 464 352 c 0,34,35
 464 388 464 388 451 403.5 c 128,-1,36
 438 419 438 419 404 419 c 2,37,-1
 270 419 l 2,38,39
 222 419 222 419 195.5 415.5 c 128,-1,40
 169 412 169 412 146 398.5 c 128,-1,41
 123 385 123 385 113.5 358 c 128,-1,42
 104 331 104 331 104 286 c 2,43,-1
 104 175 l 2,44,45
 104 130 104 130 113.5 103 c 128,-1,46
 123 76 123 76 146 62.5 c 128,-1,47
 169 49 169 49 195.5 45.5 c 128,-1,48
 222 42 222 42 270 42 c 2,49,-1
 404 42 l 2,50,51
 438 42 438 42 451 57 c 128,-1,52
 464 72 464 72 464 109 c 0,53,54
 464 137 464 137 485 137 c 128,-1,55
 506 137 506 137 506 106 c 0,56,57
 506 84 506 84 503 68 c 128,-1,58
 500 52 500 52 491.5 35 c 128,-1,59
 483 18 483 18 462.5 9 c 128,-1,60
 442 0 442 0 411 0 c 2,17,-1
EndSplineSet
EndChar

StartChar: Dcaron
Encoding: 270 270 207
Width: 600
GlyphClass: 2
Flags: W
LayerCount: 2
Fore
SplineSet
313 678 m 1,0,-1
 261 678 l 1,1,-1
 159 785 l 2,2,3
 153 791 153 791 153 797 c 0,4,5
 153 812 153 812 171 812 c 0,6,7
 181 812 181 812 200 796 c 2,8,-1
 287 724 l 1,9,-1
 374 796 l 2,10,11
 393 812 393 812 403 812 c 0,12,13
 421 812 421 812 421 797 c 0,14,15
 421 791 421 791 415 785 c 2,16,-1
 313 678 l 1,0,-1
528 461 m 2,17,-1
 528 175 l 2,18,19
 528 70 528 70 477 35 c 128,-1,20
 426 0 426 0 321 0 c 2,21,-1
 103 0 l 2,22,23
 84 0 84 0 84 31 c 2,24,-1
 84 605 l 2,25,26
 84 636 84 636 103 636 c 2,27,-1
 321 636 l 2,28,29
 426 636 426 636 477 601 c 128,-1,30
 528 566 528 566 528 461 c 2,17,-1
486 175 m 2,31,-1
 486 461 l 2,32,33
 486 506 486 506 476.5 533 c 128,-1,34
 467 560 467 560 444 573.5 c 128,-1,35
 421 587 421 587 394.5 590.5 c 128,-1,36
 368 594 368 594 321 594 c 2,37,-1
 126 594 l 1,38,-1
 126 42 l 1,39,-1
 321 42 l 2,40,41
 368 42 368 42 394.5 45.5 c 128,-1,42
 421 49 421 49 444 62.5 c 128,-1,43
 467 76 467 76 476.5 103 c 128,-1,44
 486 130 486 130 486 175 c 2,31,-1
EndSplineSet
EndChar

StartChar: dcaron
Encoding: 271 271 208
Width: 580
GlyphClass: 2
Flags: W
LayerCount: 2
Fore
SplineSet
583 643 m 0,0,1
 593 643 593 643 606 638 c 128,-1,2
 619 633 619 633 619 623 c 0,3,4
 619 614 619 614 615 606 c 2,5,-1
 573 523 l 1,6,7
 564 502 564 502 553 502 c 0,8,9
 536 502 536 502 536 522 c 0,10,11
 536 528 536 528 539 537 c 2,12,-1
 563 623 l 2,13,14
 569 643 569 643 583 643 c 0,0,1
104 175 m 2,15,16
 104 130 104 130 113.5 103 c 128,-1,17
 123 76 123 76 146 62.5 c 128,-1,18
 169 49 169 49 195.5 45.5 c 128,-1,19
 222 42 222 42 270 42 c 2,20,-1
 299 42 l 2,21,22
 378 42 378 42 421 90 c 128,-1,23
 464 138 464 138 464 228 c 2,24,-1
 464 419 l 1,25,-1
 270 419 l 2,26,27
 222 419 222 419 195.5 415.5 c 128,-1,28
 169 412 169 412 146 398.5 c 128,-1,29
 123 385 123 385 113.5 358 c 128,-1,30
 104 331 104 331 104 286 c 2,31,-1
 104 175 l 2,15,16
62 286 m 2,32,33
 62 391 62 391 113 426 c 128,-1,34
 164 461 164 461 270 461 c 2,35,-1
 464 461 l 1,36,-1
 464 612 l 2,37,38
 464 643 464 643 487 643 c 0,39,40
 506 643 506 643 506 612 c 2,41,-1
 506 23 l 2,42,43
 506 -7 506 -7 485 -7 c 128,-1,44
 464 -7 464 -7 464 23 c 2,45,-1
 464 72 l 1,46,47
 410 0 410 0 299 0 c 2,48,-1
 270 0 l 2,49,50
 164 0 164 0 113 35 c 128,-1,51
 62 70 62 70 62 175 c 2,52,-1
 62 286 l 2,32,33
EndSplineSet
EndChar

StartChar: Dcroat
Encoding: 272 272 209
Width: 600
GlyphClass: 2
Flags: W
LayerCount: 2
Fore
SplineSet
76 303 m 2,0,1
 49 303 49 303 49 326 c 0,2,3
 49 346 49 346 76 346 c 2,4,-1
 84 346 l 1,5,-1
 84 605 l 2,6,7
 84 636 84 636 103 636 c 2,8,-1
 321 636 l 2,9,10
 426 636 426 636 477 601 c 128,-1,11
 528 566 528 566 528 461 c 2,12,-1
 528 175 l 2,13,14
 528 70 528 70 477 35 c 128,-1,15
 426 0 426 0 321 0 c 2,16,-1
 103 0 l 2,17,18
 84 0 84 0 84 31 c 2,19,-1
 84 303 l 1,20,-1
 76 303 l 2,0,1
486 175 m 2,21,-1
 486 461 l 2,22,23
 486 506 486 506 476.5 533 c 128,-1,24
 467 560 467 560 444 573.5 c 128,-1,25
 421 587 421 587 394.5 590.5 c 128,-1,26
 368 594 368 594 321 594 c 2,27,-1
 126 594 l 1,28,-1
 126 346 l 1,29,-1
 232 346 l 2,30,31
 261 346 261 346 261 324 c 0,32,33
 261 303 261 303 232 303 c 2,34,-1
 126 303 l 1,35,-1
 126 42 l 1,36,-1
 321 42 l 2,37,38
 368 42 368 42 394.5 45.5 c 128,-1,39
 421 49 421 49 444 62.5 c 128,-1,40
 467 76 467 76 476.5 103 c 128,-1,41
 486 130 486 130 486 175 c 2,21,-1
EndSplineSet
EndChar

StartChar: dcroat
Encoding: 273 273 210
Width: 580
GlyphClass: 2
Flags: W
LayerCount: 2
Fore
SplineSet
272 517 m 2,0,1
 246 517 246 517 246 539 c 0,2,3
 246 560 246 560 272 560 c 2,4,-1
 464 560 l 1,5,-1
 464 612 l 2,6,7
 464 643 464 643 487 643 c 0,8,9
 506 643 506 643 506 612 c 2,10,-1
 506 560 l 1,11,-1
 517 560 l 2,12,13
 546 560 546 560 546 537 c 0,14,15
 546 517 546 517 517 517 c 2,16,-1
 506 517 l 1,17,-1
 506 23 l 2,18,19
 506 -7 506 -7 485 -7 c 128,-1,20
 464 -7 464 -7 464 23 c 2,21,-1
 464 72 l 1,22,23
 410 0 410 0 299 0 c 2,24,-1
 270 0 l 2,25,26
 164 0 164 0 113 35 c 128,-1,27
 62 70 62 70 62 175 c 2,28,-1
 62 286 l 2,29,30
 62 391 62 391 113 426 c 128,-1,31
 164 461 164 461 270 461 c 2,32,-1
 464 461 l 1,33,-1
 464 517 l 1,34,-1
 272 517 l 2,0,1
104 175 m 2,35,36
 104 130 104 130 113.5 103 c 128,-1,37
 123 76 123 76 146 62.5 c 128,-1,38
 169 49 169 49 195.5 45.5 c 128,-1,39
 222 42 222 42 270 42 c 2,40,-1
 299 42 l 2,41,42
 378 42 378 42 421 90 c 128,-1,43
 464 138 464 138 464 228 c 2,44,-1
 464 419 l 1,45,-1
 270 419 l 2,46,47
 222 419 222 419 195.5 415.5 c 128,-1,48
 169 412 169 412 146 398.5 c 128,-1,49
 123 385 123 385 113.5 358 c 128,-1,50
 104 331 104 331 104 286 c 2,51,-1
 104 175 l 2,35,36
EndSplineSet
EndChar

StartChar: Emacron
Encoding: 274 274 211
Width: 577
GlyphClass: 2
Flags: W
LayerCount: 2
Fore
SplineSet
177 706 m 2,0,1
 151 706 151 706 151 728 c 0,2,3
 151 749 151 749 177 749 c 2,4,-1
 422 749 l 2,5,6
 451 749 451 749 451 726 c 0,7,8
 451 706 451 706 422 706 c 2,9,-1
 177 706 l 2,0,1
126 337 m 1,10,-1
 126 42 l 1,11,-1
 499 42 l 2,12,13
 528 42 528 42 528 19 c 0,14,15
 528 0 528 0 499 0 c 2,16,-1
 103 0 l 2,17,18
 84 0 84 0 84 31 c 2,19,-1
 84 605 l 2,20,21
 84 636 84 636 103 636 c 2,22,-1
 499 636 l 2,23,24
 528 636 528 636 528 613 c 0,25,26
 528 594 528 594 499 594 c 2,27,-1
 126 594 l 1,28,-1
 126 379 l 1,29,-1
 381 379 l 2,30,31
 411 379 411 379 411 356 c 0,32,33
 411 337 411 337 381 337 c 2,34,-1
 126 337 l 1,10,-1
EndSplineSet
EndChar

StartChar: emacron
Encoding: 275 275 212
Width: 566
GlyphClass: 2
Flags: W
LayerCount: 2
Fore
SplineSet
161 522 m 2,0,1
 135 522 135 522 135 544 c 0,2,3
 135 565 135 565 161 565 c 2,4,-1
 406 565 l 2,5,6
 435 565 435 565 435 542 c 0,7,8
 435 522 435 522 406 522 c 2,9,-1
 161 522 l 2,0,1
506 286 m 2,10,-1
 506 250 l 1,11,-1
 104 250 l 1,12,-1
 104 175 l 2,13,14
 104 130 104 130 113.5 103 c 128,-1,15
 123 76 123 76 146 62.5 c 128,-1,16
 169 49 169 49 195.5 45.5 c 128,-1,17
 222 42 222 42 270 42 c 2,18,-1
 404 42 l 2,19,20
 438 42 438 42 451 57 c 128,-1,21
 464 72 464 72 464 109 c 0,22,23
 464 137 464 137 485 137 c 128,-1,24
 506 137 506 137 506 106 c 0,25,26
 506 84 506 84 503 68 c 128,-1,27
 500 52 500 52 491.5 35 c 128,-1,28
 483 18 483 18 462.5 9 c 128,-1,29
 442 0 442 0 411 0 c 2,30,-1
 270 0 l 2,31,32
 164 0 164 0 113 35 c 128,-1,33
 62 70 62 70 62 175 c 2,34,-1
 62 286 l 2,35,36
 62 391 62 391 113 426 c 128,-1,37
 164 461 164 461 270 461 c 2,38,-1
 299 461 l 2,39,40
 404 461 404 461 455 426 c 128,-1,41
 506 391 506 391 506 286 c 2,10,-1
299 419 m 2,42,-1
 270 419 l 2,43,44
 178 419 178 419 141 396 c 128,-1,45
 104 373 104 373 104 292 c 1,46,-1
 464 292 l 1,47,48
 464 373 464 373 427 396 c 128,-1,49
 390 419 390 419 299 419 c 2,42,-1
EndSplineSet
EndChar

StartChar: Edotaccent
Encoding: 278 278 213
Width: 577
GlyphClass: 2
Flags: W
LayerCount: 2
Fore
SplineSet
255 742 m 128,-1,1
 255 756 255 756 270 767 c 128,-1,2
 285 778 285 778 301 778 c 0,3,4
 316 778 316 778 331.5 767 c 128,-1,5
 347 756 347 756 347 742 c 128,-1,6
 347 728 347 728 331.5 717 c 128,-1,7
 316 706 316 706 301 706 c 0,8,9
 285 706 285 706 270 717 c 128,-1,0
 255 728 255 728 255 742 c 128,-1,1
126 337 m 1,10,-1
 126 42 l 1,11,-1
 499 42 l 2,12,13
 528 42 528 42 528 19 c 0,14,15
 528 0 528 0 499 0 c 2,16,-1
 103 0 l 2,17,18
 84 0 84 0 84 31 c 2,19,-1
 84 605 l 2,20,21
 84 636 84 636 103 636 c 2,22,-1
 499 636 l 2,23,24
 528 636 528 636 528 613 c 0,25,26
 528 594 528 594 499 594 c 2,27,-1
 126 594 l 1,28,-1
 126 379 l 1,29,-1
 381 379 l 2,30,31
 411 379 411 379 411 356 c 0,32,33
 411 337 411 337 381 337 c 2,34,-1
 126 337 l 1,10,-1
EndSplineSet
EndChar

StartChar: edotaccent
Encoding: 279 279 214
Width: 566
GlyphClass: 2
Flags: W
LayerCount: 2
Fore
SplineSet
239 558 m 128,-1,1
 239 572 239 572 254 583 c 128,-1,2
 269 594 269 594 285 594 c 0,3,4
 300 594 300 594 315.5 583 c 128,-1,5
 331 572 331 572 331 558 c 128,-1,6
 331 544 331 544 315.5 533 c 128,-1,7
 300 522 300 522 285 522 c 0,8,9
 269 522 269 522 254 533 c 128,-1,0
 239 544 239 544 239 558 c 128,-1,1
506 286 m 2,10,-1
 506 250 l 1,11,-1
 104 250 l 1,12,-1
 104 175 l 2,13,14
 104 130 104 130 113.5 103 c 128,-1,15
 123 76 123 76 146 62.5 c 128,-1,16
 169 49 169 49 195.5 45.5 c 128,-1,17
 222 42 222 42 270 42 c 2,18,-1
 404 42 l 2,19,20
 438 42 438 42 451 57 c 128,-1,21
 464 72 464 72 464 109 c 0,22,23
 464 137 464 137 485 137 c 128,-1,24
 506 137 506 137 506 106 c 0,25,26
 506 84 506 84 503 68 c 128,-1,27
 500 52 500 52 491.5 35 c 128,-1,28
 483 18 483 18 462.5 9 c 128,-1,29
 442 0 442 0 411 0 c 2,30,-1
 270 0 l 2,31,32
 164 0 164 0 113 35 c 128,-1,33
 62 70 62 70 62 175 c 2,34,-1
 62 286 l 2,35,36
 62 391 62 391 113 426 c 128,-1,37
 164 461 164 461 270 461 c 2,38,-1
 299 461 l 2,39,40
 404 461 404 461 455 426 c 128,-1,41
 506 391 506 391 506 286 c 2,10,-1
299 419 m 2,42,-1
 270 419 l 2,43,44
 178 419 178 419 141 396 c 128,-1,45
 104 373 104 373 104 292 c 1,46,-1
 464 292 l 1,47,48
 464 373 464 373 427 396 c 128,-1,49
 390 419 390 419 299 419 c 2,42,-1
EndSplineSet
EndChar

StartChar: Eogonek
Encoding: 280 280 215
Width: 577
GlyphClass: 2
Flags: W
LayerCount: 2
Fore
SplineSet
401 -156 m 0,0,1
 401 -180 401 -180 375.5 -190.5 c 128,-1,2
 350 -201 350 -201 327 -201 c 0,3,4
 287 -201 287 -201 261.5 -173.5 c 128,-1,5
 236 -146 236 -146 236 -102 c 0,6,7
 236 -65 236 -65 285 0 c 1,8,-1
 103 0 l 2,9,10
 84 0 84 0 84 31 c 2,11,-1
 84 605 l 2,12,13
 84 636 84 636 103 636 c 2,14,-1
 499 636 l 2,15,16
 528 636 528 636 528 613 c 0,17,18
 528 594 528 594 499 594 c 2,19,-1
 126 594 l 1,20,-1
 126 379 l 1,21,-1
 381 379 l 2,22,23
 411 379 411 379 411 356 c 0,24,25
 411 337 411 337 381 337 c 2,26,-1
 126 337 l 1,27,-1
 126 42 l 1,28,-1
 499 42 l 2,29,30
 528 42 528 42 528 19 c 0,31,32
 528 0 528 0 499 0 c 2,33,-1
 341 0 l 1,34,35
 322 -11 322 -11 300 -47.5 c 128,-1,36
 278 -84 278 -84 278 -102 c 0,37,38
 278 -161 278 -161 325 -161 c 0,39,40
 342 -161 342 -161 365 -152 c 128,-1,41
 388 -143 388 -143 391 -143 c 0,42,43
 401 -143 401 -143 401 -156 c 0,0,1
EndSplineSet
EndChar

StartChar: eogonek
Encoding: 281 281 216
Width: 566
GlyphClass: 2
Flags: W
LayerCount: 2
Fore
SplineSet
431 -156 m 0,0,1
 431 -180 431 -180 405.5 -190.5 c 128,-1,2
 380 -201 380 -201 357 -201 c 0,3,4
 317 -201 317 -201 291.5 -173.5 c 128,-1,5
 266 -146 266 -146 266 -102 c 0,6,7
 266 -65 266 -65 315 0 c 1,8,-1
 270 0 l 2,9,10
 164 0 164 0 113 35 c 128,-1,11
 62 70 62 70 62 175 c 2,12,-1
 62 286 l 2,13,14
 62 391 62 391 113 426 c 128,-1,15
 164 461 164 461 270 461 c 2,16,-1
 299 461 l 2,17,18
 404 461 404 461 455 426 c 128,-1,19
 506 391 506 391 506 286 c 2,20,-1
 506 250 l 1,21,-1
 104 250 l 1,22,-1
 104 175 l 2,23,24
 104 130 104 130 113.5 103 c 128,-1,25
 123 76 123 76 146 62.5 c 128,-1,26
 169 49 169 49 195.5 45.5 c 128,-1,27
 222 42 222 42 270 42 c 2,28,-1
 404 42 l 2,29,30
 438 42 438 42 451 57 c 128,-1,31
 464 72 464 72 464 109 c 0,32,33
 464 137 464 137 485 137 c 128,-1,34
 506 137 506 137 506 106 c 0,35,36
 506 84 506 84 503 68 c 128,-1,37
 500 52 500 52 491.5 35 c 128,-1,38
 483 18 483 18 462.5 9 c 128,-1,39
 442 0 442 0 411 0 c 2,40,-1
 371 0 l 1,41,42
 352 -11 352 -11 330 -47.5 c 128,-1,43
 308 -84 308 -84 308 -102 c 0,44,45
 308 -161 308 -161 355 -161 c 0,46,47
 372 -161 372 -161 395 -152 c 128,-1,48
 418 -143 418 -143 421 -143 c 0,49,50
 431 -143 431 -143 431 -156 c 0,0,1
299 419 m 2,51,-1
 270 419 l 2,52,53
 178 419 178 419 141 396 c 128,-1,54
 104 373 104 373 104 292 c 1,55,-1
 464 292 l 1,56,57
 464 373 464 373 427 396 c 128,-1,58
 390 419 390 419 299 419 c 2,51,-1
EndSplineSet
EndChar

StartChar: Ecaron
Encoding: 282 282 217
Width: 577
GlyphClass: 2
Flags: W
LayerCount: 2
Fore
SplineSet
324 678 m 1,0,-1
 272 678 l 1,1,-1
 170 785 l 2,2,3
 164 791 164 791 164 797 c 0,4,5
 164 812 164 812 182 812 c 0,6,7
 192 812 192 812 211 796 c 2,8,-1
 298 724 l 1,9,-1
 385 796 l 2,10,11
 404 812 404 812 414 812 c 0,12,13
 432 812 432 812 432 797 c 0,14,15
 432 791 432 791 426 785 c 2,16,-1
 324 678 l 1,0,-1
126 337 m 1,17,-1
 126 42 l 1,18,-1
 499 42 l 2,19,20
 528 42 528 42 528 19 c 0,21,22
 528 0 528 0 499 0 c 2,23,-1
 103 0 l 2,24,25
 84 0 84 0 84 31 c 2,26,-1
 84 605 l 2,27,28
 84 636 84 636 103 636 c 2,29,-1
 499 636 l 2,30,31
 528 636 528 636 528 613 c 0,32,33
 528 594 528 594 499 594 c 2,34,-1
 126 594 l 1,35,-1
 126 379 l 1,36,-1
 381 379 l 2,37,38
 411 379 411 379 411 356 c 0,39,40
 411 337 411 337 381 337 c 2,41,-1
 126 337 l 1,17,-1
EndSplineSet
EndChar

StartChar: ecaron
Encoding: 283 283 218
Width: 566
GlyphClass: 2
Flags: W
LayerCount: 2
Fore
SplineSet
310 522 m 1,0,-1
 258 522 l 1,1,-1
 156 629 l 2,2,3
 150 635 150 635 150 641 c 0,4,5
 150 656 150 656 168 656 c 0,6,7
 178 656 178 656 197 640 c 2,8,-1
 284 568 l 1,9,-1
 371 640 l 2,10,11
 390 656 390 656 400 656 c 0,12,13
 418 656 418 656 418 641 c 0,14,15
 418 635 418 635 412 629 c 2,16,-1
 310 522 l 1,0,-1
506 286 m 2,17,-1
 506 250 l 1,18,-1
 104 250 l 1,19,-1
 104 175 l 2,20,21
 104 130 104 130 113.5 103 c 128,-1,22
 123 76 123 76 146 62.5 c 128,-1,23
 169 49 169 49 195.5 45.5 c 128,-1,24
 222 42 222 42 270 42 c 2,25,-1
 404 42 l 2,26,27
 438 42 438 42 451 57 c 128,-1,28
 464 72 464 72 464 109 c 0,29,30
 464 137 464 137 485 137 c 128,-1,31
 506 137 506 137 506 106 c 0,32,33
 506 84 506 84 503 68 c 128,-1,34
 500 52 500 52 491.5 35 c 128,-1,35
 483 18 483 18 462.5 9 c 128,-1,36
 442 0 442 0 411 0 c 2,37,-1
 270 0 l 2,38,39
 164 0 164 0 113 35 c 128,-1,40
 62 70 62 70 62 175 c 2,41,-1
 62 286 l 2,42,43
 62 391 62 391 113 426 c 128,-1,44
 164 461 164 461 270 461 c 2,45,-1
 299 461 l 2,46,47
 404 461 404 461 455 426 c 128,-1,48
 506 391 506 391 506 286 c 2,17,-1
299 419 m 2,49,-1
 270 419 l 2,50,51
 178 419 178 419 141 396 c 128,-1,52
 104 373 104 373 104 292 c 1,53,-1
 464 292 l 1,54,55
 464 373 464 373 427 396 c 128,-1,56
 390 419 390 419 299 419 c 2,49,-1
EndSplineSet
EndChar

StartChar: Gcircumflex
Encoding: 284 284 219
Width: 585
GlyphClass: 2
Flags: W
LayerCount: 2
Fore
SplineSet
304 773 m 1,0,-1
 301 773 l 1,1,-1
 209 669 l 2,2,3
 207 667 207 667 203.5 663 c 128,-1,4
 200 659 200 659 198.5 657.5 c 128,-1,5
 197 656 197 656 194.5 654 c 128,-1,6
 192 652 192 652 190 651.5 c 128,-1,7
 188 651 188 651 185 651 c 0,8,9
 167 651 167 651 167 669 c 0,10,11
 167 678 167 678 171 682 c 2,12,-1
 275 819 l 1,13,-1
 330 819 l 1,14,-1
 436 682 l 2,15,16
 440 677 440 677 440 669 c 0,17,18
 440 651 440 651 422 651 c 0,19,20
 418 651 418 651 414.5 652.5 c 128,-1,21
 411 654 411 654 409.5 655.5 c 128,-1,22
 408 657 408 657 404 662 c 128,-1,23
 400 667 400 667 398 669 c 2,24,-1
 304 773 l 1,0,-1
474 251 m 1,25,-1
 341 251 l 2,26,27
 311 251 311 251 311 271 c 0,28,29
 311 293 311 293 341 293 c 2,30,-1
 516 293 l 1,31,-1
 516 106 l 2,32,33
 516 84 516 84 513 68 c 128,-1,34
 510 52 510 52 501.5 35 c 128,-1,35
 493 18 493 18 472.5 9 c 128,-1,36
 452 0 452 0 421 0 c 2,37,-1
 280 0 l 2,38,39
 228 0 228 0 194 6 c 128,-1,40
 160 12 160 12 130 30 c 128,-1,41
 100 48 100 48 86 84 c 128,-1,42
 72 120 72 120 72 175 c 2,43,-1
 72 461 l 2,44,45
 72 516 72 516 86 552 c 128,-1,46
 100 588 100 588 130 606 c 128,-1,47
 160 624 160 624 194 630 c 128,-1,48
 228 636 228 636 280 636 c 2,49,-1
 421 636 l 2,50,51
 452 636 452 636 472.5 627 c 128,-1,52
 493 618 493 618 501.5 601 c 128,-1,53
 510 584 510 584 513 568 c 128,-1,54
 516 552 516 552 516 530 c 0,55,56
 516 499 516 499 495 499 c 128,-1,57
 474 499 474 499 474 528 c 0,58,59
 474 564 474 564 461 579 c 128,-1,60
 448 594 448 594 414 594 c 2,61,-1
 280 594 l 2,62,63
 232 594 232 594 205.5 590.5 c 128,-1,64
 179 587 179 587 156 573.5 c 128,-1,65
 133 560 133 560 123.5 533 c 128,-1,66
 114 506 114 506 114 461 c 2,67,-1
 114 175 l 2,68,69
 114 130 114 130 123.5 103 c 128,-1,70
 133 76 133 76 156 62.5 c 128,-1,71
 179 49 179 49 205.5 45.5 c 128,-1,72
 232 42 232 42 280 42 c 2,73,-1
 414 42 l 2,74,75
 448 42 448 42 461 57 c 128,-1,76
 474 72 474 72 474 108 c 2,77,-1
 474 251 l 1,25,-1
EndSplineSet
EndChar

StartChar: gcircumflex
Encoding: 285 285 220
Width: 581
GlyphClass: 2
Flags: W
LayerCount: 2
Fore
SplineSet
284 651 m 1,0,-1
 281 651 l 1,1,-1
 189 547 l 2,2,3
 187 545 187 545 183.5 541 c 128,-1,4
 180 537 180 537 178.5 535.5 c 128,-1,5
 177 534 177 534 174.5 532 c 128,-1,6
 172 530 172 530 170 529.5 c 128,-1,7
 168 529 168 529 165 529 c 0,8,9
 147 529 147 529 147 547 c 0,10,11
 147 556 147 556 151 560 c 2,12,-1
 255 697 l 1,13,-1
 310 697 l 1,14,-1
 416 560 l 2,15,16
 420 555 420 555 420 547 c 0,17,18
 420 529 420 529 402 529 c 0,19,20
 398 529 398 529 394.5 530.5 c 128,-1,21
 391 532 391 532 389.5 533.5 c 128,-1,22
 388 535 388 535 384 540 c 128,-1,23
 380 545 380 545 378 547 c 2,24,-1
 284 651 l 1,0,-1
62 286 m 2,25,26
 62 391 62 391 113 426 c 128,-1,27
 164 461 164 461 270 461 c 2,28,-1
 299 461 l 2,29,30
 410 461 410 461 464 389 c 1,31,-1
 464 438 l 2,32,33
 464 468 464 468 485 468 c 128,-1,34
 506 468 506 468 506 438 c 2,35,-1
 506 -92 l 2,36,37
 506 -156 506 -156 488 -180.5 c 128,-1,38
 470 -205 470 -205 420 -205 c 2,39,-1
 157 -205 l 2,40,41
 126 -205 126 -205 105.5 -196 c 128,-1,42
 85 -187 85 -187 76.5 -169.5 c 128,-1,43
 68 -152 68 -152 65 -136.5 c 128,-1,44
 62 -121 62 -121 62 -98 c 0,45,46
 62 -68 62 -68 83 -68 c 128,-1,47
 104 -68 104 -68 104 -96 c 0,48,49
 104 -132 104 -132 117 -147.5 c 128,-1,50
 130 -163 130 -163 164 -163 c 2,51,-1
 413 -163 l 2,52,53
 444 -163 444 -163 454 -151.5 c 128,-1,54
 464 -140 464 -140 464 -108 c 2,55,-1
 464 9 l 1,56,57
 444 0 444 0 411 0 c 2,58,-1
 270 0 l 2,59,60
 164 0 164 0 113 35 c 128,-1,61
 62 70 62 70 62 175 c 2,62,-1
 62 286 l 2,25,26
104 175 m 2,63,64
 104 130 104 130 113.5 103 c 128,-1,65
 123 76 123 76 146 62.5 c 128,-1,66
 169 49 169 49 195.5 45.5 c 128,-1,67
 222 42 222 42 270 42 c 2,68,-1
 404 42 l 2,69,70
 438 42 438 42 451 56.5 c 128,-1,71
 464 71 464 71 464 106 c 2,72,-1
 464 232 l 2,73,74
 464 322 464 322 421 370.5 c 128,-1,75
 378 419 378 419 299 419 c 2,76,-1
 270 419 l 2,77,78
 222 419 222 419 195.5 415.5 c 128,-1,79
 169 412 169 412 146 398.5 c 128,-1,80
 123 385 123 385 113.5 358 c 128,-1,81
 104 331 104 331 104 286 c 2,82,-1
 104 175 l 2,63,64
EndSplineSet
EndChar

StartChar: Gbreve
Encoding: 286 286 221
Width: 585
GlyphClass: 2
Flags: W
LayerCount: 2
Fore
SplineSet
420 819 m 1,0,1
 420 771 420 771 386 734.5 c 128,-1,2
 352 698 352 698 305 698 c 128,-1,3
 258 698 258 698 224 734.5 c 128,-1,4
 190 771 190 771 190 819 c 1,5,-1
 233 819 l 1,6,7
 233 785 233 785 252.5 763.5 c 128,-1,8
 272 742 272 742 305 742 c 128,-1,9
 338 742 338 742 357.5 763.5 c 128,-1,10
 377 785 377 785 377 819 c 1,11,-1
 420 819 l 1,0,1
474 251 m 1,12,-1
 341 251 l 2,13,14
 311 251 311 251 311 271 c 0,15,16
 311 293 311 293 341 293 c 2,17,-1
 516 293 l 1,18,-1
 516 106 l 2,19,20
 516 84 516 84 513 68 c 128,-1,21
 510 52 510 52 501.5 35 c 128,-1,22
 493 18 493 18 472.5 9 c 128,-1,23
 452 0 452 0 421 0 c 2,24,-1
 280 0 l 2,25,26
 228 0 228 0 194 6 c 128,-1,27
 160 12 160 12 130 30 c 128,-1,28
 100 48 100 48 86 84 c 128,-1,29
 72 120 72 120 72 175 c 2,30,-1
 72 461 l 2,31,32
 72 516 72 516 86 552 c 128,-1,33
 100 588 100 588 130 606 c 128,-1,34
 160 624 160 624 194 630 c 128,-1,35
 228 636 228 636 280 636 c 2,36,-1
 421 636 l 2,37,38
 452 636 452 636 472.5 627 c 128,-1,39
 493 618 493 618 501.5 601 c 128,-1,40
 510 584 510 584 513 568 c 128,-1,41
 516 552 516 552 516 530 c 0,42,43
 516 499 516 499 495 499 c 128,-1,44
 474 499 474 499 474 528 c 0,45,46
 474 564 474 564 461 579 c 128,-1,47
 448 594 448 594 414 594 c 2,48,-1
 280 594 l 2,49,50
 232 594 232 594 205.5 590.5 c 128,-1,51
 179 587 179 587 156 573.5 c 128,-1,52
 133 560 133 560 123.5 533 c 128,-1,53
 114 506 114 506 114 461 c 2,54,-1
 114 175 l 2,55,56
 114 130 114 130 123.5 103 c 128,-1,57
 133 76 133 76 156 62.5 c 128,-1,58
 179 49 179 49 205.5 45.5 c 128,-1,59
 232 42 232 42 280 42 c 2,60,-1
 414 42 l 2,61,62
 448 42 448 42 461 57 c 128,-1,63
 474 72 474 72 474 108 c 2,64,-1
 474 251 l 1,12,-1
EndSplineSet
EndChar

StartChar: gbreve
Encoding: 287 287 222
Width: 581
GlyphClass: 2
Flags: W
LayerCount: 2
Fore
SplineSet
398 650 m 1,0,1
 398 602 398 602 364 565.5 c 128,-1,2
 330 529 330 529 283 529 c 128,-1,3
 236 529 236 529 202 565.5 c 128,-1,4
 168 602 168 602 168 650 c 1,5,-1
 211 650 l 1,6,7
 211 616 211 616 230.5 594.5 c 128,-1,8
 250 573 250 573 283 573 c 128,-1,9
 316 573 316 573 335.5 594.5 c 128,-1,10
 355 616 355 616 355 650 c 1,11,-1
 398 650 l 1,0,1
62 286 m 2,12,13
 62 391 62 391 113 426 c 128,-1,14
 164 461 164 461 270 461 c 2,15,-1
 299 461 l 2,16,17
 410 461 410 461 464 389 c 1,18,-1
 464 438 l 2,19,20
 464 468 464 468 485 468 c 128,-1,21
 506 468 506 468 506 438 c 2,22,-1
 506 -92 l 2,23,24
 506 -156 506 -156 488 -180.5 c 128,-1,25
 470 -205 470 -205 420 -205 c 2,26,-1
 157 -205 l 2,27,28
 126 -205 126 -205 105.5 -196 c 128,-1,29
 85 -187 85 -187 76.5 -169.5 c 128,-1,30
 68 -152 68 -152 65 -136.5 c 128,-1,31
 62 -121 62 -121 62 -98 c 0,32,33
 62 -68 62 -68 83 -68 c 128,-1,34
 104 -68 104 -68 104 -96 c 0,35,36
 104 -132 104 -132 117 -147.5 c 128,-1,37
 130 -163 130 -163 164 -163 c 2,38,-1
 413 -163 l 2,39,40
 444 -163 444 -163 454 -151.5 c 128,-1,41
 464 -140 464 -140 464 -108 c 2,42,-1
 464 9 l 1,43,44
 444 0 444 0 411 0 c 2,45,-1
 270 0 l 2,46,47
 164 0 164 0 113 35 c 128,-1,48
 62 70 62 70 62 175 c 2,49,-1
 62 286 l 2,12,13
104 175 m 2,50,51
 104 130 104 130 113.5 103 c 128,-1,52
 123 76 123 76 146 62.5 c 128,-1,53
 169 49 169 49 195.5 45.5 c 128,-1,54
 222 42 222 42 270 42 c 2,55,-1
 404 42 l 2,56,57
 438 42 438 42 451 56.5 c 128,-1,58
 464 71 464 71 464 106 c 2,59,-1
 464 232 l 2,60,61
 464 322 464 322 421 370.5 c 128,-1,62
 378 419 378 419 299 419 c 2,63,-1
 270 419 l 2,64,65
 222 419 222 419 195.5 415.5 c 128,-1,66
 169 412 169 412 146 398.5 c 128,-1,67
 123 385 123 385 113.5 358 c 128,-1,68
 104 331 104 331 104 286 c 2,69,-1
 104 175 l 2,50,51
EndSplineSet
EndChar

StartChar: Gdotaccent
Encoding: 288 288 223
Width: 585
GlyphClass: 2
Flags: W
LayerCount: 2
Fore
SplineSet
243 742 m 128,-1,1
 243 756 243 756 258 767 c 128,-1,2
 273 778 273 778 289 778 c 0,3,4
 304 778 304 778 319.5 767 c 128,-1,5
 335 756 335 756 335 742 c 128,-1,6
 335 728 335 728 319.5 717 c 128,-1,7
 304 706 304 706 289 706 c 0,8,9
 273 706 273 706 258 717 c 128,-1,0
 243 728 243 728 243 742 c 128,-1,1
474 251 m 1,10,-1
 341 251 l 2,11,12
 311 251 311 251 311 271 c 0,13,14
 311 293 311 293 341 293 c 2,15,-1
 516 293 l 1,16,-1
 516 106 l 2,17,18
 516 84 516 84 513 68 c 128,-1,19
 510 52 510 52 501.5 35 c 128,-1,20
 493 18 493 18 472.5 9 c 128,-1,21
 452 0 452 0 421 0 c 2,22,-1
 280 0 l 2,23,24
 228 0 228 0 194 6 c 128,-1,25
 160 12 160 12 130 30 c 128,-1,26
 100 48 100 48 86 84 c 128,-1,27
 72 120 72 120 72 175 c 2,28,-1
 72 461 l 2,29,30
 72 516 72 516 86 552 c 128,-1,31
 100 588 100 588 130 606 c 128,-1,32
 160 624 160 624 194 630 c 128,-1,33
 228 636 228 636 280 636 c 2,34,-1
 421 636 l 2,35,36
 452 636 452 636 472.5 627 c 128,-1,37
 493 618 493 618 501.5 601 c 128,-1,38
 510 584 510 584 513 568 c 128,-1,39
 516 552 516 552 516 530 c 0,40,41
 516 499 516 499 495 499 c 128,-1,42
 474 499 474 499 474 528 c 0,43,44
 474 564 474 564 461 579 c 128,-1,45
 448 594 448 594 414 594 c 2,46,-1
 280 594 l 2,47,48
 232 594 232 594 205.5 590.5 c 128,-1,49
 179 587 179 587 156 573.5 c 128,-1,50
 133 560 133 560 123.5 533 c 128,-1,51
 114 506 114 506 114 461 c 2,52,-1
 114 175 l 2,53,54
 114 130 114 130 123.5 103 c 128,-1,55
 133 76 133 76 156 62.5 c 128,-1,56
 179 49 179 49 205.5 45.5 c 128,-1,57
 232 42 232 42 280 42 c 2,58,-1
 414 42 l 2,59,60
 448 42 448 42 461 57 c 128,-1,61
 474 72 474 72 474 108 c 2,62,-1
 474 251 l 1,10,-1
EndSplineSet
EndChar

StartChar: gdotaccent
Encoding: 289 289 224
Width: 581
GlyphClass: 2
Flags: W
LayerCount: 2
Fore
SplineSet
235 565 m 128,-1,1
 235 579 235 579 250 590 c 128,-1,2
 265 601 265 601 281 601 c 0,3,4
 296 601 296 601 311.5 590 c 128,-1,5
 327 579 327 579 327 565 c 128,-1,6
 327 551 327 551 311.5 540 c 128,-1,7
 296 529 296 529 281 529 c 0,8,9
 265 529 265 529 250 540 c 128,-1,0
 235 551 235 551 235 565 c 128,-1,1
62 286 m 2,10,11
 62 391 62 391 113 426 c 128,-1,12
 164 461 164 461 270 461 c 2,13,-1
 299 461 l 2,14,15
 410 461 410 461 464 389 c 1,16,-1
 464 438 l 2,17,18
 464 468 464 468 485 468 c 128,-1,19
 506 468 506 468 506 438 c 2,20,-1
 506 -92 l 2,21,22
 506 -156 506 -156 488 -180.5 c 128,-1,23
 470 -205 470 -205 420 -205 c 2,24,-1
 157 -205 l 2,25,26
 126 -205 126 -205 105.5 -196 c 128,-1,27
 85 -187 85 -187 76.5 -169.5 c 128,-1,28
 68 -152 68 -152 65 -136.5 c 128,-1,29
 62 -121 62 -121 62 -98 c 0,30,31
 62 -68 62 -68 83 -68 c 128,-1,32
 104 -68 104 -68 104 -96 c 0,33,34
 104 -132 104 -132 117 -147.5 c 128,-1,35
 130 -163 130 -163 164 -163 c 2,36,-1
 413 -163 l 2,37,38
 444 -163 444 -163 454 -151.5 c 128,-1,39
 464 -140 464 -140 464 -108 c 2,40,-1
 464 9 l 1,41,42
 444 0 444 0 411 0 c 2,43,-1
 270 0 l 2,44,45
 164 0 164 0 113 35 c 128,-1,46
 62 70 62 70 62 175 c 2,47,-1
 62 286 l 2,10,11
104 175 m 2,48,49
 104 130 104 130 113.5 103 c 128,-1,50
 123 76 123 76 146 62.5 c 128,-1,51
 169 49 169 49 195.5 45.5 c 128,-1,52
 222 42 222 42 270 42 c 2,53,-1
 404 42 l 2,54,55
 438 42 438 42 451 56.5 c 128,-1,56
 464 71 464 71 464 106 c 2,57,-1
 464 232 l 2,58,59
 464 322 464 322 421 370.5 c 128,-1,60
 378 419 378 419 299 419 c 2,61,-1
 270 419 l 2,62,63
 222 419 222 419 195.5 415.5 c 128,-1,64
 169 412 169 412 146 398.5 c 128,-1,65
 123 385 123 385 113.5 358 c 128,-1,66
 104 331 104 331 104 286 c 2,67,-1
 104 175 l 2,48,49
EndSplineSet
EndChar

StartChar: Gcommaaccent
Encoding: 290 290 225
Width: 585
GlyphClass: 2
Flags: W
LayerCount: 2
Fore
SplineSet
308 -64 m 0,0,1
 318 -64 318 -64 331 -69 c 128,-1,2
 344 -74 344 -74 344 -84 c 0,3,4
 344 -93 344 -93 340 -101 c 2,5,-1
 298 -184 l 1,6,7
 289 -205 289 -205 278 -205 c 0,8,9
 261 -205 261 -205 261 -185 c 0,10,11
 261 -179 261 -179 264 -170 c 2,12,-1
 288 -84 l 2,13,14
 294 -64 294 -64 308 -64 c 0,0,1
474 251 m 1,15,-1
 341 251 l 2,16,17
 311 251 311 251 311 271 c 0,18,19
 311 293 311 293 341 293 c 2,20,-1
 516 293 l 1,21,-1
 516 106 l 2,22,23
 516 84 516 84 513 68 c 128,-1,24
 510 52 510 52 501.5 35 c 128,-1,25
 493 18 493 18 472.5 9 c 128,-1,26
 452 0 452 0 421 0 c 2,27,-1
 280 0 l 2,28,29
 228 0 228 0 194 6 c 128,-1,30
 160 12 160 12 130 30 c 128,-1,31
 100 48 100 48 86 84 c 128,-1,32
 72 120 72 120 72 175 c 2,33,-1
 72 461 l 2,34,35
 72 516 72 516 86 552 c 128,-1,36
 100 588 100 588 130 606 c 128,-1,37
 160 624 160 624 194 630 c 128,-1,38
 228 636 228 636 280 636 c 2,39,-1
 421 636 l 2,40,41
 452 636 452 636 472.5 627 c 128,-1,42
 493 618 493 618 501.5 601 c 128,-1,43
 510 584 510 584 513 568 c 128,-1,44
 516 552 516 552 516 530 c 0,45,46
 516 499 516 499 495 499 c 128,-1,47
 474 499 474 499 474 528 c 0,48,49
 474 564 474 564 461 579 c 128,-1,50
 448 594 448 594 414 594 c 2,51,-1
 280 594 l 2,52,53
 232 594 232 594 205.5 590.5 c 128,-1,54
 179 587 179 587 156 573.5 c 128,-1,55
 133 560 133 560 123.5 533 c 128,-1,56
 114 506 114 506 114 461 c 2,57,-1
 114 175 l 2,58,59
 114 130 114 130 123.5 103 c 128,-1,60
 133 76 133 76 156 62.5 c 128,-1,61
 179 49 179 49 205.5 45.5 c 128,-1,62
 232 42 232 42 280 42 c 2,63,-1
 414 42 l 2,64,65
 448 42 448 42 461 57 c 128,-1,66
 474 72 474 72 474 108 c 2,67,-1
 474 251 l 1,15,-1
EndSplineSet
EndChar

StartChar: gcommaaccent
Encoding: 291 291 226
Width: 581
GlyphClass: 2
Flags: W
LayerCount: 2
Fore
SplineSet
287 529 m 0,0,1
 277 529 277 529 264 534 c 128,-1,2
 251 539 251 539 251 549 c 0,3,4
 251 558 251 558 255 566 c 2,5,-1
 297 649 l 1,6,7
 306 670 306 670 317 670 c 0,8,9
 334 670 334 670 334 650 c 0,10,11
 334 644 334 644 331 635 c 2,12,-1
 307 549 l 2,13,14
 301 529 301 529 287 529 c 0,0,1
62 286 m 2,15,16
 62 391 62 391 113 426 c 128,-1,17
 164 461 164 461 270 461 c 2,18,-1
 299 461 l 2,19,20
 410 461 410 461 464 389 c 1,21,-1
 464 438 l 2,22,23
 464 468 464 468 485 468 c 128,-1,24
 506 468 506 468 506 438 c 2,25,-1
 506 -92 l 2,26,27
 506 -156 506 -156 488 -180.5 c 128,-1,28
 470 -205 470 -205 420 -205 c 2,29,-1
 157 -205 l 2,30,31
 126 -205 126 -205 105.5 -196 c 128,-1,32
 85 -187 85 -187 76.5 -169.5 c 128,-1,33
 68 -152 68 -152 65 -136.5 c 128,-1,34
 62 -121 62 -121 62 -98 c 0,35,36
 62 -68 62 -68 83 -68 c 128,-1,37
 104 -68 104 -68 104 -96 c 0,38,39
 104 -132 104 -132 117 -147.5 c 128,-1,40
 130 -163 130 -163 164 -163 c 2,41,-1
 413 -163 l 2,42,43
 444 -163 444 -163 454 -151.5 c 128,-1,44
 464 -140 464 -140 464 -108 c 2,45,-1
 464 9 l 1,46,47
 444 0 444 0 411 0 c 2,48,-1
 270 0 l 2,49,50
 164 0 164 0 113 35 c 128,-1,51
 62 70 62 70 62 175 c 2,52,-1
 62 286 l 2,15,16
104 175 m 2,53,54
 104 130 104 130 113.5 103 c 128,-1,55
 123 76 123 76 146 62.5 c 128,-1,56
 169 49 169 49 195.5 45.5 c 128,-1,57
 222 42 222 42 270 42 c 2,58,-1
 404 42 l 2,59,60
 438 42 438 42 451 56.5 c 128,-1,61
 464 71 464 71 464 106 c 2,62,-1
 464 232 l 2,63,64
 464 322 464 322 421 370.5 c 128,-1,65
 378 419 378 419 299 419 c 2,66,-1
 270 419 l 2,67,68
 222 419 222 419 195.5 415.5 c 128,-1,69
 169 412 169 412 146 398.5 c 128,-1,70
 123 385 123 385 113.5 358 c 128,-1,71
 104 331 104 331 104 286 c 2,72,-1
 104 175 l 2,53,54
EndSplineSet
EndChar

StartChar: Hcircumflex
Encoding: 292 292 227
Width: 612
GlyphClass: 2
Flags: W
LayerCount: 2
Fore
SplineSet
305 773 m 1,0,-1
 302 773 l 1,1,-1
 210 669 l 2,2,3
 194 651 194 651 186 651 c 0,4,5
 168 651 168 651 168 669 c 0,6,7
 168 678 168 678 172 682 c 2,8,-1
 276 819 l 1,9,-1
 331 819 l 1,10,-1
 437 682 l 2,11,12
 441 677 441 677 441 669 c 0,13,14
 441 651 441 651 423 651 c 0,15,16
 419 651 419 651 415.5 652.5 c 128,-1,17
 412 654 412 654 410.5 655.5 c 128,-1,18
 409 657 409 657 405 662 c 128,-1,19
 401 667 401 667 399 669 c 2,20,-1
 305 773 l 1,0,-1
126 23 m 2,21,22
 126 -7 126 -7 105 -7 c 128,-1,23
 84 -7 84 -7 84 23 c 2,24,-1
 84 612 l 2,25,26
 84 643 84 643 103 643 c 0,27,28
 126 643 126 643 126 612 c 2,29,-1
 126 364 l 1,30,-1
 486 364 l 1,31,-1
 486 612 l 2,32,33
 486 643 486 643 506 643 c 0,34,35
 528 643 528 643 528 612 c 2,36,-1
 528 23 l 2,37,38
 528 -7 528 -7 508 -7 c 0,39,40
 486 -7 486 -7 486 23 c 2,41,-1
 486 322 l 1,42,-1
 126 322 l 1,43,-1
 126 23 l 2,21,22
EndSplineSet
EndChar

StartChar: hcircumflex
Encoding: 293 293 228
Width: 588
GlyphClass: 2
Flags: W
LayerCount: 2
Fore
SplineSet
297 773 m 1,0,-1
 294 773 l 1,1,-1
 202 669 l 2,2,3
 186 651 186 651 178 651 c 0,4,5
 160 651 160 651 160 669 c 0,6,7
 160 678 160 678 164 682 c 2,8,-1
 268 819 l 1,9,-1
 323 819 l 1,10,-1
 429 682 l 2,11,12
 433 677 433 677 433 669 c 0,13,14
 433 651 433 651 415 651 c 0,15,16
 411 651 411 651 407.5 652.5 c 128,-1,17
 404 654 404 654 402.5 655.5 c 128,-1,18
 401 657 401 657 397 662 c 128,-1,19
 393 667 393 667 391 669 c 2,20,-1
 297 773 l 1,0,-1
282 419 m 2,21,22
 202 419 202 419 159 370.5 c 128,-1,23
 116 322 116 322 116 232 c 2,24,-1
 116 23 l 2,25,26
 116 -7 116 -7 95 -7 c 128,-1,27
 74 -7 74 -7 74 23 c 2,28,-1
 74 612 l 2,29,30
 74 643 74 643 93 643 c 0,31,32
 116 643 116 643 116 612 c 2,33,-1
 116 389 l 1,34,35
 172 461 172 461 282 461 c 2,36,-1
 311 461 l 2,37,38
 416 461 416 461 467 426 c 128,-1,39
 518 391 518 391 518 286 c 2,40,-1
 518 23 l 2,41,42
 518 -7 518 -7 498 -7 c 0,43,44
 476 -7 476 -7 476 23 c 2,45,-1
 476 286 l 2,46,47
 476 331 476 331 466.5 358 c 128,-1,48
 457 385 457 385 434 398.5 c 128,-1,49
 411 412 411 412 384.5 415.5 c 128,-1,50
 358 419 358 419 311 419 c 2,51,-1
 282 419 l 2,21,22
EndSplineSet
EndChar

StartChar: Hbar
Encoding: 294 294 229
Width: 614
GlyphClass: 2
Flags: W
LayerCount: 2
Fore
SplineSet
53 508 m 2,0,1
 27 508 27 508 27 530 c 0,2,3
 27 551 27 551 53 551 c 2,4,-1
 85 551 l 1,5,-1
 85 612 l 2,6,7
 85 643 85 643 104 643 c 0,8,9
 127 643 127 643 127 612 c 2,10,-1
 127 551 l 1,11,-1
 487 551 l 1,12,-1
 487 612 l 2,13,14
 487 643 487 643 507 643 c 0,15,16
 529 643 529 643 529 612 c 2,17,-1
 529 551 l 1,18,-1
 558 551 l 2,19,20
 587 551 587 551 587 528 c 0,21,22
 587 508 587 508 558 508 c 2,23,-1
 529 508 l 1,24,-1
 529 23 l 2,25,26
 529 -7 529 -7 509 -7 c 0,27,28
 487 -7 487 -7 487 23 c 2,29,-1
 487 322 l 1,30,-1
 127 322 l 1,31,-1
 127 23 l 2,32,33
 127 -7 127 -7 106 -7 c 128,-1,34
 85 -7 85 -7 85 23 c 2,35,-1
 85 508 l 1,36,-1
 53 508 l 2,0,1
487 508 m 1,37,-1
 127 508 l 1,38,-1
 127 364 l 1,39,-1
 487 364 l 1,40,-1
 487 508 l 1,37,-1
EndSplineSet
EndChar

StartChar: hbar
Encoding: 295 295 230
Width: 588
GlyphClass: 2
Flags: W
LayerCount: 2
Fore
SplineSet
518 23 m 2,0,1
 518 -7 518 -7 498 -7 c 0,2,3
 476 -7 476 -7 476 23 c 2,4,-1
 476 286 l 2,5,6
 476 331 476 331 466.5 358 c 128,-1,7
 457 385 457 385 434 398.5 c 128,-1,8
 411 412 411 412 384.5 415.5 c 128,-1,9
 358 419 358 419 311 419 c 2,10,-1
 282 419 l 2,11,12
 202 419 202 419 159 370.5 c 128,-1,13
 116 322 116 322 116 232 c 2,14,-1
 116 23 l 2,15,16
 116 -7 116 -7 95 -7 c 128,-1,17
 74 -7 74 -7 74 23 c 2,18,-1
 74 510 l 1,19,20
 49 510 49 510 49 532 c 0,21,22
 49 553 49 553 74 553 c 1,23,-1
 74 612 l 2,24,25
 74 643 74 643 93 643 c 0,26,27
 116 643 116 643 116 612 c 2,28,-1
 116 553 l 1,29,-1
 320 553 l 2,30,31
 349 553 349 553 349 530 c 0,32,33
 349 510 349 510 320 510 c 2,34,-1
 116 510 l 1,35,-1
 116 389 l 1,36,37
 172 461 172 461 282 461 c 2,38,-1
 311 461 l 2,39,40
 416 461 416 461 467 426 c 128,-1,41
 518 391 518 391 518 286 c 2,42,-1
 518 23 l 2,0,1
EndSplineSet
EndChar

StartChar: Itilde
Encoding: 296 296 231
Width: 210
GlyphClass: 2
Flags: W
LayerCount: 2
Fore
SplineSet
152 755 m 2,0,1
 156 753 156 753 159 753 c 0,2,3
 163 753 163 753 170 758 c 2,4,-1
 201 786 l 1,5,6
 212 794 212 794 220 794 c 128,-1,7
 228 794 228 794 234.5 789 c 128,-1,8
 241 784 241 784 241 776 c 0,9,10
 241 764 241 764 229 753 c 2,11,-1
 182 714 l 2,12,13
 175 707 175 707 166 707 c 0,14,15
 162 707 162 707 156 709 c 2,16,-1
 58 745 l 2,17,18
 54 747 54 747 50 747 c 128,-1,19
 46 747 46 747 39 742 c 2,20,-1
 8 714 l 1,21,22
 -3 706 -3 706 -11 706 c 0,23,24
 -18 706 -18 706 -24.5 711.5 c 128,-1,25
 -31 717 -31 717 -31 725 c 0,26,27
 -31 738 -31 738 -19 747 c 2,28,-1
 28 786 l 1,29,30
 33 793 33 793 43 793 c 0,31,32
 46 793 46 793 54 791 c 2,33,-1
 152 755 l 2,0,1
126 20 m 2,34,35
 126 -7 126 -7 104 -7 c 0,36,37
 84 -7 84 -7 84 20 c 2,38,-1
 84 615 l 2,39,40
 84 643 84 643 105 643 c 128,-1,41
 126 643 126 643 126 615 c 2,42,-1
 126 20 l 2,34,35
EndSplineSet
EndChar

StartChar: itilde
Encoding: 297 297 232
Width: 190
GlyphClass: 2
Flags: W
LayerCount: 2
Fore
SplineSet
142 578 m 2,0,1
 146 576 146 576 149 576 c 0,2,3
 153 576 153 576 160 581 c 2,4,-1
 191 609 l 1,5,6
 202 617 202 617 210 617 c 128,-1,7
 218 617 218 617 224.5 612 c 128,-1,8
 231 607 231 607 231 599 c 0,9,10
 231 587 231 587 219 576 c 2,11,-1
 172 537 l 2,12,13
 165 530 165 530 156 530 c 0,14,15
 152 530 152 530 146 532 c 2,16,-1
 48 568 l 2,17,18
 44 570 44 570 40 570 c 128,-1,19
 36 570 36 570 29 565 c 2,20,-1
 -2 537 l 1,21,22
 -13 529 -13 529 -21 529 c 0,23,24
 -28 529 -28 529 -34.5 534.5 c 128,-1,25
 -41 540 -41 540 -41 548 c 0,26,27
 -41 561 -41 561 -29 570 c 2,28,-1
 18 609 l 1,29,30
 23 616 23 616 33 616 c 0,31,32
 36 616 36 616 44 614 c 2,33,-1
 142 578 l 2,0,1
116 20 m 2,34,35
 116 -7 116 -7 94 -7 c 0,36,37
 74 -7 74 -7 74 20 c 2,38,-1
 74 440 l 2,39,40
 74 468 74 468 95 468 c 128,-1,41
 116 468 116 468 116 440 c 2,42,-1
 116 20 l 2,34,35
EndSplineSet
EndChar

StartChar: Imacron
Encoding: 298 298 233
Width: 210
GlyphClass: 2
Flags: W
LayerCount: 2
Fore
SplineSet
-19 706 m 2,0,1
 -45 706 -45 706 -45 728 c 0,2,3
 -45 749 -45 749 -19 749 c 2,4,-1
 226 749 l 2,5,6
 255 749 255 749 255 726 c 0,7,8
 255 706 255 706 226 706 c 2,9,-1
 -19 706 l 2,0,1
126 20 m 2,10,11
 126 -7 126 -7 104 -7 c 0,12,13
 84 -7 84 -7 84 20 c 2,14,-1
 84 615 l 2,15,16
 84 643 84 643 105 643 c 128,-1,17
 126 643 126 643 126 615 c 2,18,-1
 126 20 l 2,10,11
EndSplineSet
EndChar

StartChar: imacron
Encoding: 299 299 234
Width: 190
GlyphClass: 2
Flags: W
LayerCount: 2
Fore
SplineSet
-29 529 m 2,0,1
 -55 529 -55 529 -55 551 c 0,2,3
 -55 572 -55 572 -29 572 c 2,4,-1
 216 572 l 2,5,6
 245 572 245 572 245 549 c 0,7,8
 245 529 245 529 216 529 c 2,9,-1
 -29 529 l 2,0,1
116 20 m 2,10,11
 116 -7 116 -7 94 -7 c 0,12,13
 74 -7 74 -7 74 20 c 2,14,-1
 74 440 l 2,15,16
 74 468 74 468 95 468 c 128,-1,17
 116 468 116 468 116 440 c 2,18,-1
 116 20 l 2,10,11
EndSplineSet
EndChar

StartChar: Iogonek
Encoding: 302 302 235
Width: 211
GlyphClass: 2
Flags: W
LayerCount: 2
Fore
SplineSet
184 -151 m 0,0,1
 184 -175 184 -175 158.5 -185.5 c 128,-1,2
 133 -196 133 -196 110 -196 c 0,3,4
 70 -196 70 -196 44.5 -168.5 c 128,-1,5
 19 -141 19 -141 19 -97 c 0,6,7
 19 -75 19 -75 40.5 -37.5 c 128,-1,8
 62 0 62 0 85 26 c 1,9,-1
 85 615 l 2,10,11
 85 643 85 643 106 643 c 128,-1,12
 127 643 127 643 127 615 c 2,13,-1
 127 20 l 2,14,15
 127 -4 127 -4 110 -7 c 1,16,17
 92 -25 92 -25 76.5 -53.5 c 128,-1,18
 61 -82 61 -82 61 -97 c 0,19,20
 61 -156 61 -156 108 -156 c 0,21,22
 125 -156 125 -156 148 -147 c 128,-1,23
 171 -138 171 -138 174 -138 c 0,24,25
 184 -138 184 -138 184 -151 c 0,0,1
EndSplineSet
EndChar

StartChar: iogonek
Encoding: 303 303 236
Width: 192
GlyphClass: 2
Flags: W
LayerCount: 2
Fore
SplineSet
173 -155 m 0,0,1
 173 -179 173 -179 147.5 -189.5 c 128,-1,2
 122 -200 122 -200 99 -200 c 0,3,4
 59 -200 59 -200 33.5 -172.5 c 128,-1,5
 8 -145 8 -145 8 -101 c 0,6,7
 8 -78 8 -78 30.5 -39.5 c 128,-1,8
 53 -1 53 -1 76 24 c 1,9,-1
 76 440 l 2,10,11
 76 468 76 468 97 468 c 128,-1,12
 118 468 118 468 118 440 c 2,13,-1
 118 20 l 2,14,15
 118 -2 118 -2 104 -6 c 1,16,17
 86 -23 86 -23 68 -54 c 128,-1,18
 50 -85 50 -85 50 -101 c 0,19,20
 50 -160 50 -160 97 -160 c 0,21,22
 114 -160 114 -160 137 -151 c 128,-1,23
 160 -142 160 -142 163 -142 c 0,24,25
 173 -142 173 -142 173 -155 c 0,0,1
51 601 m 128,-1,27
 51 615 51 615 66 626 c 128,-1,28
 81 637 81 637 97 637 c 0,29,30
 112 637 112 637 127.5 626 c 128,-1,31
 143 615 143 615 143 601 c 128,-1,32
 143 587 143 587 127.5 576 c 128,-1,33
 112 565 112 565 97 565 c 0,34,35
 81 565 81 565 66 576 c 128,-1,26
 51 587 51 587 51 601 c 128,-1,27
EndSplineSet
EndChar

StartChar: Idotaccent
Encoding: 304 304 237
Width: 210
GlyphClass: 2
Flags: W
LayerCount: 2
Fore
SplineSet
59 742 m 128,-1,1
 59 756 59 756 74 767 c 128,-1,2
 89 778 89 778 105 778 c 0,3,4
 120 778 120 778 135.5 767 c 128,-1,5
 151 756 151 756 151 742 c 128,-1,6
 151 728 151 728 135.5 717 c 128,-1,7
 120 706 120 706 105 706 c 0,8,9
 89 706 89 706 74 717 c 128,-1,0
 59 728 59 728 59 742 c 128,-1,1
126 20 m 2,10,11
 126 -7 126 -7 104 -7 c 0,12,13
 84 -7 84 -7 84 20 c 2,14,-1
 84 615 l 2,15,16
 84 643 84 643 105 643 c 128,-1,17
 126 643 126 643 126 615 c 2,18,-1
 126 20 l 2,10,11
EndSplineSet
EndChar

StartChar: dotlessi
Encoding: 305 305 238
Width: 190
GlyphClass: 2
Flags: W
AnchorPoint: "Anchor-1" 95 0 basechar 0
AnchorPoint: "Anchor-0" 95 509 basechar 0
LayerCount: 2
Fore
SplineSet
116 20 m 2,0,1
 116 -7 116 -7 94 -7 c 0,2,3
 74 -7 74 -7 74 20 c 2,4,-1
 74 440 l 2,5,6
 74 468 74 468 95 468 c 128,-1,7
 116 468 116 468 116 440 c 2,8,-1
 116 20 l 2,0,1
EndSplineSet
EndChar

StartChar: Jcircumflex
Encoding: 308 308 239
Width: 530
GlyphClass: 2
Flags: W
LayerCount: 2
Fore
SplineSet
429 774 m 1,0,-1
 426 774 l 1,1,-1
 334 670 l 2,2,3
 318 652 318 652 310 652 c 0,4,5
 292 652 292 652 292 670 c 0,6,7
 292 679 292 679 296 683 c 2,8,-1
 400 820 l 1,9,-1
 455 820 l 1,10,-1
 561 683 l 2,11,12
 565 678 565 678 565 670 c 0,13,14
 565 652 565 652 547 652 c 0,15,16
 543 652 543 652 539.5 653.5 c 128,-1,17
 536 655 536 655 534.5 656.5 c 128,-1,18
 533 658 533 658 529 663 c 128,-1,19
 525 668 525 668 523 670 c 2,20,-1
 429 774 l 1,0,-1
241 34 m 0,21,22
 289 34 289 34 315.5 37.5 c 128,-1,23
 342 41 342 41 365 54.5 c 128,-1,24
 388 68 388 68 397.5 95 c 128,-1,25
 407 122 407 122 407 167 c 2,26,-1
 407 615 l 2,27,28
 407 643 407 643 428 643 c 128,-1,29
 449 643 449 643 449 615 c 2,30,-1
 449 167 l 2,31,32
 449 112 449 112 435 76 c 128,-1,33
 421 40 421 40 391 22 c 128,-1,34
 361 4 361 4 327 -2 c 128,-1,35
 293 -8 293 -8 241 -8 c 128,-1,36
 189 -8 189 -8 154.5 -2 c 128,-1,37
 120 4 120 4 90 22 c 128,-1,38
 60 40 60 40 46 76 c 128,-1,39
 32 112 32 112 32 167 c 0,40,41
 32 195 32 195 55 195 c 0,42,43
 75 195 75 195 75 167 c 0,44,45
 75 81 75 81 111 57.5 c 128,-1,46
 147 34 147 34 241 34 c 0,21,22
EndSplineSet
EndChar

StartChar: jcircumflex
Encoding: 309 309 240
Width: 192
GlyphClass: 2
Flags: W
LayerCount: 2
Fore
SplineSet
97 651 m 1,0,-1
 94 651 l 1,1,-1
 2 547 l 2,2,3
 -14 529 -14 529 -22 529 c 0,4,5
 -40 529 -40 529 -40 547 c 0,6,7
 -40 556 -40 556 -36 560 c 2,8,-1
 68 697 l 1,9,-1
 123 697 l 1,10,-1
 229 560 l 2,11,12
 233 555 233 555 233 547 c 0,13,14
 233 529 233 529 215 529 c 0,15,16
 211 529 211 529 207.5 530.5 c 128,-1,17
 204 532 204 532 202.5 533.5 c 128,-1,18
 201 535 201 535 197 540 c 128,-1,19
 193 545 193 545 191 547 c 2,20,-1
 97 651 l 1,0,-1
117 0 m 2,21,22
 117 -56 117 -56 103 -92 c 128,-1,23
 89 -128 89 -128 59 -145.5 c 128,-1,24
 29 -163 29 -163 -5 -169 c 128,-1,25
 -39 -175 -39 -175 -91 -175 c 0,26,27
 -122 -175 -122 -175 -122 -153 c 0,28,29
 -122 -133 -122 -133 -91 -133 c 0,30,31
 -43 -133 -43 -133 -16.5 -129.5 c 128,-1,32
 10 -126 10 -126 33 -112.5 c 128,-1,33
 56 -99 56 -99 65.5 -72 c 128,-1,34
 75 -45 75 -45 75 0 c 2,35,-1
 75 437 l 2,36,37
 75 468 75 468 97 468 c 0,38,39
 117 468 117 468 117 437 c 2,40,-1
 117 0 l 2,21,22
EndSplineSet
EndChar

StartChar: Kcommaaccent
Encoding: 310 310 241
Width: 497
GlyphClass: 2
Flags: W
LayerCount: 2
Fore
SplineSet
294 0 m 0,0,1
 304 0 304 0 317 -5 c 128,-1,2
 330 -10 330 -10 330 -20 c 0,3,4
 330 -29 330 -29 326 -37 c 2,5,-1
 284 -120 l 1,6,7
 275 -141 275 -141 264 -141 c 0,8,9
 247 -141 247 -141 247 -121 c 0,10,11
 247 -115 247 -115 250 -106 c 2,12,-1
 274 -20 l 2,13,14
 280 0 280 0 294 0 c 0,0,1
494 13 m 0,15,16
 494 5 494 5 487 -1 c 128,-1,17
 480 -7 480 -7 473 -7 c 0,18,19
 462 -7 462 -7 452 6 c 2,20,-1
 184 325 l 1,21,-1
 126 255 l 1,22,-1
 126 20 l 2,23,24
 126 -7 126 -7 104 -7 c 0,25,26
 84 -7 84 -7 84 20 c 2,27,-1
 84 615 l 2,28,29
 84 643 84 643 105 643 c 128,-1,30
 126 643 126 643 126 615 c 2,31,-1
 126 321 l 1,32,-1
 386 630 l 2,33,34
 396 643 396 643 407 643 c 0,35,36
 414 643 414 643 420.5 637.5 c 128,-1,37
 427 632 427 632 427 624 c 0,38,39
 427 614 427 614 418 603 c 2,40,-1
 212 357 l 1,41,-1
 484 33 l 1,42,43
 494 23 494 23 494 13 c 0,15,16
EndSplineSet
EndChar

StartChar: kcommaaccent
Encoding: 311 311 242
Width: 433
GlyphClass: 2
Flags: W
LayerCount: 2
Fore
SplineSet
244 0 m 0,0,1
 254 0 254 0 267 -5 c 128,-1,2
 280 -10 280 -10 280 -20 c 0,3,4
 280 -29 280 -29 276 -37 c 2,5,-1
 234 -120 l 1,6,7
 225 -141 225 -141 214 -141 c 0,8,9
 197 -141 197 -141 197 -121 c 0,10,11
 197 -115 197 -115 200 -106 c 2,12,-1
 224 -20 l 2,13,14
 230 0 230 0 244 0 c 0,0,1
421 14 m 0,15,16
 421 7 421 7 415.5 0.5 c 128,-1,17
 410 -6 410 -6 402 -6 c 0,18,19
 392 -6 392 -6 381 5 c 2,20,-1
 150 237 l 1,21,-1
 116 203 l 1,22,-1
 116 20 l 2,23,24
 116 -7 116 -7 94 -7 c 0,25,26
 74 -7 74 -7 74 20 c 2,27,-1
 74 615 l 2,28,29
 74 643 74 643 95 643 c 128,-1,30
 116 643 116 643 116 615 c 2,31,-1
 116 262 l 1,32,-1
 308 455 l 1,33,34
 321 466 321 466 329 466 c 0,35,36
 336 466 336 466 342.5 460 c 128,-1,37
 349 454 349 454 349 445 c 128,-1,38
 349 436 349 436 338 425 c 2,39,-1
 179 266 l 1,40,-1
 411 35 l 2,41,42
 421 25 421 25 421 14 c 0,15,16
EndSplineSet
EndChar

StartChar: kgreenlandic
Encoding: 312 312 243
Width: 437
GlyphClass: 2
Flags: W
LayerCount: 2
Fore
SplineSet
408 14 m 0,0,1
 408 7 408 7 402.5 0 c 128,-1,2
 397 -7 397 -7 389 -7 c 0,3,4
 380 -7 380 -7 369 2 c 2,5,-1
 116 214 l 1,6,-1
 116 20 l 2,7,8
 116 -7 116 -7 94 -7 c 0,9,10
 74 -7 74 -7 74 20 c 2,11,-1
 74 440 l 2,12,13
 74 468 74 468 95 468 c 128,-1,14
 116 468 116 468 116 440 c 2,15,-1
 116 250 l 1,16,-1
 368 461 l 2,17,18
 379 471 379 471 389 471 c 0,19,20
 397 471 397 471 402.5 464 c 128,-1,21
 408 457 408 457 408 450 c 0,22,23
 408 439 408 439 395 429 c 2,24,-1
 160 232 l 1,25,-1
 396 34 l 2,26,27
 408 24 408 24 408 14 c 0,0,1
EndSplineSet
EndChar

StartChar: Lacute
Encoding: 313 313 244
Width: 495
GlyphClass: 2
Flags: W
LayerCount: 2
Fore
SplineSet
206 799 m 0,0,1
 206 791 206 791 195 778 c 1,2,-1
 125 709 l 2,3,4
 115 698 115 698 105 698 c 0,5,6
 97 698 97 698 90.5 704.5 c 128,-1,7
 84 711 84 711 84 717 c 0,8,9
 84 727 84 727 96 739 c 2,10,-1
 165 808 l 2,11,12
 175 819 175 819 186 819 c 0,13,14
 194 819 194 819 200 812 c 128,-1,15
 206 805 206 805 206 799 c 0,0,1
103 0 m 2,16,17
 84 0 84 0 84 31 c 2,18,-1
 84 615 l 2,19,20
 84 643 84 643 105 643 c 128,-1,21
 126 643 126 643 126 615 c 2,22,-1
 126 42 l 1,23,-1
 444 42 l 2,24,25
 472 42 472 42 472 20 c 0,26,27
 472 0 472 0 444 0 c 2,28,-1
 103 0 l 2,16,17
EndSplineSet
EndChar

StartChar: lacute
Encoding: 314 314 245
Width: 260
GlyphClass: 2
Flags: W
LayerCount: 2
Fore
SplineSet
212 805 m 0,0,1
 212 797 212 797 201 784 c 1,2,-1
 131 715 l 2,3,4
 121 704 121 704 111 704 c 0,5,6
 103 704 103 704 96.5 710.5 c 128,-1,7
 90 717 90 717 90 723 c 0,8,9
 90 733 90 733 102 745 c 2,10,-1
 171 814 l 2,11,12
 181 825 181 825 192 825 c 0,13,14
 200 825 200 825 206 818 c 128,-1,15
 212 811 212 811 212 805 c 0,0,1
192 0 m 2,16,-1
 185 0 l 2,17,18
 130 0 130 0 110 27 c 128,-1,19
 90 54 90 54 90 124 c 2,20,-1
 90 613 l 2,21,22
 90 643 90 643 111 643 c 128,-1,23
 132 643 132 643 132 613 c 2,24,-1
 132 106 l 2,25,26
 132 71 132 71 145 56.5 c 128,-1,27
 158 42 158 42 192 42 c 0,28,29
 222 42 222 42 222 20 c 0,30,31
 222 0 222 0 192 0 c 2,16,-1
EndSplineSet
EndChar

StartChar: Lcommaaccent
Encoding: 315 315 246
Width: 495
GlyphClass: 2
Flags: W
LayerCount: 2
Fore
SplineSet
279 -61 m 0,0,1
 289 -61 289 -61 302 -66 c 128,-1,2
 315 -71 315 -71 315 -81 c 0,3,4
 315 -90 315 -90 311 -98 c 2,5,-1
 269 -181 l 1,6,7
 260 -202 260 -202 249 -202 c 0,8,9
 232 -202 232 -202 232 -182 c 0,10,11
 232 -176 232 -176 235 -167 c 2,12,-1
 259 -81 l 2,13,14
 265 -61 265 -61 279 -61 c 0,0,1
103 0 m 2,15,16
 84 0 84 0 84 31 c 2,17,-1
 84 615 l 2,18,19
 84 643 84 643 105 643 c 128,-1,20
 126 643 126 643 126 615 c 2,21,-1
 126 42 l 1,22,-1
 444 42 l 2,23,24
 472 42 472 42 472 20 c 0,25,26
 472 0 472 0 444 0 c 2,27,-1
 103 0 l 2,15,16
EndSplineSet
EndChar

StartChar: lcommaaccent
Encoding: 316 316 247
Width: 261
GlyphClass: 2
Flags: W
LayerCount: 2
Fore
SplineSet
151 -64 m 0,0,1
 161 -64 161 -64 174 -69 c 128,-1,2
 187 -74 187 -74 187 -84 c 0,3,4
 187 -93 187 -93 183 -101 c 2,5,-1
 141 -184 l 1,6,7
 132 -205 132 -205 121 -205 c 0,8,9
 104 -205 104 -205 104 -185 c 0,10,11
 104 -179 104 -179 107 -170 c 2,12,-1
 131 -84 l 2,13,14
 137 -64 137 -64 151 -64 c 0,0,1
193 0 m 2,15,-1
 186 0 l 2,16,17
 131 0 131 0 111 27 c 128,-1,18
 91 54 91 54 91 124 c 2,19,-1
 91 613 l 2,20,21
 91 643 91 643 112 643 c 128,-1,22
 133 643 133 643 133 613 c 2,23,-1
 133 106 l 2,24,25
 133 71 133 71 146 56.5 c 128,-1,26
 159 42 159 42 193 42 c 0,27,28
 223 42 223 42 223 20 c 0,29,30
 223 0 223 0 193 0 c 2,15,-1
EndSplineSet
EndChar

StartChar: Lcaron
Encoding: 317 317 248
Width: 495
GlyphClass: 2
Flags: W
LayerCount: 2
Fore
SplineSet
236 645 m 0,0,1
 246 645 246 645 259 640 c 128,-1,2
 272 635 272 635 272 625 c 0,3,4
 272 616 272 616 268 608 c 2,5,-1
 226 525 l 1,6,7
 217 504 217 504 206 504 c 0,8,9
 189 504 189 504 189 524 c 0,10,11
 189 530 189 530 192 539 c 2,12,-1
 216 625 l 2,13,14
 222 645 222 645 236 645 c 0,0,1
103 0 m 2,15,16
 84 0 84 0 84 31 c 2,17,-1
 84 615 l 2,18,19
 84 643 84 643 105 643 c 128,-1,20
 126 643 126 643 126 615 c 2,21,-1
 126 42 l 1,22,-1
 444 42 l 2,23,24
 472 42 472 42 472 20 c 0,25,26
 472 0 472 0 444 0 c 2,27,-1
 103 0 l 2,15,16
EndSplineSet
EndChar

StartChar: lcaron
Encoding: 318 318 249
Width: 260
GlyphClass: 2
Flags: W
LayerCount: 2
Fore
SplineSet
249 643 m 0,0,1
 259 643 259 643 272 638 c 128,-1,2
 285 633 285 633 285 623 c 0,3,4
 285 614 285 614 281 606 c 2,5,-1
 239 523 l 1,6,7
 230 502 230 502 219 502 c 0,8,9
 202 502 202 502 202 522 c 0,10,11
 202 528 202 528 205 537 c 2,12,-1
 229 623 l 2,13,14
 235 643 235 643 249 643 c 0,0,1
192 0 m 2,15,-1
 185 0 l 2,16,17
 130 0 130 0 110 27 c 128,-1,18
 90 54 90 54 90 124 c 2,19,-1
 90 613 l 2,20,21
 90 643 90 643 111 643 c 128,-1,22
 132 643 132 643 132 613 c 2,23,-1
 132 106 l 2,24,25
 132 71 132 71 145 56.5 c 128,-1,26
 158 42 158 42 192 42 c 0,27,28
 222 42 222 42 222 20 c 0,29,30
 222 0 222 0 192 0 c 2,15,-1
EndSplineSet
EndChar

StartChar: Lslash
Encoding: 321 321 250
Width: 501
GlyphClass: 2
Flags: W
LayerCount: 2
Fore
SplineSet
205 413 m 0,0,1
 214 413 214 413 220.5 406.5 c 128,-1,2
 227 400 227 400 227 392 c 0,3,4
 227 379 227 379 205 370 c 1,5,-1
 132 334 l 1,6,-1
 132 42 l 1,7,-1
 450 42 l 2,8,9
 478 42 478 42 478 20 c 0,10,11
 478 0 478 0 450 0 c 2,12,-1
 109 0 l 2,13,14
 90 0 90 0 90 31 c 2,15,-1
 90 313 l 1,16,-1
 35 286 l 2,17,18
 28 283 28 283 22 283 c 0,19,20
 1 283 1 283 1 306 c 0,21,22
 1 316 1 316 20 326 c 2,23,-1
 90 361 l 1,24,-1
 90 615 l 2,25,26
 90 643 90 643 111 643 c 128,-1,27
 132 643 132 643 132 615 c 2,28,-1
 132 381 l 1,29,-1
 190 410 l 1,30,31
 199 413 199 413 205 413 c 0,0,1
EndSplineSet
EndChar

StartChar: lslash
Encoding: 322 322 251
Width: 299
GlyphClass: 2
Flags: W
LayerCount: 2
Fore
SplineSet
223 0 m 2,0,-1
 216 0 l 2,1,2
 161 0 161 0 141 27 c 128,-1,3
 121 54 121 54 121 124 c 2,4,-1
 121 315 l 1,5,-1
 63 286 l 2,6,7
 56 283 56 283 50 283 c 0,8,9
 29 283 29 283 29 306 c 0,10,11
 29 316 29 316 48 326 c 2,12,-1
 121 362 l 1,13,-1
 121 613 l 2,14,15
 121 643 121 643 142 643 c 128,-1,16
 163 643 163 643 163 613 c 2,17,-1
 163 383 l 1,18,-1
 218 410 l 1,19,20
 227 413 227 413 233 413 c 0,21,22
 242 413 242 413 248.5 406.5 c 128,-1,23
 255 400 255 400 255 392 c 0,24,25
 255 379 255 379 233 370 c 1,26,-1
 163 335 l 1,27,-1
 163 106 l 2,28,29
 163 71 163 71 176 56.5 c 128,-1,30
 189 42 189 42 223 42 c 0,31,32
 253 42 253 42 253 20 c 0,33,34
 253 0 253 0 223 0 c 2,0,-1
EndSplineSet
EndChar

